Fira Sans-Bold.ufo
<glyph name="exclam" format="1">
  <advance width="240"/>
  <unicode hex="0021"/>
  <outline>
    <contour>
      <point x="16" y="696" type="line"/>
      <point x="42" y="270" type="line"/>
      <point x="198" y="270" type="line"/>
      <point x="224" y="696" type="line"/>
    </contour>
    <contour>
      <point x="63" y="186"/>
      <point x="17" y="139"/>
      <point x="17" y="83" type="curve" smooth="yes"/>
      <point x="17" y="27"/>
      <point x="63" y="-20"/>
      <point x="120" y="-20" type="curve" smooth="yes"/>
      <point x="177" y="-20"/>
      <point x="223" y="27"/>
      <point x="223" y="83" type="curve" smooth="yes"/>
      <point x="223" y="139"/>
      <point x="177" y="186"/>
      <point x="120" y="186" type="curve" smooth="yes"/>
    </contour>
  </outline>
</glyph>
<glyph name="numbersign" format="1">
  <advance width="580"/>
  <unicode hex="0023"/>
  <outline>
    <contour>
      <point x="369" y="680" type="line"/>
      <point x="279" y="0" type="line"/>
      <point x="442" y="0" type="line"/>
      <point x="532" y="680" type="line"/>
    </contour>
    <contour>
      <point x="15" y="257" type="line"/>
      <point x="15" y="131" type="line"/>
      <point x="528" y="131" type="line"/>
      <point x="528" y="257" type="line"/>
    </contour>
    <contour>
      <point x="138" y="680" type="line"/>
      <point x="48" y="0" type="line"/>
      <point x="211" y="0" type="line"/>
      <point x="301" y="680" type="line"/>
    </contour>
    <contour>
      <point x="52" y="562" type="line"/>
      <point x="52" y="436" type="line"/>
      <point x="565" y="436" type="line"/>
      <point x="565" y="562" type="line"/>
    </contour>
  </outline>
</glyph>
<glyph name="ampersand" format="1">
  <advance width="807"/>
  <unicode hex="0026"/>
  <outline>
    <contour>
      <point x="157" y="716"/>
      <point x="85" y="628"/>
      <point x="85" y="542" type="curve" smooth="yes"/>
      <point x="85" y="483"/>
      <point x="105" y="446"/>
      <point x="180" y="372" type="curve"/>
      <point x="87" y="311"/>
      <point x="47" y="259"/>
      <point x="47" y="179" type="curve" smooth="yes"/>
      <point x="47" y="59"/>
      <point x="151" y="-20"/>
      <point x="309" y="-20" type="curve" smooth="yes"/>
      <point x="386" y="-20"/>
      <point x="459" y="-2"/>
      <point x="526" y="44" type="curve"/>
      <point x="593" y="-20" type="line"/>
      <point x="769" y="49" type="line"/>
      <point x="643" y="157" type="line"/>
      <point x="679" y="205"/>
      <point x="710" y="264"/>
      <point x="736" y="336" type="curve"/>
      <point x="576" y="383" type="line"/>
      <point x="565" y="333"/>
      <point x="552" y="290"/>
      <point x="536" y="255" type="curve"/>
      <point x="425" y="358" type="line"/>
      <point x="504" y="413"/>
      <point x="553" y="468"/>
      <point x="553" y="551" type="curve" smooth="yes"/>
      <point x="553" y="644"/>
      <point x="470" y="716"/>
      <point x="319" y="716" type="curve" smooth="yes"/>
    </contour>
    <contour>
      <point x="431" y="134" type="line"/>
      <point x="406" y="122"/>
      <point x="378" y="116"/>
      <point x="346" y="116" type="curve" smooth="yes"/>
      <point x="289" y="116"/>
      <point x="256" y="147"/>
      <point x="256" y="191" type="curve" smooth="yes"/>
      <point x="256" y="220"/>
      <point x="266" y="244"/>
      <point x="292" y="266" type="curve"/>
    </contour>
    <contour>
      <point x="350" y="593"/>
      <point x="365" y="574"/>
      <point x="365" y="547" type="curve" smooth="yes"/>
      <point x="365" y="512"/>
      <point x="353" y="487"/>
      <point x="318" y="461" type="curve"/>
      <point x="279" y="501"/>
      <point x="274" y="517"/>
      <point x="274" y="542" type="curve" smooth="yes"/>
      <point x="274" y="574"/>
      <point x="293" y="593"/>
      <point x="322" y="593" type="curve" smooth="yes"/>
    </contour>
  </outline>
</glyph>
<glyph name="quotesingle" format="1">
  <advance width="250"/>
  <unicode hex="0027"/>
  <outline>
    <contour>
      <point x="188" y="406" type="line"/>
      <point x="210" y="696" type="line"/>
      <point x="40" y="696" type="line"/>
      <point x="62" y="406" type="line"/>
    </contour>
  </outline>
</glyph>
<glyph name="parenleft" format="1">
  <advance width="325"/>
  <unicode hex="0028"/>
  <outline>
    <contour>
      <point x="101" y="729"/>
      <point x="5" y="590"/>
      <point x="5" y="350" type="curve" smooth="yes"/>
      <point x="5" y="110"/>
      <point x="101" y="-29"/>
      <point x="203" y="-167" type="curve"/>
      <point x="330" y="-82" type="line"/>
      <point x="236" y="50"/>
      <point x="203" y="183"/>
      <point x="203" y="350" type="curve" smooth="yes"/>
      <point x="203" y="517"/>
      <point x="236" y="650"/>
      <point x="330" y="782" type="curve"/>
      <point x="203" y="867" type="line"/>
    </contour>
  </outline>
</glyph>
<glyph name="parenright" format="1">
  <advance width="325"/>
  <unicode hex="0029"/>
  <outline>
    <contour>
      <point x="-5" y="782" type="line"/>
      <point x="89" y="650"/>
      <point x="122" y="517"/>
      <point x="122" y="350" type="curve" smooth="yes"/>
      <point x="122" y="183"/>
      <point x="89" y="50"/>
      <point x="-5" y="-82" type="curve"/>
      <point x="122" y="-167" type="line"/>
      <point x="224" y="-29"/>
      <point x="320" y="110"/>
      <point x="320" y="350" type="curve" smooth="yes"/>
      <point x="320" y="590"/>
      <point x="224" y="729"/>
      <point x="122" y="867" type="curve"/>
    </contour>
  </outline>
</glyph>
<glyph name="asterisk" format="1">
  <advance width="455"/>
  <unicode hex="002A"/>
  <outline>
    <contour>
      <point x="221" y="449" type="line"/>
      <point x="287" y="312" type="line"/>
      <point x="420" y="409" type="line"/>
      <point x="309" y="513" type="line"/>
      <point x="228" y="532" type="line"/>
    </contour>
    <contour>
      <point x="146" y="744" type="line"/>
      <point x="173" y="592" type="line"/>
      <point x="228" y="532" type="line"/>
      <point x="283" y="591" type="line"/>
      <point x="310" y="744" type="line"/>
    </contour>
    <contour>
      <point x="272" y="600" type="line"/>
      <point x="228" y="532" type="line"/>
      <point x="304" y="500" type="line"/>
      <point x="455" y="520" type="line"/>
      <point x="404" y="673" type="line"/>
    </contour>
    <contour>
      <point x="0" y="519" type="line"/>
      <point x="151" y="500" type="line"/>
      <point x="228" y="532" type="line"/>
      <point x="184" y="601" type="line"/>
      <point x="51" y="672" type="line"/>
    </contour>
    <contour>
      <point x="146" y="513" type="line"/>
      <point x="37" y="408" type="line"/>
      <point x="170" y="311" type="line"/>
      <point x="234" y="449" type="line"/>
      <point x="228" y="532" type="line"/>
    </contour>
  </outline>
</glyph>
<glyph name="plus" format="1">
  <advance width="550"/>
  <unicode hex="002B"/>
  <outline>
    <contour>
      <point x="195" y="567" type="line"/>
      <point x="195" y="407" type="line"/>
      <point x="40" y="407" type="line"/>
      <point x="40" y="257" type="line"/>
      <point x="195" y="257" type="line"/>
      <point x="195" y="97" type="line"/>
      <point x="355" y="97" type="line"/>
      <point x="355" y="257" type="line"/>
      <point x="510" y="257" type="line"/>
      <point x="510" y="407" type="line"/>
      <point x="355" y="407" type="line"/>
      <point x="355" y="567" type="line"/>
    </contour>
  </outline>
</glyph>
<glyph name="comma" format="1">
  <advance width="240"/>
  <unicode hex="002C"/>
  <outline>
    <contour>
      <point x="61" y="186"/>
      <point x="17" y="142"/>
      <point x="17" y="84" type="curve" smooth="yes"/>
      <point x="17" y="48"/>
      <point x="33" y="18"/>
      <point x="63" y="-1" type="curve"/>
      <point x="19" y="-184" type="line"/>
      <point x="121" y="-184" type="line"/>
      <point x="183" y="-44" type="line" smooth="yes"/>
      <point x="210" y="17"/>
      <point x="223" y="48"/>
      <point x="223" y="83" type="curve" smooth="yes"/>
      <point x="223" y="142"/>
      <point x="179" y="186"/>
      <point x="120" y="186" type="curve" smooth="yes"/>
    </contour>
  </outline>
</glyph>
<glyph name="hyphen" format="1">
  <advance width="410"/>
  <unicode hex="002D"/>
  <outline>
    <contour>
      <point x="375" y="238" type="line"/>
      <point x="375" y="388" type="line"/>
      <point x="35" y="388" type="line"/>
      <point x="35" y="238" type="line"/>
    </contour>
  </outline>
</glyph>
<glyph name="period" format="1">
  <advance width="240"/>
  <unicode hex="002E"/>
  <outline>
    <contour>
      <point x="63" y="186"/>
      <point x="17" y="139"/>
      <point x="17" y="83" type="curve" smooth="yes"/>
      <point x="17" y="27"/>
      <point x="63" y="-20"/>
      <point x="120" y="-20" type="curve" smooth="yes"/>
      <point x="177" y="-20"/>
      <point x="223" y="27"/>
      <point x="223" y="83" type="curve" smooth="yes"/>
      <point x="223" y="139"/>
      <point x="177" y="186"/>
      <point x="120" y="186" type="curve" smooth="yes"/>
    </contour>
  </outline>
</glyph>
<glyph name="slash" format="1">
  <advance width="520"/>
  <unicode hex="002F"/>
  <outline>
    <contour>
      <point x="54" y="-77" type="line"/>
      <point x="229" y="-117" type="line"/>
      <point x="466" y="782" type="line"/>
      <point x="292" y="822" type="line"/>
    </contour>
  </outline>
</glyph>
<glyph name="zero" format="1">
  <advance width="602"/>
  <unicode hex="0030"/>
  <outline>
    <contour>
      <point x="125" y="696"/>
      <point x="27" y="569"/>
      <point x="27" y="339" type="curve" smooth="yes"/>
      <point x="27" y="110"/>
      <point x="125" y="-20"/>
      <point x="301" y="-20" type="curve" smooth="yes"/>
      <point x="477" y="-20"/>
      <point x="575" y="110"/>
      <point x="575" y="339" type="curve" smooth="yes"/>
      <point x="575" y="569"/>
      <point x="477" y="696"/>
      <point x="301" y="696" type="curve" smooth="yes"/>
    </contour>
    <contour>
      <point x="356" y="553"/>
      <point x="373" y="515"/>
      <point x="373" y="339" type="curve" smooth="yes"/>
      <point x="373" y="164"/>
      <point x="356" y="124"/>
      <point x="301" y="124" type="curve" smooth="yes"/>
      <point x="246" y="124"/>
      <point x="229" y="170"/>
      <point x="229" y="339" type="curve" smooth="yes"/>
      <point x="229" y="507"/>
      <point x="246" y="553"/>
      <point x="301" y="553" type="curve" smooth="yes"/>
    </contour>
  </outline>
</glyph>
<glyph name="one" format="1">
  <advance width="482"/>
  <unicode hex="0031"/>
  <outline>
    <contour>
      <point x="241" y="680" type="line"/>
      <point x="0" y="536" type="line"/>
      <point x="86" y="407" type="line"/>
      <point x="225" y="492" type="line"/>
      <point x="225" y="0" type="line"/>
      <point x="417" y="0" type="line"/>
      <point x="417" y="680" type="line"/>
    </contour>
  </outline>
</glyph>
<glyph name="two" format="1">
  <advance width="530"/>
  <unicode hex="0032"/>
  <outline>
    <contour>
      <point x="133" y="696"/>
      <point x="49" y="644"/>
      <point x="-5" y="570" type="curve"/>
      <point x="108" y="480" type="line"/>
      <point x="144" y="526"/>
      <point x="177" y="548"/>
      <point x="222" y="548" type="curve" smooth="yes"/>
      <point x="267" y="548"/>
      <point x="294" y="520"/>
      <point x="294" y="475" type="curve" smooth="yes"/>
      <point x="294" y="406"/>
      <point x="244" y="346"/>
      <point x="23" y="136" type="curve"/>
      <point x="23" y="0" type="line"/>
      <point x="490" y="0" type="line"/>
      <point x="510" y="148" type="line"/>
      <point x="247" y="148" type="line"/>
      <point x="462" y="332"/>
      <point x="496" y="404"/>
      <point x="496" y="497" type="curve" smooth="yes"/>
      <point x="496" y="603"/>
      <point x="412" y="696"/>
      <point x="244" y="696" type="curve" smooth="yes"/>
    </contour>
  </outline>
</glyph>
<glyph name="four" format="1">
  <advance width="585"/>
  <unicode hex="0034"/>
  <outline>
    <contour>
      <point x="20" y="263" type="line"/>
      <point x="20" y="134" type="line"/>
      <point x="570" y="134" type="line"/>
      <point x="570" y="280" type="line"/>
      <point x="223" y="280" type="line"/>
      <point x="376" y="641" type="line"/>
      <point x="207" y="701" type="line"/>
    </contour>
    <contour>
      <point x="330" y="428" type="line"/>
      <point x="305" y="264" type="line"/>
      <point x="306" y="0" type="line"/>
      <point x="500" y="0" type="line"/>
      <point x="500" y="428" type="line"/>
    </contour>
  </outline>
</glyph>
<glyph name="five" format="1">
  <advance width="557"/>
  <unicode hex="0035"/>
  <outline>
    <contour>
      <point x="50" y="680" type="line"/>
      <point x="50" y="299" type="line"/>
      <point x="179" y="299" type="line"/>
      <point x="208" y="317"/>
      <point x="229" y="323"/>
      <point x="251" y="323" type="curve" smooth="yes"/>
      <point x="299" y="323"/>
      <point x="330" y="298"/>
      <point x="330" y="226" type="curve" smooth="yes"/>
      <point x="330" y="160"/>
      <point x="296" y="126"/>
      <point x="237" y="126" type="curve" smooth="yes"/>
      <point x="185" y="126"/>
      <point x="144" y="152"/>
      <point x="114" y="192" type="curve"/>
      <point x="5" y="93" type="line"/>
      <point x="56" y="29"/>
      <point x="133" y="-20"/>
      <point x="246" y="-20" type="curve" smooth="yes"/>
      <point x="421" y="-20"/>
      <point x="532" y="80"/>
      <point x="532" y="229" type="curve" smooth="yes"/>
      <point x="532" y="373"/>
      <point x="445" y="454"/>
      <point x="335" y="454" type="curve" smooth="yes"/>
      <point x="306" y="454"/>
      <point x="273" y="448"/>
      <point x="240" y="433" type="curve"/>
      <point x="240" y="542" type="line"/>
      <point x="475" y="542" type="line"/>
      <point x="496" y="680" type="line"/>
    </contour>
  </outline>
</glyph>
<glyph name="seven" format="1">
  <advance width="482"/>
  <unicode hex="0037"/>
  <outline>
    <contour>
      <point x="5" y="680" type="line"/>
      <point x="5" y="534" type="line"/>
      <point x="264" y="534" type="line"/>
      <point x="46" y="40" type="line"/>
      <point x="225" y="-20" type="line"/>
      <point x="472" y="550" type="line"/>
      <point x="472" y="680" type="line"/>
    </contour>
  </outline>
</glyph>
<glyph name="eight" format="1">
  <advance width="599"/>
  <unicode hex="0038"/>
  <outline>
    <contour>
      <point x="144" y="696"/>
      <point x="46" y="615"/>
      <point x="46" y="509" type="curve" smooth="yes"/>
      <point x="46" y="446"/>
      <point x="75" y="383"/>
      <point x="159" y="335" type="curve"/>
      <point x="251" y="297" type="line"/>
      <point x="304" y="277" type="line" smooth="yes"/>
      <point x="360" y="254"/>
      <point x="383" y="233"/>
      <point x="383" y="188" type="curve" smooth="yes"/>
      <point x="383" y="151"/>
      <point x="359" y="118"/>
      <point x="302" y="118" type="curve" smooth="yes"/>
      <point x="250" y="118"/>
      <point x="216" y="149"/>
      <point x="216" y="194" type="curve" smooth="yes"/>
      <point x="216" y="238"/>
      <point x="237" y="278"/>
      <point x="281" y="300" type="curve"/>
      <point x="158" y="353" type="line"/>
      <point x="73" y="321"/>
      <point x="20" y="264"/>
      <point x="20" y="182" type="curve" smooth="yes"/>
      <point x="20" y="75"/>
      <point x="117" y="-20"/>
      <point x="295" y="-20" type="curve" smooth="yes"/>
      <point x="482" y="-20"/>
      <point x="579" y="78"/>
      <point x="579" y="185" type="curve" smooth="yes"/>
      <point x="579" y="263"/>
      <point x="535" y="325"/>
      <point x="428" y="375" type="curve"/>
      <point x="332" y="410" type="line"/>
      <point x="293" y="426" type="line" smooth="yes"/>
      <point x="252" y="447"/>
      <point x="237" y="473"/>
      <point x="237" y="506" type="curve" smooth="yes"/>
      <point x="237" y="548"/>
      <point x="263" y="567"/>
      <point x="301" y="567" type="curve" smooth="yes"/>
      <point x="342" y="567"/>
      <point x="362" y="542"/>
      <point x="362" y="508" type="curve" smooth="yes"/>
      <point x="362" y="472"/>
      <point x="354" y="437"/>
      <point x="297" y="402" type="curve"/>
      <point x="429" y="355" type="line"/>
      <point x="517" y="397"/>
      <point x="553" y="463"/>
      <point x="553" y="519" type="curve" smooth="yes"/>
      <point x="553" y="628"/>
      <point x="455" y="696"/>
      <point x="300" y="696" type="curve" smooth="yes"/>
    </contour>
  </outline>
</glyph>
<glyph name="nine" format="1">
  <advance width="582"/>
  <unicode hex="0039"/>
  <outline>
    <contour>
      <point x="369" y="424" type="line"/>
      <point x="345" y="381"/>
      <point x="310" y="363"/>
      <point x="279" y="363" type="curve" smooth="yes"/>
      <point x="245" y="363"/>
      <point x="213" y="382"/>
      <point x="213" y="466" type="curve" smooth="yes"/>
      <point x="213" y="530"/>
      <point x="244" y="560"/>
      <point x="286" y="560" type="curve" smooth="yes"/>
      <point x="350" y="560"/>
      <point x="362" y="514"/>
      <point x="358" y="377" type="curve"/>
      <point x="349" y="291" type="line"/>
      <point x="311" y="184"/>
      <point x="238" y="141"/>
      <point x="63" y="104" type="curve"/>
      <point x="102" y="-32" type="line"/>
      <point x="417" y="20"/>
      <point x="562" y="158"/>
      <point x="562" y="433" type="curve" smooth="yes"/>
      <point x="562" y="585"/>
      <point x="469" y="696"/>
      <point x="288" y="696" type="curve" smooth="yes"/>
      <point x="132" y="696"/>
      <point x="15" y="598"/>
      <point x="15" y="456" type="curve" smooth="yes"/>
      <point x="15" y="314"/>
      <point x="107" y="229"/>
      <point x="213" y="229" type="curve" smooth="yes"/>
      <point x="277" y="229"/>
      <point x="315" y="250"/>
      <point x="353" y="290" type="curve"/>
    </contour>
  </outline>
</glyph>
<glyph name="less" format="1">
  <advance width="530"/>
  <unicode hex="003C"/>
  <outline>
    <contour>
      <point x="25" y="416" type="line"/>
      <point x="25" y="249" type="line"/>
      <point x="445" y="75" type="line"/>
      <point x="505" y="215" type="line"/>
      <point x="196" y="333" type="line"/>
      <point x="505" y="459" type="line"/>
      <point x="445" y="591" type="line"/>
    </contour>
  </outline>
</glyph>
<glyph name="greater" format="1">
  <advance width="530"/>
  <unicode hex="003E"/>
  <outline>
    <contour>
      <point x="25" y="459" type="line"/>
      <point x="334" y="333" type="line"/>
      <point x="25" y="215" type="line"/>
      <point x="85" y="75" type="line"/>
      <point x="505" y="249" type="line"/>
      <point x="505" y="416" type="line"/>
      <point x="85" y="591" type="line"/>
    </contour>
  </outline>
</glyph>
<glyph name="question" format="1">
  <advance width="495"/>
  <unicode hex="003F"/>
  <outline>
    <contour>
      <point x="139" y="716"/>
      <point x="61" y="670"/>
      <point x="5" y="604" type="curve"/>
      <point x="128" y="508" type="line"/>
      <point x="161" y="543"/>
      <point x="197" y="562"/>
      <point x="232" y="562" type="curve" smooth="yes"/>
      <point x="265" y="562"/>
      <point x="283" y="548"/>
      <point x="283" y="523" type="curve" smooth="yes"/>
      <point x="283" y="457"/>
      <point x="135" y="465"/>
      <point x="135" y="289" type="curve" smooth="yes"/>
      <point x="135" y="270" type="line"/>
      <point x="311" y="270" type="line"/>
      <point x="311" y="283" type="line" smooth="yes"/>
      <point x="311" y="384"/>
      <point x="490" y="378"/>
      <point x="490" y="542" type="curve" smooth="yes"/>
      <point x="490" y="636"/>
      <point x="412" y="716"/>
      <point x="254" y="716" type="curve" smooth="yes"/>
    </contour>
    <contour>
      <point x="167" y="186"/>
      <point x="121" y="139"/>
      <point x="121" y="83" type="curve" smooth="yes"/>
      <point x="121" y="27"/>
      <point x="167" y="-20"/>
      <point x="224" y="-20" type="curve" smooth="yes"/>
      <point x="281" y="-20"/>
      <point x="327" y="27"/>
      <point x="327" y="83" type="curve" smooth="yes"/>
      <point x="327" y="139"/>
      <point x="281" y="186"/>
      <point x="224" y="186" type="curve" smooth="yes"/>
    </contour>
  </outline>
</glyph>
<glyph name="C" format="1">
  <advance width="584"/>
  <unicode hex="0043"/>
  <outline>
    <contour>
      <point x="156" y="716"/>
      <point x="20" y="582"/>
      <point x="20" y="350" type="curve" smooth="yes"/>
      <point x="20" y="109"/>
      <point x="151" y="-20"/>
      <point x="354" y="-20" type="curve" smooth="yes"/>
      <point x="452" y="-20"/>
      <point x="533" y="26"/>
      <point x="584" y="77" type="curve"/>
      <point x="494" y="193" type="line"/>
      <point x="453" y="161"/>
      <point x="415" y="135"/>
      <point x="366" y="135" type="curve" smooth="yes"/>
      <point x="283" y="135"/>
      <point x="234" y="203"/>
      <point x="234" y="350" type="curve" smooth="yes"/>
      <point x="234" y="497"/>
      <point x="282" y="568"/>
      <point x="360" y="568" type="curve" smooth="yes"/>
      <point x="408" y="568"/>
      <point x="445" y="549"/>
      <point x="478" y="519" type="curve"/>
      <point x="576" y="634" type="line"/>
      <point x="517" y="685"/>
      <point x="445" y="716"/>
      <point x="348" y="716" type="curve" smooth="yes"/>
    </contour>
    <contour>
      <point x="375" y="354" type="move" name="center"/>
    </contour>
    <contour>
      <point x="339" y="0" type="move" name="bottom"/>
    </contour>
    <contour>
      <point x="358" y="696" type="move" name="top"/>
    </contour>
  </outline>
</glyph>
<glyph name="E" format="1">
  <advance width="520"/>
  <unicode hex="0045"/>
  <outline>
    <contour>
      <point x="43" y="696" type="line"/>
      <point x="43" y="0" type="line"/>
      <point x="495" y="0" type="line"/>
      <point x="495" y="144" type="line"/>
      <point x="249" y="144" type="line"/>
      <point x="249" y="284" type="line"/>
      <point x="451" y="284" type="line"/>
      <point x="451" y="423" type="line"/>
      <point x="249" y="423" type="line"/>
      <point x="249" y="553" type="line"/>
      <point x="479" y="553" type="line"/>
      <point x="500" y="696" type="line"/>
    </contour>
    <contour>
      <point x="465" y="0" type="move" name="ogonek"/>
    </contour>
    <contour>
      <point x="272" y="696" type="move" name="top"/>
    </contour>
    <contour>
      <point x="43" y="696" type="move" name="topleft"/>
    </contour>
    <contour>
      <point x="269" y="0" type="move" name="bottom"/>
    </contour>
  </outline>
</glyph>
<glyph name="F" format="1">
  <advance width="485"/>
  <unicode hex="0046"/>
  <outline>
    <contour>
      <point x="43" y="696" type="line" smooth="yes"/>
      <point x="43" y="0" type="line" smooth="yes"/>
      <point x="249" y="0" type="line" smooth="yes"/>
      <point x="249" y="258" type="line" smooth="yes"/>
      <point x="438" y="258" type="line" smooth="yes"/>
      <point x="438" y="401" type="line" smooth="yes"/>
      <point x="249" y="401" type="line" smooth="yes"/>
      <point x="249" y="553" type="line" smooth="yes"/>
      <point x="464" y="553" type="line" smooth="yes"/>
      <point x="485" y="696" type="line" smooth="yes"/>
    </contour>
    <contour>
      <point x="274" y="696" type="move" name="top"/>
    </contour>
  </outline>
</glyph>
<glyph name="G" format="1">
  <advance width="653"/>
  <unicode hex="0047"/>
  <outline>
    <contour>
      <point x="170" y="716"/>
      <point x="20" y="585"/>
      <point x="20" y="349" type="curve" smooth="yes"/>
      <point x="20" y="112"/>
      <point x="122" y="-20"/>
      <point x="355" y="-20" type="curve" smooth="yes"/>
      <point x="442" y="-20"/>
      <point x="543" y="9"/>
      <point x="618" y="60" type="curve"/>
      <point x="618" y="409" type="line"/>
      <point x="331" y="409" type="line"/>
      <point x="350" y="270" type="line"/>
      <point x="420" y="270" type="line"/>
      <point x="420" y="143" type="line"/>
      <point x="398" y="132"/>
      <point x="376" y="126"/>
      <point x="349" y="126" type="curve" smooth="yes"/>
      <point x="268" y="126"/>
      <point x="232" y="176"/>
      <point x="232" y="348" type="curve" smooth="yes"/>
      <point x="232" y="501"/>
      <point x="287" y="572"/>
      <point x="383" y="572" type="curve" smooth="yes"/>
      <point x="436" y="572"/>
      <point x="472" y="554"/>
      <point x="514" y="518" type="curve"/>
      <point x="618" y="625" type="line"/>
      <point x="562" y="676"/>
      <point x="476" y="716"/>
      <point x="371" y="716" type="curve" smooth="yes"/>
    </contour>
    <contour>
      <point x="350" y="696" type="move" name="top"/>
    </contour>
    <contour>
      <point x="350" y="0" type="move" name="bottom"/>
    </contour>
  </outline>
</glyph>
<glyph name="H" format="1">
  <advance width="657"/>
  <unicode hex="0048"/>
  <outline>
    <contour>
      <point x="614" y="0" type="line"/>
      <point x="614" y="696" type="line"/>
      <point x="408" y="696" type="line"/>
      <point x="408" y="439" type="line"/>
      <point x="249" y="439" type="line"/>
      <point x="249" y="696" type="line"/>
      <point x="43" y="696" type="line"/>
      <point x="43" y="0" type="line"/>
      <point x="249" y="0" type="line"/>
      <point x="249" y="281" type="line"/>
      <point x="408" y="281" type="line"/>
      <point x="408" y="0" type="line"/>
    </contour>
    <contour>
      <point x="329" y="0" type="move" name="bottom"/>
    </contour>
    <contour>
      <point x="329" y="696" type="move" name="top"/>
    </contour>
    <contour>
      <point x="43" y="696" type="move" name="topleft"/>
    </contour>
    <contour>
      <point x="624" y="0" type="move" name="bottomright"/>
    </contour>
    <contour>
      <point x="329" y="348" type="move" name="center"/>
    </contour>
  </outline>
</glyph>
<glyph name="I" format="1">
  <advance width="292"/>
  <unicode hex="0049"/>
  <outline>
    <contour>
      <point x="43" y="696" type="line"/>
      <point x="43" y="0" type="line"/>
      <point x="249" y="0" type="line"/>
      <point x="249" y="696" type="line"/>
    </contour>
    <contour>
      <point x="213" y="0" type="move" name="ogonek"/>
    </contour>
    <contour>
      <point x="146" y="696" type="move" name="top"/>
    </contour>
    <contour>
      <point x="43" y="696" type="move" name="topleft"/>
    </contour>
    <contour>
      <point x="146" y="0" type="move" name="bottom"/>
    </contour>
  </outline>
</glyph>
<glyph name="K" format="1">
  <advance width="659"/>
  <unicode hex="004B"/>
  <outline>
    <contour>
      <point x="449" y="696" type="line"/>
      <point x="255" y="371" type="line"/>
      <point x="445" y="0" type="line"/>
      <point x="679" y="0" type="line"/>
      <point x="464" y="387" type="line"/>
      <point x="661" y="696" type="line"/>
    </contour>
    <contour>
      <point x="43" y="696" type="line"/>
      <point x="43" y="0" type="line"/>
      <point x="249" y="0" type="line"/>
      <point x="249" y="696" type="line"/>
    </contour>
    <contour>
      <point x="330" y="696" type="move" name="top"/>
    </contour>
    <contour>
      <point x="330" y="0" type="move" name="bottom"/>
    </contour>
  </outline>
</glyph>
<glyph name="L" format="1">
  <advance width="522"/>
  <unicode hex="004C"/>
  <outline>
    <contour>
      <point x="43" y="696" type="line"/>
      <point x="43" y="0" type="line"/>
      <point x="491" y="0" type="line"/>
      <point x="512" y="158" type="line"/>
      <point x="249" y="158" type="line"/>
      <point x="249" y="696" type="line"/>
    </contour>
    <contour>
      <point x="267" y="0" type="move" name="bottom"/>
    </contour>
    <contour>
      <point x="146" y="696" type="move" name="top"/>
    </contour>
    <contour>
      <point x="259" y="696" type="move" name="topright"/>
    </contour>
    <contour>
      <point x="403" y="404" type="move" name="center"/>
    </contour>
  </outline>
</glyph>
<glyph name="Q" format="1">
  <advance width="690"/>
  <unicode hex="0051"/>
  <outline>
    <contour>
      <point x="136" y="716"/>
      <point x="20" y="575"/>
      <point x="20" y="349" type="curve" smooth="yes"/>
      <point x="20" y="118"/>
      <point x="136" y="-16"/>
      <point x="330" y="-16" type="curve" smooth="yes"/>
      <point x="356" y="-16"/>
      <point x="381" y="-14"/>
      <point x="404" y="-10" type="curve"/>
      <point x="504" y="48" type="line"/>
      <point x="582" y="94"/>
      <point x="670" y="182"/>
      <point x="670" y="349" type="curve" smooth="yes"/>
      <point x="670" y="580"/>
      <point x="554" y="716"/>
      <point x="345" y="716" type="curve" smooth="yes"/>
    </contour>
    <contour>
      <point x="330" y="-16" type="line"/>
      <point x="462" y="-16"/>
      <point x="543" y="-100"/>
      <point x="599" y="-173" type="curve"/>
      <point x="720" y="-15" type="line"/>
      <point x="661" y="29"/>
      <point x="601" y="48"/>
      <point x="504" y="48" type="curve"/>
    </contour>
    <contour>
      <point x="423" y="570"/>
      <point x="456" y="510"/>
      <point x="456" y="349" type="curve" smooth="yes"/>
      <point x="456" y="188"/>
      <point x="425" y="126"/>
      <point x="345" y="126" type="curve" smooth="yes"/>
      <point x="267" y="126"/>
      <point x="234" y="188"/>
      <point x="234" y="349" type="curve" smooth="yes"/>
      <point x="234" y="510"/>
      <point x="267" y="570"/>
      <point x="345" y="570" type="curve" smooth="yes"/>
    </contour>
    <contour>
      <point x="345" y="696" type="move" name="top"/>
    </contour>
    <contour>
      <point x="345" y="0" type="move" name="bottom"/>
    </contour>
  </outline>
</glyph>
<glyph name="R" format="1">
  <advance width="624"/>
  <unicode hex="0052"/>
  <outline>
    <contour>
      <point x="43" y="696" type="line"/>
      <point x="43" y="0" type="line"/>
      <point x="249" y="0" type="line"/>
      <point x="249" y="555" type="line"/>
      <point x="293" y="555" type="line" smooth="yes"/>
      <point x="354" y="555"/>
      <point x="387" y="530"/>
      <point x="387" y="475" type="curve" smooth="yes"/>
      <point x="387" y="414"/>
      <point x="359" y="386"/>
      <point x="303" y="386" type="curve" smooth="yes"/>
      <point x="233" y="386" type="line"/>
      <point x="233" y="248" type="line"/>
      <point x="401" y="248" type="line"/>
      <point x="537" y="311"/>
      <point x="597" y="365"/>
      <point x="597" y="475" type="curve" smooth="yes"/>
      <point x="597" y="628"/>
      <point x="497" y="696"/>
      <point x="298" y="696" type="curve" smooth="yes"/>
    </contour>
    <contour>
      <point x="280" y="262" type="line"/>
      <point x="416" y="0" type="line"/>
      <point x="644" y="0" type="line"/>
      <point x="466" y="300" type="line"/>
    </contour>
    <contour>
      <point x="312" y="696" type="move" name="top"/>
    </contour>
    <contour>
      <point x="312" y="0" type="move" name="bottom"/>
    </contour>
  </outline>
</glyph>
<glyph name="T" format="1">
  <advance width="554"/>
  <unicode hex="0054"/>
  <outline>
    <contour>
      <point x="5" y="696" type="line"/>
      <point x="5" y="542" type="line"/>
      <point x="174" y="542" type="line"/>
      <point x="174" y="0" type="line"/>
      <point x="380" y="0" type="line"/>
      <point x="380" y="542" type="line"/>
      <point x="538" y="542" type="line"/>
      <point x="559" y="696" type="line"/>
    </contour>
    <contour>
      <point x="277" y="0" type="move" name="bottom"/>
    </contour>
    <contour>
      <point x="277" y="696" type="move" name="top"/>
    </contour>
    <contour>
      <point x="390" y="0" type="move" name="bottomright"/>
    </contour>
    <contour>
      <point x="277" y="348" type="move" name="center"/>
    </contour>
  </outline>
</glyph>
<glyph name="W" format="1">
  <advance width="859"/>
  <unicode hex="0057"/>
  <outline>
    <contour>
      <point x="661" y="696" type="line"/>
      <point x="601" y="149" type="line"/>
      <point x="539" y="696" type="line"/>
      <point x="324" y="696" type="line"/>
      <point x="250" y="149" type="line"/>
      <point x="206" y="696" type="line"/>
      <point x="0" y="696" type="line"/>
      <point x="97" y="0" type="line"/>
      <point x="359" y="0" type="line"/>
      <point x="428" y="500" type="line"/>
      <point x="490" y="0" type="line"/>
      <point x="758" y="0" type="line"/>
      <point x="859" y="696" type="line"/>
    </contour>
    <contour>
      <point x="432" y="696" type="move" name="top"/>
    </contour>
  </outline>
</glyph>
<glyph name="X" format="1">
  <advance width="606"/>
  <unicode hex="0058"/>
  <outline>
    <contour>
      <point x="3" y="696" type="line"/>
      <point x="176" y="369" type="line"/>
      <point x="298" y="239" type="line"/>
      <point x="394" y="0" type="line"/>
      <point x="616" y="0" type="line"/>
      <point x="422" y="375" type="line"/>
      <point x="300" y="496" type="line"/>
      <point x="224" y="696" type="line"/>
    </contour>
    <contour>
      <point x="385" y="696" type="line"/>
      <point x="300" y="496" type="line"/>
      <point x="176" y="369" type="line"/>
      <point x="-10" y="0" type="line"/>
      <point x="208" y="0" type="line"/>
      <point x="298" y="239" type="line"/>
      <point x="422" y="375" type="line"/>
      <point x="602" y="696" type="line"/>
    </contour>
    <contour>
      <point x="546" y="0" type="move" name="bottomright"/>
    </contour>
  </outline>
</glyph>
<glyph name="Z" format="1">
  <advance width="557"/>
  <unicode hex="005A"/>
  <outline>
    <contour>
      <point x="38" y="696" type="line"/>
      <point x="38" y="540" type="line"/>
      <point x="296" y="540" type="line"/>
      <point x="10" y="151" type="line"/>
      <point x="10" y="0" type="line"/>
      <point x="522" y="0" type="line"/>
      <point x="542" y="161" type="line"/>
      <point x="256" y="161" type="line"/>
      <point x="533" y="543" type="line"/>
      <point x="533" y="696" type="line"/>
    </contour>
    <contour>
      <point x="279" y="696" type="move" name="top"/>
    </contour>
    <contour>
      <point x="268" y="0" type="move" name="bottom"/>
    </contour>
  </outline>
</glyph>
<glyph name="bracketleft" format="1">
  <advance width="325"/>
  <unicode hex="005B"/>
  <outline>
    <contour>
      <point x="15" y="827" type="line"/>
      <point x="15" y="-127" type="line"/>
      <point x="315" y="-127" type="line"/>
      <point x="315" y="15" type="line"/>
      <point x="203" y="15" type="line"/>
      <point x="203" y="684" type="line"/>
      <point x="315" y="684" type="line"/>
      <point x="315" y="827" type="line"/>
    </contour>
  </outline>
</glyph>
<glyph name="backslash" format="1">
  <advance width="520"/>
  <unicode hex="005C"/>
  <outline>
    <contour>
      <point x="54" y="782" type="line"/>
      <point x="291" y="-117" type="line"/>
      <point x="466" y="-77" type="line"/>
      <point x="228" y="822" type="line"/>
    </contour>
  </outline>
</glyph>
<glyph name="bracketright" format="1">
  <advance width="325"/>
  <unicode hex="005D"/>
  <outline>
    <contour>
      <point x="10" y="827" type="line"/>
      <point x="10" y="685" type="line"/>
      <point x="122" y="685" type="line"/>
      <point x="122" y="16" type="line"/>
      <point x="10" y="16" type="line"/>
      <point x="10" y="-127" type="line"/>
      <point x="310" y="-127" type="line"/>
      <point x="310" y="827" type="line"/>
    </contour>
  </outline>
</glyph>
<glyph name="asciicircum" format="1">
  <advance width="570"/>
  <unicode hex="005E"/>
  <outline>
    <contour>
      <point x="194" y="847" type="line"/>
      <point x="5" y="527" type="line"/>
      <point x="198" y="527" type="line"/>
      <point x="284" y="705" type="line"/>
      <point x="376" y="527" type="line"/>
      <point x="565" y="527" type="line"/>
      <point x="376" y="847" type="line"/>
    </contour>
  </outline>
</glyph>
<glyph name="underscore" format="1">
  <advance width="520"/>
  <unicode hex="005F"/>
  <outline>
    <contour>
      <point x="515" y="-188" type="line"/>
      <point x="515" y="-38" type="line"/>
      <point x="5" y="-38" type="line"/>
      <point x="5" y="-188" type="line"/>
    </contour>
  </outline>
</glyph>
<glyph name="grave" format="1">
  <advance width="364"/>
  <unicode hex="0060"/>
  <outline>
    <contour>
      <point x="30" y="712" type="line"/>
      <point x="281" y="613" type="line"/>
      <point x="334" y="712" type="line"/>
      <point x="104" y="856" type="line"/>
    </contour>
  </outline>
</glyph>
<glyph name="b" format="1">
  <advance width="599"/>
  <unicode hex="0062"/>
  <outline>
    <contour>
      <point x="320" y="554"/>
      <point x="257" y="521"/>
      <point x="232" y="474" type="curve"/>
      <point x="229" y="340" type="line"/>
      <point x="251" y="392"/>
      <point x="280" y="412"/>
      <point x="311" y="412" type="curve" smooth="yes"/>
      <point x="346" y="412"/>
      <point x="374" y="391"/>
      <point x="374" y="266" type="curve" smooth="yes"/>
      <point x="374" y="154"/>
      <point x="345" y="121"/>
      <point x="305" y="121" type="curve" smooth="yes"/>
      <point x="272" y="121"/>
      <point x="247" y="139"/>
      <point x="231" y="178" type="curve"/>
      <point x="215" y="61" type="line"/>
      <point x="245" y="11"/>
      <point x="297" y="-20"/>
      <point x="363" y="-20" type="curve" smooth="yes"/>
      <point x="498" y="-20"/>
      <point x="577" y="103"/>
      <point x="577" y="266" type="curve" smooth="yes"/>
      <point x="577" y="445"/>
      <point x="513" y="554"/>
      <point x="375" y="554" type="curve" smooth="yes"/>
    </contour>
    <contour>
      <point x="42" y="744" type="line"/>
      <point x="42" y="0" type="line"/>
      <point x="218" y="0" type="line"/>
      <point x="240" y="152" type="line"/>
      <point x="240" y="764" type="line"/>
    </contour>
    <contour>
      <point x="322" y="744" type="move" name="top"/>
    </contour>
    <contour>
      <point x="308" y="0" type="move" name="bottom"/>
    </contour>
  </outline>
</glyph>
<glyph name="d" format="1">
  <advance width="601"/>
  <unicode hex="0064"/>
  <outline>
    <contour>
      <point x="108" y="554"/>
      <point x="22" y="436"/>
      <point x="22" y="270" type="curve" smooth="yes"/>
      <point x="22" y="94"/>
      <point x="86" y="-20"/>
      <point x="225" y="-20" type="curve" smooth="yes"/>
      <point x="309" y="-20"/>
      <point x="356" y="25"/>
      <point x="383" y="66" type="curve"/>
      <point x="371" y="188" type="line"/>
      <point x="350" y="142"/>
      <point x="323" y="122"/>
      <point x="294" y="122" type="curve" smooth="yes"/>
      <point x="256" y="122"/>
      <point x="225" y="140"/>
      <point x="225" y="268" type="curve" smooth="yes"/>
      <point x="225" y="376"/>
      <point x="259" y="413"/>
      <point x="303" y="413" type="curve" smooth="yes"/>
      <point x="333" y="413"/>
      <point x="350" y="396"/>
      <point x="374" y="368" type="curve"/>
      <point x="372" y="501" type="line"/>
      <point x="342" y="535"/>
      <point x="295" y="554"/>
      <point x="250" y="554" type="curve" smooth="yes"/>
    </contour>
    <contour>
      <point x="361" y="156" type="line"/>
      <point x="374" y="68" type="line"/>
      <point x="383" y="0" type="line"/>
      <point x="559" y="0" type="line"/>
      <point x="559" y="744" type="line"/>
      <point x="361" y="764" type="line"/>
    </contour>
    <contour>
      <point x="308" y="0" type="move" name="bottom"/>
    </contour>
    <contour>
      <point x="296" y="744" type="move" name="top"/>
    </contour>
    <contour>
      <point x="569" y="744" type="move" name="topright"/>
    </contour>
    <contour>
      <point x="301" y="267" type="move" name="center"/>
    </contour>
  </outline>
</glyph>
<glyph name="f" format="1">
  <advance width="369"/>
  <unicode hex="0066"/>
  <outline>
    <contour>
      <point x="143" y="764"/>
      <point x="70" y="675"/>
      <point x="70" y="565" type="curve" smooth="yes"/>
      <point x="70" y="0" type="line"/>
      <point x="268" y="0" type="line"/>
      <point x="268" y="555" type="line" smooth="yes"/>
      <point x="268" y="605"/>
      <point x="285" y="622"/>
      <point x="323" y="622" type="curve" smooth="yes"/>
      <point x="345" y="622"/>
      <point x="373" y="617"/>
      <point x="401" y="602" type="curve"/>
      <point x="453" y="727" type="line"/>
      <point x="416" y="747"/>
      <point x="354" y="764"/>
      <point x="296" y="764" type="curve" smooth="yes"/>
    </contour>
    <contour>
      <point x="-2" y="534" type="line"/>
      <point x="-2" y="400" type="line"/>
      <point x="370" y="400" type="line"/>
      <point x="392" y="534" type="line"/>
    </contour>
    <contour>
      <point x="270" y="744" type="move" name="top"/>
    </contour>
    <contour>
      <point x="169" y="0" type="move" name="bottom"/>
    </contour>
  </outline>
</glyph>
<glyph name="l" format="1">
  <advance width="300"/>
  <unicode hex="006C"/>
  <outline>
    <contour>
      <point x="250" y="-20"/>
      <point x="289" y="-12"/>
      <point x="315" y="-2" type="curve"/>
      <point x="280" y="139" type="line"/>
      <point x="275" y="137"/>
      <point x="268" y="135"/>
      <point x="259" y="135" type="curve" smooth="yes"/>
      <point x="243" y="135"/>
      <point x="235" y="144"/>
      <point x="235" y="162" type="curve" smooth="yes"/>
      <point x="235" y="764" type="line"/>
      <point x="37" y="744" type="line"/>
      <point x="37" y="154" type="line" smooth="yes"/>
      <point x="37" y="43"/>
      <point x="97" y="-20"/>
      <point x="205" y="-20" type="curve" smooth="yes"/>
    </contour>
    <contour>
      <point x="186" y="0" type="move" name="bottom"/>
    </contour>
    <contour>
      <point x="136" y="744" type="move" name="top"/>
    </contour>
    <contour>
      <point x="245" y="744" type="move" name="topright"/>
    </contour>
    <contour>
      <point x="389" y="373" type="move" name="center"/>
    </contour>
  </outline>
</glyph>
<glyph name="m" format="1">
  <advance width="837"/>
  <unicode hex="006D"/>
  <outline>
    <contour>
      <point x="314" y="554"/>
      <point x="263" y="527"/>
      <point x="216" y="464" type="curve"/>
      <point x="240" y="357" type="line"/>
      <point x="256" y="393"/>
      <point x="276" y="410"/>
      <point x="295" y="410" type="curve" smooth="yes"/>
      <point x="310" y="410"/>
      <point x="322" y="400"/>
      <point x="322" y="358" type="curve"/>
      <point x="322" y="0" type="line"/>
      <point x="520" y="0" type="line"/>
      <point x="520" y="394" type="line"/>
      <point x="514" y="447" type="line"/>
      <point x="498" y="516"/>
      <point x="449" y="554"/>
      <point x="384" y="554" type="curve" smooth="yes"/>
    </contour>
    <contour>
      <point x="42" y="534" type="line"/>
      <point x="42" y="0" type="line"/>
      <point x="240" y="0" type="line"/>
      <point x="240" y="435" type="line"/>
      <point x="215" y="534" type="line"/>
    </contour>
    <contour>
      <point x="594" y="554"/>
      <point x="543" y="528"/>
      <point x="496" y="466" type="curve"/>
      <point x="520" y="357" type="line"/>
      <point x="536" y="393"/>
      <point x="556" y="410"/>
      <point x="575" y="410" type="curve" smooth="yes"/>
      <point x="590" y="410"/>
      <point x="602" y="400"/>
      <point x="602" y="358" type="curve"/>
      <point x="602" y="0" type="line"/>
      <point x="800" y="0" type="line"/>
      <point x="800" y="394" type="line" smooth="yes"/>
      <point x="800" y="496"/>
      <point x="744" y="554"/>
      <point x="664" y="554" type="curve" smooth="yes"/>
    </contour>
    <contour>
      <point x="419" y="534" type="move" name="top"/>
    </contour>
    <contour>
      <point x="419" y="0" type="move" name="bottom"/>
    </contour>
  </outline>
</glyph>
<glyph name="n" format="1">
  <advance width="572"/>
  <unicode hex="006E"/>
  <outline>
    <contour>
      <point x="321" y="554"/>
      <point x="270" y="527"/>
      <point x="216" y="464" type="curve"/>
      <point x="240" y="357" type="line"/>
      <point x="263" y="393"/>
      <point x="286" y="410"/>
      <point x="307" y="410" type="curve" smooth="yes"/>
      <point x="325" y="410"/>
      <point x="337" y="400"/>
      <point x="337" y="358" type="curve"/>
      <point x="337" y="0" type="line"/>
      <point x="535" y="0" type="line"/>
      <point x="535" y="394" type="line" smooth="yes"/>
      <point x="535" y="496"/>
      <point x="480" y="554"/>
      <point x="391" y="554" type="curve" smooth="yes"/>
    </contour>
    <contour>
      <point x="42" y="534" type="line"/>
      <point x="42" y="0" type="line"/>
      <point x="240" y="0" type="line"/>
      <point x="240" y="435" type="line"/>
      <point x="215" y="534" type="line"/>
    </contour>
    <contour>
      <point x="291" y="534" type="move" name="top"/>
    </contour>
    <contour>
      <point x="286" y="0" type="move" name="bottom"/>
    </contour>
    <contour>
      <point x="33" y="534" type="move" name="topleft"/>
    </contour>
  </outline>
</glyph>
<glyph name="o" format="1">
  <advance width="584"/>
  <unicode hex="006F"/>
  <outline>
    <contour>
      <point x="122" y="554"/>
      <point x="17" y="442"/>
      <point x="17" y="268" type="curve" smooth="yes"/>
      <point x="17" y="82"/>
      <point x="124" y="-20"/>
      <point x="292" y="-20" type="curve"/>
      <point x="462" y="-20"/>
      <point x="567" y="92"/>
      <point x="567" y="266" type="curve" smooth="yes"/>
      <point x="567" y="452"/>
      <point x="460" y="554"/>
      <point x="292" y="554" type="curve"/>
    </contour>
    <contour>
      <point x="342" y="412"/>
      <point x="364" y="372"/>
      <point x="364" y="266" type="curve" smooth="yes"/>
      <point x="364" y="165"/>
      <point x="342" y="122"/>
      <point x="292" y="122" type="curve"/>
      <point x="242" y="122"/>
      <point x="220" y="162"/>
      <point x="220" y="268" type="curve" smooth="yes"/>
      <point x="220" y="369"/>
      <point x="242" y="412"/>
      <point x="292" y="412" type="curve"/>
    </contour>
    <contour>
      <point x="415" y="0" type="move" name="ogonek"/>
    </contour>
    <contour>
      <point x="292" y="534" type="move" name="top"/>
    </contour>
    <contour>
      <point x="509" y="534" type="move" name="topright"/>
    </contour>
    <contour>
      <point x="292" y="0" type="move" name="bottom"/>
    </contour>
  </outline>
</glyph>
<glyph name="q" format="1">
  <advance width="596"/>
  <unicode hex="0071"/>
  <outline>
    <contour>
      <point x="356" y="-207" type="line"/>
      <point x="554" y="-227" type="line"/>
      <point x="554" y="534" type="line"/>
      <point x="381" y="534" type="line"/>
      <point x="372" y="496" type="line"/>
      <point x="356" y="458" type="line"/>
    </contour>
    <contour>
      <point x="103" y="554"/>
      <point x="17" y="436"/>
      <point x="17" y="270" type="curve" smooth="yes"/>
      <point x="17" y="94"/>
      <point x="81" y="-20"/>
      <point x="220" y="-20" type="curve" smooth="yes"/>
      <point x="304" y="-20"/>
      <point x="351" y="25"/>
      <point x="378" y="72" type="curve"/>
      <point x="366" y="188" type="line"/>
      <point x="345" y="142"/>
      <point x="318" y="122"/>
      <point x="289" y="122" type="curve" smooth="yes"/>
      <point x="251" y="122"/>
      <point x="220" y="140"/>
      <point x="220" y="268" type="curve" smooth="yes"/>
      <point x="220" y="376"/>
      <point x="254" y="413"/>
      <point x="298" y="413" type="curve" smooth="yes"/>
      <point x="328" y="413"/>
      <point x="345" y="396"/>
      <point x="369" y="368" type="curve"/>
      <point x="381" y="487" type="line"/>
      <point x="340" y="536"/>
      <point x="290" y="554"/>
      <point x="245" y="554" type="curve" smooth="yes"/>
    </contour>
    <contour>
      <point x="298" y="534" type="move" name="top"/>
    </contour>
    <contour>
      <point x="298" y="-215" type="move" name="bottom"/>
    </contour>
  </outline>
</glyph>
<glyph name="r" format="1">
  <advance width="410"/>
  <unicode hex="0072"/>
  <outline>
    <contour>
      <point x="302" y="551"/>
      <point x="244" y="496"/>
      <point x="227" y="417" type="curve"/>
      <point x="236" y="223" type="line"/>
      <point x="251" y="301"/>
      <point x="270" y="359"/>
      <point x="340" y="359" type="curve" smooth="yes"/>
      <point x="357" y="359"/>
      <point x="372" y="356"/>
      <point x="389" y="351" type="curve"/>
      <point x="420" y="542" type="line"/>
      <point x="401" y="548"/>
      <point x="387" y="551"/>
      <point x="366" y="551" type="curve" smooth="yes"/>
    </contour>
    <contour>
      <point x="42" y="534" type="line"/>
      <point x="42" y="0" type="line"/>
      <point x="240" y="0" type="line"/>
      <point x="240" y="259" type="line"/>
      <point x="234" y="419" type="line"/>
      <point x="215" y="534" type="line"/>
    </contour>
    <contour>
      <point x="231" y="534" type="move" name="top"/>
    </contour>
    <contour>
      <point x="141" y="0" type="move" name="bottom"/>
    </contour>
  </outline>
</glyph>
<glyph name="s" format="1">
  <advance width="493"/>
  <unicode hex="0073"/>
  <outline>
    <contour>
      <point x="106" y="554"/>
      <point x="23" y="477"/>
      <point x="23" y="381" type="curve" smooth="yes"/>
      <point x="23" y="295"/>
      <point x="78" y="238"/>
      <point x="178" y="208" type="curve" smooth="yes"/>
      <point x="270" y="180"/>
      <point x="281" y="175"/>
      <point x="281" y="149" type="curve" smooth="yes"/>
      <point x="281" y="127"/>
      <point x="260" y="116"/>
      <point x="225" y="116" type="curve" smooth="yes"/>
      <point x="176" y="116"/>
      <point x="127" y="139"/>
      <point x="89" y="169" type="curve"/>
      <point x="-5" y="65" type="line"/>
      <point x="50" y="13"/>
      <point x="136" y="-20"/>
      <point x="230" y="-20" type="curve" smooth="yes"/>
      <point x="378" y="-20"/>
      <point x="483" y="54"/>
      <point x="483" y="164" type="curve" smooth="yes"/>
      <point x="483" y="261"/>
      <point x="427" y="305"/>
      <point x="326" y="336" type="curve" smooth="yes"/>
      <point x="225" y="367"/>
      <point x="219" y="375"/>
      <point x="219" y="393" type="curve" smooth="yes"/>
      <point x="219" y="407"/>
      <point x="231" y="417"/>
      <point x="264" y="417" type="curve" smooth="yes"/>
      <point x="307" y="417"/>
      <point x="353" y="402"/>
      <point x="391" y="378" type="curve"/>
      <point x="461" y="485" type="line"/>
      <point x="412" y="527"/>
      <point x="335" y="554"/>
      <point x="256" y="554" type="curve" smooth="yes"/>
    </contour>
    <contour>
      <point x="251" y="534" type="move" name="top"/>
    </contour>
    <contour>
      <point x="246" y="0" type="move" name="bottom"/>
    </contour>
  </outline>
</glyph>
<glyph name="t" format="1">
  <advance width="401"/>
  <unicode hex="0074"/>
  <outline>
    <contour>
      <point x="62" y="646" type="line"/>
      <point x="62" y="197" type="line" smooth="yes"/>
      <point x="62" y="56"/>
      <point x="122" y="-19"/>
      <point x="256" y="-20" type="curve" smooth="yes"/>
      <point x="306" y="-20"/>
      <point x="372" y="-5"/>
      <point x="416" y="26" type="curve"/>
      <point x="352" y="149" type="line"/>
      <point x="334" y="139"/>
      <point x="317" y="135"/>
      <point x="302" y="135" type="curve" smooth="yes"/>
      <point x="277" y="135"/>
      <point x="260" y="149"/>
      <point x="260" y="199" type="curve" smooth="yes"/>
      <point x="260" y="669" type="line"/>
    </contour>
    <contour>
      <point x="-2" y="534" type="line"/>
      <point x="-2" y="400" type="line"/>
      <point x="360" y="400" type="line"/>
      <point x="380" y="534" type="line"/>
    </contour>
    <contour>
      <point x="234" y="0" type="move" name="bottom"/>
    </contour>
    <contour>
      <point x="161" y="646" type="move" name="top"/>
    </contour>
    <contour>
      <point x="253" y="799" type="move" name="topright"/>
    </contour>
    <contour>
      <point x="198" y="267" type="move" name="center"/>
    </contour>
  </outline>
</glyph>
<glyph name="v" format="1">
  <advance width="526"/>
  <unicode hex="0076"/>
  <outline>
    <contour>
      <point x="341" y="534" type="line"/>
      <point x="267" y="143" type="line"/>
      <point x="200" y="534" type="line"/>
      <point x="-15" y="534" type="line"/>
      <point x="148" y="0" type="line"/>
      <point x="382" y="0" type="line"/>
      <point x="541" y="534" type="line"/>
    </contour>
    <contour>
      <point x="271" y="534" type="move" name="top"/>
    </contour>
    <contour>
      <point x="265" y="0" type="move" name="bottom"/>
    </contour>
  </outline>
</glyph>
<glyph name="w" format="1">
  <advance width="768"/>
  <unicode hex="0077"/>
  <outline>
    <contour>
      <point x="583" y="534" type="line"/>
      <point x="538" y="151" type="line"/>
      <point x="482" y="534" type="line"/>
      <point x="297" y="534" type="line"/>
      <point x="227" y="151" type="line"/>
      <point x="195" y="534" type="line"/>
      <point x="-5" y="534" type="line"/>
      <point x="102" y="0" type="line"/>
      <point x="328" y="0" type="line"/>
      <point x="383" y="358" type="line"/>
      <point x="441" y="0" type="line"/>
      <point x="668" y="0" type="line"/>
      <point x="773" y="534" type="line"/>
    </contour>
    <contour>
      <point x="384" y="534" type="move" name="top"/>
    </contour>
  </outline>
</glyph>
<glyph name="x" format="1">
  <advance width="528"/>
  <unicode hex="0078"/>
  <outline>
    <contour>
      <point x="-6" y="534" type="line"/>
      <point x="143" y="280" type="line"/>
      <point x="257" y="184" type="line"/>
      <point x="327" y="0" type="line"/>
      <point x="548" y="0" type="line"/>
      <point x="383" y="286" type="line"/>
      <point x="265" y="377" type="line"/>
      <point x="213" y="534" type="line"/>
    </contour>
    <contour>
      <point x="312" y="534" type="line"/>
      <point x="265" y="377" type="line"/>
      <point x="143" y="280" type="line"/>
      <point x="-20" y="0" type="line"/>
      <point x="193" y="0" type="line"/>
      <point x="257" y="184" type="line"/>
      <point x="383" y="286" type="line"/>
      <point x="519" y="534" type="line"/>
    </contour>
    <contour>
      <point x="263" y="534" type="move" name="top"/>
    </contour>
    <contour>
      <point x="260" y="0" type="move" name="bottom"/>
    </contour>
    <contour>
      <point x="478" y="0" type="move" name="bottomright"/>
    </contour>
  </outline>
</glyph>
<glyph name="y" format="1">
  <advance width="534"/>
  <unicode hex="0079"/>
  <outline>
    <contour>
      <point x="345" y="534" type="line"/>
      <point x="262" y="121" type="line"/>
      <point x="195" y="534" type="line"/>
      <point x="-15" y="534" type="line"/>
      <point x="137" y="0" type="line"/>
      <point x="205" y="0" type="line"/>
      <point x="177" y="-60"/>
      <point x="134" y="-83"/>
      <point x="32" y="-93" type="curve"/>
      <point x="53" y="-228" type="line"/>
      <point x="232" y="-223"/>
      <point x="340" y="-147"/>
      <point x="385" y="1" type="curve" smooth="yes"/>
      <point x="549" y="534" type="line"/>
    </contour>
    <contour>
      <point x="267" y="534" type="move" name="top"/>
    </contour>
    <contour>
      <point x="262" y="-215" type="move" name="bottom"/>
    </contour>
  </outline>
</glyph>
<glyph name="z" format="1">
  <advance width="472"/>
  <unicode hex="007A"/>
  <outline>
    <contour>
      <point x="25" y="534" type="line"/>
      <point x="25" y="390" type="line"/>
      <point x="227" y="390" type="line"/>
      <point x="5" y="138" type="line"/>
      <point x="5" y="0" type="line"/>
      <point x="445" y="0" type="line"/>
      <point x="462" y="146" type="line"/>
      <point x="236" y="146" type="line"/>
      <point x="455" y="397" type="line"/>
      <point x="455" y="534" type="line"/>
    </contour>
    <contour>
      <point x="241" y="534" type="move" name="top"/>
    </contour>
    <contour>
      <point x="227" y="0" type="move" name="bottom"/>
    </contour>
  </outline>
</glyph>
<glyph name="braceleft" format="1">
  <advance width="325"/>
  <unicode hex="007B"/>
  <outline>
    <contour>
      <point x="103" y="842"/>
      <point x="62" y="779"/>
      <point x="62" y="668" type="curve" smooth="yes"/>
      <point x="62" y="515" type="line" smooth="yes"/>
      <point x="62" y="455"/>
      <point x="51" y="431"/>
      <point x="0" y="431" type="curve"/>
      <point x="0" y="269" type="line"/>
      <point x="51" y="269"/>
      <point x="62" y="245"/>
      <point x="62" y="185" type="curve" smooth="yes"/>
      <point x="62" y="32" type="line" smooth="yes"/>
      <point x="62" y="-78"/>
      <point x="103" y="-142"/>
      <point x="310" y="-142" type="curve"/>
      <point x="310" y="-8" type="line"/>
      <point x="256" y="-8"/>
      <point x="247" y="7"/>
      <point x="247" y="46" type="curve" smooth="yes"/>
      <point x="247" y="200" type="line" smooth="yes"/>
      <point x="247" y="297"/>
      <point x="200" y="336"/>
      <point x="125" y="349" type="curve"/>
      <point x="202" y="366"/>
      <point x="246" y="401"/>
      <point x="246" y="500" type="curve" smooth="yes"/>
      <point x="246" y="654" type="line" smooth="yes"/>
      <point x="246" y="693"/>
      <point x="255" y="708"/>
      <point x="310" y="708" type="curve"/>
      <point x="310" y="842" type="line"/>
    </contour>
  </outline>
</glyph>
<glyph name="bar" format="1">
  <advance width="360"/>
  <unicode hex="007C"/>
  <outline>
    <contour>
      <point x="87" y="812" type="line"/>
      <point x="87" y="-107" type="line"/>
      <point x="273" y="-107" type="line"/>
      <point x="273" y="812" type="line"/>
    </contour>
  </outline>
</glyph>
<glyph name="braceright" format="1">
  <advance width="325"/>
  <unicode hex="007D"/>
  <outline>
    <contour>
      <point x="15" y="708" type="line"/>
      <point x="70" y="708"/>
      <point x="79" y="693"/>
      <point x="79" y="654" type="curve" smooth="yes"/>
      <point x="79" y="500" type="line" smooth="yes"/>
      <point x="79" y="401"/>
      <point x="123" y="366"/>
      <point x="200" y="349" type="curve"/>
      <point x="125" y="336"/>
      <point x="78" y="297"/>
      <point x="78" y="200" type="curve" smooth="yes"/>
      <point x="78" y="46" type="line" smooth="yes"/>
      <point x="78" y="7"/>
      <point x="69" y="-8"/>
      <point x="15" y="-8" type="curve"/>
      <point x="15" y="-142" type="line"/>
      <point x="222" y="-142"/>
      <point x="263" y="-78"/>
      <point x="263" y="32" type="curve" smooth="yes"/>
      <point x="263" y="185" type="line" smooth="yes"/>
      <point x="263" y="245"/>
      <point x="274" y="269"/>
      <point x="325" y="269" type="curve"/>
      <point x="325" y="431" type="line"/>
      <point x="274" y="431"/>
      <point x="263" y="455"/>
      <point x="263" y="515" type="curve" smooth="yes"/>
      <point x="263" y="668" type="line" smooth="yes"/>
      <point x="263" y="779"/>
      <point x="222" y="842"/>
      <point x="15" y="842" type="curve"/>
    </contour>
  </outline>
</glyph>
<glyph name="exclamdown" format="1">
  <advance width="240"/>
  <unicode hex="00A1"/>
  <outline>
    <contour>
      <point x="42" y="228" type="line"/>
      <point x="16" y="-207" type="line"/>
      <point x="224" y="-207" type="line"/>
      <point x="198" y="228" type="line"/>
    </contour>
    <contour>
      <point x="63" y="518"/>
      <point x="17" y="471"/>
      <point x="17" y="415" type="curve" smooth="yes"/>
      <point x="17" y="359"/>
      <point x="63" y="312"/>
      <point x="120" y="312" type="curve" smooth="yes"/>
      <point x="177" y="312"/>
      <point x="223" y="359"/>
      <point x="223" y="415" type="curve" smooth="yes"/>
      <point x="223" y="471"/>
      <point x="177" y="518"/>
      <point x="120" y="518" type="curve" smooth="yes"/>
    </contour>
  </outline>
</glyph>
<glyph name="cent" format="1">
  <advance width="479"/>
  <unicode hex="00A2"/>
  <outline>
    <contour>
      <point x="222" y="696" type="line"/>
      <point x="222" y="535" type="line"/>
      <point x="356" y="538" type="line"/>
      <point x="356" y="696" type="line"/>
    </contour>
    <contour>
      <point x="221" y="-165" type="line"/>
      <point x="356" y="-165" type="line"/>
      <point x="356" y="-5" type="line"/>
      <point x="221" y="-1" type="line"/>
    </contour>
    <component base="c"/>
  </outline>
</glyph>
<glyph name="sterling" format="1">
  <advance width="566"/>
  <unicode hex="00A3"/>
  <outline>
    <contour>
      <point x="179" y="696"/>
      <point x="104" y="602"/>
      <point x="104" y="475" type="curve" smooth="yes"/>
      <point x="104" y="250" type="line" smooth="yes"/>
      <point x="104" y="197"/>
      <point x="102" y="160"/>
      <point x="20" y="139" type="curve"/>
      <point x="20" y="0" type="line"/>
      <point x="509" y="0" type="line"/>
      <point x="531" y="146" type="line"/>
      <point x="232" y="146" type="line"/>
      <point x="287" y="176"/>
      <point x="298" y="213"/>
      <point x="298" y="263" type="curve" smooth="yes"/>
      <point x="298" y="473" type="line" smooth="yes"/>
      <point x="298" y="521"/>
      <point x="312" y="552"/>
      <point x="355" y="552" type="curve" smooth="yes"/>
      <point x="384" y="552"/>
      <point x="408" y="540"/>
      <point x="432" y="501" type="curve"/>
      <point x="551" y="587" type="line"/>
      <point x="501" y="659"/>
      <point x="434" y="696"/>
      <point x="332" y="696" type="curve" smooth="yes"/>
    </contour>
    <contour>
      <point x="35" y="399" type="line"/>
      <point x="35" y="304" type="line"/>
      <point x="469" y="304" type="line"/>
      <point x="469" y="399" type="line"/>
    </contour>
  </outline>
</glyph>
<glyph name="currency" format="1">
  <advance width="560"/>
  <unicode hex="00A4"/>
  <outline>
    <contour>
      <point x="151" y="564"/>
      <point x="55" y="467"/>
      <point x="55" y="342" type="curve" smooth="yes"/>
      <point x="55" y="216"/>
      <point x="151" y="120"/>
      <point x="281" y="120" type="curve" smooth="yes"/>
      <point x="411" y="120"/>
      <point x="507" y="216"/>
      <point x="507" y="342" type="curve" smooth="yes"/>
      <point x="507" y="467"/>
      <point x="411" y="564"/>
      <point x="281" y="564" type="curve" smooth="yes"/>
    </contour>
    <contour>
      <point x="10" y="151" type="line"/>
      <point x="89" y="72" type="line"/>
      <point x="177" y="156" type="line"/>
      <point x="97" y="237" type="line"/>
    </contour>
    <contour>
      <point x="386" y="156" type="line"/>
      <point x="472" y="72" type="line"/>
      <point x="551" y="151" type="line"/>
      <point x="465" y="236" type="line"/>
    </contour>
    <contour>
      <point x="10" y="534" type="line"/>
      <point x="95" y="447" type="line"/>
      <point x="177" y="526" type="line"/>
      <point x="89" y="613" type="line"/>
    </contour>
    <contour>
      <point x="386" y="526" type="line"/>
      <point x="466" y="448" type="line"/>
      <point x="551" y="534" type="line"/>
      <point x="472" y="613" type="line"/>
    </contour>
    <contour>
      <point x="335" y="435"/>
      <point x="362" y="401"/>
      <point x="362" y="342" type="curve" smooth="yes"/>
      <point x="362" y="282"/>
      <point x="335" y="247"/>
      <point x="281" y="247" type="curve" smooth="yes"/>
      <point x="226" y="247"/>
      <point x="198" y="282"/>
      <point x="198" y="342" type="curve" smooth="yes"/>
      <point x="198" y="401"/>
      <point x="226" y="435"/>
      <point x="281" y="435" type="curve" smooth="yes"/>
    </contour>
  </outline>
</glyph>
<glyph name="yen" format="1">
  <advance width="588"/>
  <unicode hex="00A5"/>
  <outline>
    <contour>
      <point x="400" y="680" type="line"/>
      <point x="298" y="407" type="line"/>
      <point x="193" y="680" type="line"/>
      <point x="-15" y="680" type="line"/>
      <point x="197" y="277" type="line"/>
      <point x="197" y="0" type="line"/>
      <point x="393" y="0" type="line"/>
      <point x="393" y="277" type="line"/>
      <point x="603" y="680" type="line"/>
    </contour>
    <contour>
      <point x="69" y="201" type="line"/>
      <point x="69" y="106" type="line"/>
      <point x="523" y="106" type="line"/>
      <point x="523" y="201" type="line"/>
    </contour>
    <contour>
      <point x="69" y="356" type="line"/>
      <point x="69" y="261" type="line"/>
      <point x="523" y="261" type="line"/>
      <point x="523" y="356" type="line"/>
    </contour>
  </outline>
</glyph>
<glyph name="brokenbar" format="1">
  <advance width="360"/>
  <unicode hex="00A6"/>
  <outline>
    <contour>
      <point x="87" y="812" type="line"/>
      <point x="87" y="443" type="line"/>
      <point x="273" y="443" type="line"/>
      <point x="273" y="812" type="line"/>
    </contour>
    <contour>
      <point x="87" y="262" type="line"/>
      <point x="87" y="-107" type="line"/>
      <point x="273" y="-107" type="line"/>
      <point x="273" y="262" type="line"/>
    </contour>
  </outline>
</glyph>
<glyph name="section" format="1">
  <advance width="560"/>
  <unicode hex="00A7"/>
  <outline>
    <contour>
      <point x="153" y="696"/>
      <point x="68" y="621"/>
      <point x="68" y="527" type="curve" smooth="yes"/>
      <point x="68" y="447"/>
      <point x="110" y="400"/>
      <point x="258" y="354" type="curve" smooth="yes"/>
      <point x="332" y="331"/>
      <point x="350" y="314"/>
      <point x="350" y="288" type="curve" smooth="yes"/>
      <point x="350" y="270"/>
      <point x="341" y="244"/>
      <point x="324" y="224" type="curve"/>
      <point x="428" y="181" type="line"/>
      <point x="478" y="208"/>
      <point x="518" y="251"/>
      <point x="518" y="315" type="curve" smooth="yes"/>
      <point x="518" y="405"/>
      <point x="455" y="443"/>
      <point x="367" y="469" type="curve" smooth="yes"/>
      <point x="265" y="499"/>
      <point x="254" y="507"/>
      <point x="254" y="532" type="curve" smooth="yes"/>
      <point x="254" y="552"/>
      <point x="271" y="564"/>
      <point x="314" y="564" type="curve" smooth="yes"/>
      <point x="353" y="564"/>
      <point x="399" y="554"/>
      <point x="442" y="528" type="curve"/>
      <point x="506" y="639" type="line"/>
      <point x="450" y="675"/>
      <point x="373" y="696"/>
      <point x="300" y="696" type="curve" smooth="yes"/>
    </contour>
    <contour>
      <point x="87" y="395"/>
      <point x="42" y="353"/>
      <point x="42" y="290" type="curve" smooth="yes"/>
      <point x="42" y="203"/>
      <point x="104" y="165"/>
      <point x="192" y="139" type="curve" smooth="yes"/>
      <point x="300" y="107"/>
      <point x="308" y="95"/>
      <point x="308" y="72" type="curve" smooth="yes"/>
      <point x="308" y="53"/>
      <point x="288" y="41"/>
      <point x="241" y="41" type="curve" smooth="yes"/>
      <point x="199" y="41"/>
      <point x="156" y="57"/>
      <point x="111" y="84" type="curve"/>
      <point x="50" y="-34" type="line"/>
      <point x="103" y="-69"/>
      <point x="173" y="-91"/>
      <point x="256" y="-91" type="curve" smooth="yes"/>
      <point x="403" y="-91"/>
      <point x="494" y="-21"/>
      <point x="494" y="76" type="curve" smooth="yes"/>
      <point x="494" y="173"/>
      <point x="441" y="196"/>
      <point x="277" y="259" type="curve" smooth="yes"/>
      <point x="223" y="279"/>
      <point x="210" y="294"/>
      <point x="210" y="319" type="curve" smooth="yes"/>
      <point x="210" y="336"/>
      <point x="215" y="361"/>
      <point x="233" y="383" type="curve"/>
      <point x="137" y="422" type="line"/>
    </contour>
  </outline>
</glyph>
<glyph name="dieresis" format="1">
  <advance width="495"/>
  <unicode hex="00A8"/>
  <outline>
    <contour>
      <point x="318" y="818"/>
      <point x="275" y="777"/>
      <point x="275" y="726" type="curve" smooth="yes"/>
      <point x="275" y="674"/>
      <point x="318" y="633"/>
      <point x="370" y="633" type="curve" smooth="yes"/>
      <point x="424" y="633"/>
      <point x="465" y="674"/>
      <point x="465" y="726" type="curve" smooth="yes"/>
      <point x="465" y="777"/>
      <point x="424" y="818"/>
      <point x="370" y="818" type="curve" smooth="yes"/>
    </contour>
    <contour>
      <point x="73" y="818"/>
      <point x="30" y="777"/>
      <point x="30" y="726" type="curve" smooth="yes"/>
      <point x="30" y="674"/>
      <point x="73" y="633"/>
      <point x="125" y="633" type="curve" smooth="yes"/>
      <point x="179" y="633"/>
      <point x="220" y="674"/>
      <point x="220" y="726" type="curve" smooth="yes"/>
      <point x="220" y="777"/>
      <point x="179" y="818"/>
      <point x="125" y="818" type="curve" smooth="yes"/>
    </contour>
  </outline>
</glyph>
<glyph name="copyright" format="1">
  <advance width="810"/>
  <unicode hex="00A9"/>
  <outline>
    <contour>
      <point x="210" y="777"/>
      <point x="52" y="625"/>
      <point x="52" y="431" type="curve" smooth="yes"/>
      <point x="52" y="237"/>
      <point x="210" y="86"/>
      <point x="406" y="86" type="curve" smooth="yes"/>
      <point x="603" y="86"/>
      <point x="758" y="237"/>
      <point x="758" y="431" type="curve" smooth="yes"/>
      <point x="758" y="625"/>
      <point x="603" y="777"/>
      <point x="406" y="777" type="curve" smooth="yes"/>
    </contour>
    <contour>
      <point x="298" y="633"/>
      <point x="223" y="554"/>
      <point x="223" y="432" type="curve" smooth="yes"/>
      <point x="223" y="302"/>
      <point x="294" y="230"/>
      <point x="409" y="230" type="curve" smooth="yes"/>
      <point x="462" y="230"/>
      <point x="513" y="251"/>
      <point x="551" y="287" type="curve"/>
      <point x="500" y="362" type="line"/>
      <point x="475" y="342"/>
      <point x="451" y="333"/>
      <point x="421" y="333" type="curve" smooth="yes"/>
      <point x="384" y="333"/>
      <point x="359" y="358"/>
      <point x="359" y="432" type="curve" smooth="yes"/>
      <point x="359" y="505"/>
      <point x="388" y="530"/>
      <point x="424" y="530" type="curve" smooth="yes"/>
      <point x="448" y="530"/>
      <point x="465" y="527"/>
      <point x="491" y="507" type="curve"/>
      <point x="547" y="576" type="line"/>
      <point x="511" y="612"/>
      <point x="458" y="633"/>
      <point x="408" y="633" type="curve" smooth="yes"/>
    </contour>
    <contour>
      <point x="545" y="681"/>
      <point x="648" y="571"/>
      <point x="648" y="431" type="curve" smooth="yes"/>
      <point x="648" y="291"/>
      <point x="545" y="182"/>
      <point x="406" y="182" type="curve" smooth="yes"/>
      <point x="266" y="182"/>
      <point x="163" y="291"/>
      <point x="163" y="431" type="curve" smooth="yes"/>
      <point x="163" y="571"/>
      <point x="266" y="681"/>
      <point x="406" y="681" type="curve" smooth="yes"/>
    </contour>
  </outline>
</glyph>
<glyph name="ordfeminine" format="1">
  <advance width="500"/>
  <unicode hex="00AA"/>
  <outline>
    <contour>
      <point x="190" y="696"/>
      <point x="120" y="684"/>
      <point x="66" y="663" type="curve"/>
      <point x="104" y="555" type="line"/>
      <point x="146" y="568"/>
      <point x="190" y="576"/>
      <point x="213" y="576" type="curve" smooth="yes"/>
      <point x="259" y="576"/>
      <point x="270" y="569"/>
      <point x="270" y="533" type="curve"/>
      <point x="270" y="384" type="line"/>
      <point x="295" y="334" type="line"/>
      <point x="326" y="286"/>
      <point x="367" y="267"/>
      <point x="428" y="264" type="curve"/>
      <point x="463" y="374" type="line"/>
      <point x="444" y="380"/>
      <point x="439" y="392"/>
      <point x="439" y="418" type="curve" smooth="yes"/>
      <point x="439" y="543" type="line" smooth="yes"/>
      <point x="439" y="647"/>
      <point x="381" y="696"/>
      <point x="239" y="696" type="curve" smooth="yes"/>
    </contour>
    <contour>
      <point x="246" y="530" type="line" smooth="yes"/>
      <point x="109" y="530"/>
      <point x="36" y="480"/>
      <point x="36" y="390" type="curve" smooth="yes"/>
      <point x="36" y="315"/>
      <point x="92" y="260"/>
      <point x="178" y="260" type="curve" smooth="yes"/>
      <point x="231" y="260"/>
      <point x="285" y="278"/>
      <point x="315" y="328" type="curve"/>
      <point x="280" y="403" type="line"/>
      <point x="274" y="394"/>
      <point x="257" y="381"/>
      <point x="237" y="381" type="curve" smooth="yes"/>
      <point x="218" y="381"/>
      <point x="210" y="391"/>
      <point x="210" y="405" type="curve" smooth="yes"/>
      <point x="210" y="430"/>
      <point x="226" y="442"/>
      <point x="262" y="442" type="curve" smooth="yes"/>
      <point x="293" y="442" type="line"/>
      <point x="293" y="530" type="line"/>
    </contour>
    <component base="minus" xOffset="2" yOffset="-257" xScale="0.95"/>
  </outline>
</glyph>
<glyph name="logicalnot" format="1">
  <advance width="550"/>
  <unicode hex="00AC"/>
  <outline>
    <contour>
      <point x="40" y="407" type="line"/>
      <point x="40" y="257" type="line"/>
      <point x="350" y="257" type="line"/>
      <point x="350" y="97" type="line"/>
      <point x="510" y="97" type="line"/>
      <point x="510" y="407" type="line"/>
    </contour>
  </outline>
</glyph>
<glyph name="macron" format="1">
  <advance width="385"/>
  <unicode hex="00AF"/>
  <outline>
    <contour>
      <point x="355" y="782" type="line"/>
      <point x="30" y="782" type="line"/>
      <point x="30" y="648" type="line"/>
      <point x="355" y="648" type="line"/>
    </contour>
  </outline>
</glyph>
<glyph name="degree" format="1">
  <advance width="519"/>
  <unicode hex="00B0"/>
  <outline>
    <contour>
      <point x="177" y="473"/>
      <point x="158" y="504"/>
      <point x="158" y="541" type="curve" smooth="yes"/>
      <point x="158" y="578"/>
      <point x="177" y="608"/>
      <point x="217" y="608" type="curve" smooth="yes"/>
      <point x="257" y="608"/>
      <point x="276" y="578"/>
      <point x="276" y="541" type="curve" smooth="yes"/>
      <point x="276" y="504"/>
      <point x="257" y="473"/>
      <point x="217" y="473" type="curve" smooth="yes"/>
    </contour>
    <contour>
      <point x="308" y="362"/>
      <point x="404" y="431"/>
      <point x="404" y="541" type="curve" smooth="yes"/>
      <point x="404" y="651"/>
      <point x="308" y="716"/>
      <point x="217" y="716" type="curve" smooth="yes"/>
      <point x="126" y="716"/>
      <point x="30" y="651"/>
      <point x="30" y="541" type="curve" smooth="yes"/>
      <point x="30" y="431"/>
      <point x="126" y="362"/>
      <point x="217" y="362" type="curve" smooth="yes"/>
    </contour>
  </outline>
</glyph>
<glyph name="acute" format="1">
  <advance width="364"/>
  <unicode hex="00B4"/>
  <outline>
    <contour>
      <point x="30" y="712" type="line"/>
      <point x="83" y="613" type="line"/>
      <point x="334" y="712" type="line"/>
      <point x="260" y="856" type="line"/>
    </contour>
  </outline>
</glyph>
<glyph name="paragraph" format="1">
  <advance width="820"/>
  <unicode hex="00B6"/>
  <outline>
    <contour>
      <point x="333" y="696" type="line"/>
      <point x="298" y="662" type="line"/>
      <point x="298" y="-228" type="line"/>
      <point x="470" y="-207" type="line"/>
      <point x="470" y="563" type="line"/>
      <point x="548" y="563" type="line"/>
      <point x="548" y="-228" type="line"/>
      <point x="720" y="-207" type="line"/>
      <point x="720" y="696" type="line"/>
    </contour>
    <contour>
      <point x="148" y="703"/>
      <point x="50" y="610"/>
      <point x="50" y="473" type="curve" smooth="yes"/>
      <point x="50" y="338"/>
      <point x="144" y="246"/>
      <point x="319" y="252" type="curve"/>
      <point x="333" y="696" type="line"/>
    </contour>
  </outline>
</glyph>
<glyph name="questiondown" format="1">
  <advance width="495"/>
  <unicode hex="00BF"/>
  <outline>
    <contour>
      <point x="356" y="-227"/>
      <point x="434" y="-181"/>
      <point x="490" y="-115" type="curve"/>
      <point x="367" y="-19" type="line"/>
      <point x="334" y="-54"/>
      <point x="298" y="-73"/>
      <point x="263" y="-73" type="curve" smooth="yes"/>
      <point x="230" y="-73"/>
      <point x="212" y="-59"/>
      <point x="212" y="-34" type="curve" smooth="yes"/>
      <point x="212" y="32"/>
      <point x="360" y="24"/>
      <point x="360" y="200" type="curve" smooth="yes"/>
      <point x="360" y="229" type="line"/>
      <point x="184" y="229" type="line"/>
      <point x="184" y="206" type="line" smooth="yes"/>
      <point x="184" y="105"/>
      <point x="5" y="111"/>
      <point x="5" y="-53" type="curve" smooth="yes"/>
      <point x="5" y="-147"/>
      <point x="83" y="-227"/>
      <point x="241" y="-227" type="curve" smooth="yes"/>
    </contour>
    <contour>
      <point x="328" y="312"/>
      <point x="374" y="359"/>
      <point x="374" y="415" type="curve" smooth="yes"/>
      <point x="374" y="471"/>
      <point x="328" y="518"/>
      <point x="271" y="518" type="curve" smooth="yes"/>
      <point x="214" y="518"/>
      <point x="168" y="471"/>
      <point x="168" y="415" type="curve" smooth="yes"/>
      <point x="168" y="359"/>
      <point x="214" y="312"/>
      <point x="271" y="312" type="curve" smooth="yes"/>
    </contour>
  </outline>
</glyph>
<glyph name="AE" format="1">
  <advance width="863"/>
  <unicode hex="00C6"/>
  <outline>
    <contour>
      <point x="241" y="696" type="line"/>
      <point x="-30" y="0" type="line"/>
      <point x="194" y="0" type="line"/>
      <point x="362" y="549" type="line"/>
      <point x="436" y="0" type="line"/>
      <point x="843" y="0" type="line"/>
      <point x="843" y="144" type="line"/>
      <point x="610" y="144" type="line"/>
      <point x="540" y="553" type="line"/>
      <point x="787" y="553" type="line"/>
      <point x="808" y="696" type="line"/>
    </contour>
    <contour>
      <point x="263" y="279" type="line"/>
      <point x="219" y="135" type="line"/>
      <point x="434" y="135" type="line"/>
      <point x="414" y="279" type="line"/>
    </contour>
    <contour>
      <point x="546" y="421" type="line"/>
      <point x="571" y="282" type="line"/>
      <point x="799" y="282" type="line"/>
      <point x="799" y="421" type="line"/>
    </contour>
    <contour>
      <point x="489" y="696" type="move" name="top"/>
    </contour>
    <contour>
      <point x="432" y="0" type="move" name="bottom"/>
    </contour>
  </outline>
</glyph>
<glyph name="Eth" format="1">
  <advance width="671"/>
  <unicode hex="00D0"/>
  <outline>
    <contour>
      <point x="59" y="411" type="line"/>
      <point x="10" y="411" type="line"/>
      <point x="10" y="295" type="line"/>
      <point x="385" y="295" type="line"/>
      <point x="385" y="411" type="line"/>
    </contour>
    <component base="D" xOffset="15"/>
  </outline>
</glyph>
<glyph name="multiply" format="1">
  <advance width="530"/>
  <unicode hex="00D7"/>
  <outline>
    <contour>
      <point x="265" y="409" type="line"/>
      <point x="152" y="525" type="line"/>
      <point x="46" y="419" type="line"/>
      <point x="162" y="306" type="line"/>
      <point x="46" y="193" type="line"/>
      <point x="152" y="87" type="line"/>
      <point x="265" y="203" type="line"/>
      <point x="378" y="87" type="line"/>
      <point x="484" y="193" type="line"/>
      <point x="368" y="306" type="line"/>
      <point x="484" y="419" type="line"/>
      <point x="378" y="525" type="line"/>
    </contour>
  </outline>
</glyph>
<glyph name="germandbls" format="1">
  <advance width="614"/>
  <unicode hex="00DF"/>
  <outline>
    <contour>
      <point x="131" y="764"/>
      <point x="42" y="674"/>
      <point x="42" y="530" type="curve" smooth="yes"/>
      <point x="42" y="0" type="line"/>
      <point x="240" y="0" type="line"/>
      <point x="240" y="537" type="line" smooth="yes"/>
      <point x="240" y="596"/>
      <point x="255" y="629"/>
      <point x="294" y="629" type="curve" smooth="yes"/>
      <point x="322" y="629"/>
      <point x="336" y="609"/>
      <point x="336" y="582" type="curve" smooth="yes"/>
      <point x="336" y="502"/>
      <point x="261" y="507"/>
      <point x="261" y="396" type="curve" smooth="yes"/>
      <point x="261" y="262"/>
      <point x="404" y="267"/>
      <point x="404" y="172" type="curve" smooth="yes"/>
      <point x="404" y="145"/>
      <point x="391" y="131"/>
      <point x="366" y="131" type="curve" smooth="yes"/>
      <point x="351" y="131"/>
      <point x="338" y="134"/>
      <point x="323" y="142" type="curve"/>
      <point x="264" y="9" type="line"/>
      <point x="298" y="-8"/>
      <point x="346" y="-20"/>
      <point x="393" y="-20" type="curve" smooth="yes"/>
      <point x="518" y="-20"/>
      <point x="609" y="49"/>
      <point x="609" y="168" type="curve" smooth="yes"/>
      <point x="609" y="345"/>
      <point x="428" y="364"/>
      <point x="428" y="434" type="curve" smooth="yes"/>
      <point x="428" y="490"/>
      <point x="522" y="515"/>
      <point x="522" y="611" type="curve" smooth="yes"/>
      <point x="522" y="690"/>
      <point x="447" y="764"/>
      <point x="299" y="764" type="curve" smooth="yes"/>
    </contour>
  </outline>
</glyph>
<glyph name="ae" format="1">
  <advance width="859"/>
  <unicode hex="00E6"/>
  <outline>
    <contour>
      <point x="428" y="554"/>
      <point x="361" y="412"/>
      <point x="321" y="266" type="curve"/>
      <point x="323" y="220" type="line" smooth="yes"/>
      <point x="329" y="93"/>
      <point x="424" y="-20"/>
      <point x="607" y="-20" type="curve" smooth="yes"/>
      <point x="700" y="-20"/>
      <point x="774" y="16"/>
      <point x="827" y="59" type="curve"/>
      <point x="747" y="167" type="line"/>
      <point x="701" y="135"/>
      <point x="664" y="120"/>
      <point x="626" y="120" type="curve" smooth="yes"/>
      <point x="557" y="120"/>
      <point x="516" y="140"/>
      <point x="516" y="263" type="curve" smooth="yes"/>
      <point x="516" y="393"/>
      <point x="538" y="429"/>
      <point x="589" y="429" type="curve" smooth="yes"/>
      <point x="640" y="429"/>
      <point x="651" y="384"/>
      <point x="652" y="330" type="curve" smooth="yes"/>
      <point x="652" y="328"/>
      <point x="652" y="325"/>
      <point x="652" y="323" type="curve"/>
      <point x="501" y="323" type="line"/>
      <point x="503" y="211" type="line"/>
      <point x="843" y="211" type="line"/>
      <point x="845" y="230"/>
      <point x="847" y="257"/>
      <point x="847" y="274" type="curve" smooth="yes"/>
      <point x="847" y="453"/>
      <point x="742" y="554"/>
      <point x="601" y="554" type="curve" smooth="yes"/>
    </contour>
    <contour>
      <point x="281" y="333" type="line" smooth="yes"/>
      <point x="105" y="333"/>
      <point x="15" y="268"/>
      <point x="15" y="150" type="curve" smooth="yes"/>
      <point x="15" y="51"/>
      <point x="83" y="-20"/>
      <point x="195" y="-20" type="curve" smooth="yes"/>
      <point x="269" y="-20"/>
      <point x="343" y="3"/>
      <point x="390" y="77" type="curve"/>
      <point x="336" y="173" type="line"/>
      <point x="315" y="143"/>
      <point x="295" y="119"/>
      <point x="263" y="119" type="curve" smooth="yes"/>
      <point x="236" y="119"/>
      <point x="221" y="138"/>
      <point x="221" y="165" type="curve" smooth="yes"/>
      <point x="221" y="209"/>
      <point x="247" y="225"/>
      <point x="300" y="225" type="curve" smooth="yes"/>
      <point x="345" y="225" type="line"/>
      <point x="345" y="333" type="line"/>
    </contour>
    <contour>
      <point x="211" y="554"/>
      <point x="128" y="539"/>
      <point x="61" y="512" type="curve"/>
      <point x="104" y="384" type="line"/>
      <point x="157" y="402"/>
      <point x="211" y="412"/>
      <point x="242" y="412" type="curve" smooth="yes"/>
      <point x="301" y="412"/>
      <point x="319" y="398"/>
      <point x="319" y="344" type="curve"/>
      <point x="321" y="266" type="line"/>
      <point x="516" y="263" type="line"/>
      <point x="497" y="357" type="line" smooth="yes"/>
      <point x="475" y="466"/>
      <point x="427" y="554"/>
      <point x="272" y="554" type="curve" smooth="yes"/>
    </contour>
    <contour>
      <point x="430" y="534" type="move" name="top"/>
    </contour>
    <contour>
      <point x="417" y="0" type="move" name="bottom"/>
    </contour>
  </outline>
</glyph>
<glyph name="oslash" format="1">
  <advance width="584"/>
  <unicode hex="00F8"/>
  <outline>
    <contour>
      <point x="122" y="554"/>
      <point x="17" y="442"/>
      <point x="17" y="268" type="curve" smooth="yes"/>
      <point x="17" y="82"/>
      <point x="124" y="-20"/>
      <point x="292" y="-20" type="curve"/>
      <point x="462" y="-20"/>
      <point x="567" y="92"/>
      <point x="567" y="266" type="curve" smooth="yes"/>
      <point x="567" y="452"/>
      <point x="460" y="554"/>
      <point x="292" y="554" type="curve"/>
    </contour>
    <contour>
      <point x="352" y="412"/>
      <point x="384" y="402"/>
      <point x="384" y="266" type="curve" smooth="yes"/>
      <point x="384" y="165"/>
      <point x="352" y="122"/>
      <point x="292" y="122" type="curve"/>
      <point x="232" y="122"/>
      <point x="200" y="132"/>
      <point x="200" y="268" type="curve" smooth="yes"/>
      <point x="200" y="369"/>
      <point x="232" y="412"/>
      <point x="292" y="412" type="curve"/>
    </contour>
    <contour>
      <point x="314" y="553" type="line"/>
      <point x="299" y="420" type="line"/>
      <point x="207" y="144" type="line"/>
      <point x="134" y="32" type="line"/>
      <point x="93" y="-97" type="line"/>
      <point x="233" y="-138" type="line"/>
      <point x="272" y="-12" type="line"/>
      <point x="286" y="115" type="line"/>
      <point x="375" y="384" type="line"/>
      <point x="452" y="509" type="line"/>
      <point x="493" y="632" type="line"/>
      <point x="353" y="673" type="line"/>
    </contour>
    <contour>
      <point x="292" y="534" type="move" name="top"/>
    </contour>
    <contour>
      <point x="291" y="0" type="move" name="bottom"/>
    </contour>
  </outline>
</glyph>
<glyph name="thorn" format="1">
  <advance width="599"/>
  <unicode hex="00FE"/>
  <outline>
    <contour>
      <point x="326" y="554"/>
      <point x="261" y="534"/>
      <point x="213" y="455" type="curve"/>
      <point x="229" y="340" type="line"/>
      <point x="251" y="392"/>
      <point x="280" y="412"/>
      <point x="306" y="412" type="curve" smooth="yes"/>
      <point x="346" y="412"/>
      <point x="374" y="395"/>
      <point x="374" y="266" type="curve" smooth="yes"/>
      <point x="374" y="158"/>
      <point x="343" y="121"/>
      <point x="299" y="121" type="curve" smooth="yes"/>
      <point x="270" y="121"/>
      <point x="251" y="136"/>
      <point x="228" y="178" type="curve"/>
      <point x="229" y="47" type="line"/>
      <point x="262" y="2"/>
      <point x="308" y="-20"/>
      <point x="364" y="-20" type="curve" smooth="yes"/>
      <point x="492" y="-20"/>
      <point x="577" y="103"/>
      <point x="577" y="269" type="curve" smooth="yes"/>
      <point x="577" y="445"/>
      <point x="513" y="554"/>
      <point x="373" y="554" type="curve" smooth="yes"/>
    </contour>
    <contour>
      <point x="42" y="744" type="line"/>
      <point x="42" y="-227" type="line"/>
      <point x="240" y="-207" type="line"/>
      <point x="240" y="764" type="line"/>
    </contour>
    <contour>
      <point x="300" y="744" type="move" name="top"/>
    </contour>
    <contour>
      <point x="300" y="-215" type="move" name="bottom"/>
    </contour>
  </outline>
</glyph>
<glyph name="dcroat" format="1">
  <advance width="611"/>
  <unicode hex="0111"/>
  <outline>
    <contour>
      <point x="237" y="696" type="line"/>
      <point x="237" y="590" type="line"/>
      <point x="559" y="590" type="line"/>
      <point x="611" y="590" type="line"/>
      <point x="611" y="696" type="line"/>
    </contour>
    <component base="d"/>
  </outline>
</glyph>
<glyph name="Hbar" format="1">
  <advance width="671"/>
  <unicode hex="0126"/>
  <outline>
    <contour>
      <point x="622" y="601" type="line"/>
      <point x="0" y="601" type="line"/>
      <point x="0" y="495" type="line"/>
      <point x="49" y="495" type="line"/>
      <point x="671" y="495" type="line"/>
      <point x="671" y="601" type="line"/>
    </contour>
    <component base="H" xOffset="7"/>
  </outline>
</glyph>
<glyph name="hbar" format="1">
  <advance width="582"/>
  <unicode hex="0127"/>
  <outline>
    <contour>
      <point x="0" y="696" type="line"/>
      <point x="0" y="590" type="line"/>
      <point x="52" y="590" type="line"/>
      <point x="372" y="590" type="line"/>
      <point x="372" y="696" type="line"/>
    </contour>
    <component base="h" xOffset="10"/>
  </outline>
</glyph>
<glyph name="dotlessi" format="1">
  <advance width="282"/>
  <unicode hex="0131"/>
  <outline>
    <contour>
      <point x="42" y="534" type="line"/>
      <point x="42" y="0" type="line"/>
      <point x="240" y="0" type="line"/>
      <point x="240" y="534" type="line"/>
    </contour>
    <contour>
      <point x="210" y="0" type="move" name="ogonek"/>
    </contour>
    <contour>
      <point x="141" y="0" type="move" name="bottom"/>
    </contour>
    <contour>
      <point x="141" y="534" type="move" name="top"/>
    </contour>
  </outline>
</glyph>
<glyph name="kgreenlandic" format="1">
  <advance width="576"/>
  <unicode hex="0138"/>
  <outline>
    <contour>
      <point x="387" y="534" type="line"/>
      <point x="244" y="282" type="line"/>
      <point x="372" y="0" type="line"/>
      <point x="591" y="0" type="line"/>
      <point x="442" y="290" type="line"/>
      <point x="583" y="534" type="line"/>
    </contour>
    <contour>
      <point x="42" y="534" type="line"/>
      <point x="42" y="0" type="line"/>
      <point x="240" y="0" type="line"/>
      <point x="240" y="534" type="line"/>
    </contour>
  </outline>
</glyph>
<glyph name="lslash" format="1">
  <advance width="386"/>
  <unicode hex="0142"/>
  <outline>
    <contour>
      <point x="392" y="440" type="line"/>
      <point x="329" y="542" type="line"/>
      <point x="79" y="391" type="line"/>
      <point x="-20" y="329" type="line"/>
      <point x="43" y="227" type="line"/>
    </contour>
    <component base="l" xOffset="42"/>
  </outline>
</glyph>
<glyph name="napostrophe" format="1">
  <advance width="572"/>
  <unicode hex="0149"/>
  <outline>
    <contour>
      <point x="-76" y="764"/>
      <point x="-109" y="729"/>
      <point x="-109" y="689" type="curve" smooth="yes"/>
      <point x="-109" y="660"/>
      <point x="-95" y="640"/>
      <point x="-77" y="626" type="curve"/>
      <point x="-98" y="535" type="line"/>
      <point x="-19" y="535" type="line"/>
      <point x="22" y="615" type="line" smooth="yes"/>
      <point x="37" y="644"/>
      <point x="45" y="663"/>
      <point x="45" y="689" type="curve" smooth="yes"/>
      <point x="45" y="732"/>
      <point x="12" y="764"/>
      <point x="-32" y="764" type="curve" smooth="yes"/>
    </contour>
    <component base="n"/>
  </outline>
</glyph>
<glyph name="eng" format="1">
  <advance width="572"/>
  <unicode hex="014B"/>
  <outline>
    <component base="n"/>
    <component base="hookHELPER" xOffset="133"/>
    <contour>
      <point x="296" y="-215" type="move" name="bottom"/>
    </contour>
  </outline>
</glyph>
<glyph name="OE" format="1">
  <advance width="910"/>
  <unicode hex="0152"/>
  <outline>
    <contour>
      <point x="136" y="716"/>
      <point x="20" y="575"/>
      <point x="20" y="349" type="curve" smooth="yes"/>
      <point x="20" y="118"/>
      <point x="136" y="-20"/>
      <point x="327" y="-20" type="curve" smooth="yes"/>
      <point x="410" y="-20"/>
      <point x="480" y="9"/>
      <point x="514" y="69" type="curve"/>
      <point x="608" y="125"/>
      <point x="650" y="237"/>
      <point x="650" y="349" type="curve" smooth="yes"/>
      <point x="650" y="465"/>
      <point x="607" y="576"/>
      <point x="506" y="640" type="curve"/>
      <point x="478" y="689"/>
      <point x="409" y="716"/>
      <point x="327" y="716" type="curve" smooth="yes"/>
    </contour>
    <contour>
      <point x="573" y="144" type="line"/>
      <point x="427" y="0" type="line"/>
      <point x="885" y="0" type="line"/>
      <point x="885" y="144" type="line"/>
    </contour>
    <contour>
      <point x="633" y="423" type="line"/>
      <point x="633" y="284" type="line"/>
      <point x="841" y="284" type="line"/>
      <point x="841" y="423" type="line"/>
    </contour>
    <contour>
      <point x="427" y="696" type="line"/>
      <point x="583" y="553" type="line"/>
      <point x="869" y="553" type="line"/>
      <point x="890" y="696" type="line"/>
    </contour>
    <contour>
      <point x="403" y="570"/>
      <point x="436" y="510"/>
      <point x="436" y="349" type="curve" smooth="yes"/>
      <point x="436" y="188"/>
      <point x="405" y="126"/>
      <point x="335" y="126" type="curve" smooth="yes"/>
      <point x="267" y="126"/>
      <point x="234" y="188"/>
      <point x="234" y="349" type="curve" smooth="yes"/>
      <point x="234" y="510"/>
      <point x="267" y="570"/>
      <point x="335" y="570" type="curve" smooth="yes"/>
    </contour>
    <contour>
      <point x="455" y="696" type="move" name="top"/>
    </contour>
    <contour>
      <point x="455" y="0" type="move" name="bottom"/>
    </contour>
  </outline>
</glyph>
<glyph name="oe" format="1">
  <advance width="902"/>
  <unicode hex="0153"/>
  <outline>
    <contour>
      <point x="122" y="554"/>
      <point x="17" y="440"/>
      <point x="17" y="268" type="curve" smooth="yes"/>
      <point x="17" y="82"/>
      <point x="122" y="-20"/>
      <point x="291" y="-20" type="curve" smooth="yes"/>
      <point x="440" y="-20"/>
      <point x="525" y="82"/>
      <point x="565" y="268" type="curve"/>
      <point x="535" y="440"/>
      <point x="440" y="554"/>
      <point x="291" y="554" type="curve" smooth="yes"/>
    </contour>
    <contour>
      <point x="340" y="412"/>
      <point x="362" y="369"/>
      <point x="362" y="268" type="curve" smooth="yes"/>
      <point x="362" y="163"/>
      <point x="340" y="122"/>
      <point x="291" y="122" type="curve" smooth="yes"/>
      <point x="242" y="122"/>
      <point x="220" y="162"/>
      <point x="220" y="268" type="curve" smooth="yes"/>
      <point x="220" y="369"/>
      <point x="242" y="412"/>
      <point x="291" y="412" type="curve" smooth="yes"/>
    </contour>
    <contour>
      <point x="471" y="554"/>
      <point x="392" y="422"/>
      <point x="362" y="266" type="curve"/>
      <point x="402" y="101"/>
      <point x="474" y="-20"/>
      <point x="650" y="-20" type="curve" smooth="yes"/>
      <point x="743" y="-20"/>
      <point x="817" y="16"/>
      <point x="870" y="59" type="curve"/>
      <point x="790" y="167" type="line"/>
      <point x="744" y="135"/>
      <point x="707" y="120"/>
      <point x="669" y="120" type="curve" smooth="yes"/>
      <point x="600" y="120"/>
      <point x="559" y="140"/>
      <point x="559" y="263" type="curve" smooth="yes"/>
      <point x="559" y="393"/>
      <point x="581" y="429"/>
      <point x="632" y="429" type="curve" smooth="yes"/>
      <point x="683" y="429"/>
      <point x="694" y="384"/>
      <point x="695" y="330" type="curve" smooth="yes"/>
      <point x="695" y="328"/>
      <point x="695" y="325"/>
      <point x="695" y="323" type="curve"/>
      <point x="544" y="323" type="line"/>
      <point x="546" y="211" type="line"/>
      <point x="886" y="211" type="line"/>
      <point x="888" y="230"/>
      <point x="890" y="257"/>
      <point x="890" y="274" type="curve" smooth="yes"/>
      <point x="890" y="453"/>
      <point x="786" y="554"/>
      <point x="628" y="554" type="curve" smooth="yes"/>
    </contour>
    <contour>
      <point x="451" y="534" type="move" name="top"/>
    </contour>
    <contour>
      <point x="464" y="0" type="move" name="bottom"/>
    </contour>
  </outline>
</glyph>
<glyph name="Tbar" format="1">
  <advance width="554"/>
  <unicode hex="0166"/>
  <outline>
    <contour>
      <point x="64" y="391" type="line"/>
      <point x="64" y="285" type="line"/>
      <point x="174" y="285" type="line"/>
      <point x="489" y="285" type="line"/>
      <point x="489" y="391" type="line"/>
    </contour>
    <component base="T"/>
  </outline>
</glyph>
<glyph name="tbar" format="1">
  <advance width="401"/>
  <unicode hex="0167"/>
  <outline>
    <contour>
      <point x="62" y="364" type="line"/>
      <point x="5" y="364" type="line"/>
      <point x="5" y="240" type="line"/>
      <point x="360" y="240" type="line"/>
      <point x="360" y="364" type="line"/>
    </contour>
    <component base="t"/>
  </outline>
</glyph>
<glyph name="longs" format="1">
  <advance width="369"/>
  <unicode hex="017F"/>
  <outline>
    <contour>
      <point x="143" y="764"/>
      <point x="70" y="675"/>
      <point x="70" y="565" type="curve" smooth="yes"/>
      <point x="70" y="0" type="line"/>
      <point x="268" y="0" type="line"/>
      <point x="268" y="555" type="line" smooth="yes"/>
      <point x="268" y="605"/>
      <point x="285" y="622"/>
      <point x="323" y="622" type="curve" smooth="yes"/>
      <point x="345" y="622"/>
      <point x="373" y="617"/>
      <point x="401" y="602" type="curve"/>
      <point x="453" y="727" type="line"/>
      <point x="416" y="747"/>
      <point x="354" y="764"/>
      <point x="296" y="764" type="curve" smooth="yes"/>
    </contour>
    <contour>
      <point x="-2" y="534" type="line"/>
      <point x="-2" y="400" type="line"/>
      <point x="206" y="400" type="line"/>
      <point x="228" y="534" type="line"/>
    </contour>
  </outline>
</glyph>
<glyph name="uni0180" format="1">
  <advance width="609"/>
  <unicode hex="0180"/>
  <outline>
    <contour>
      <point x="0" y="696" type="line"/>
      <point x="0" y="590" type="line"/>
      <point x="52" y="590" type="line"/>
      <point x="372" y="590" type="line"/>
      <point x="372" y="696" type="line"/>
    </contour>
    <component base="b" xOffset="10"/>
  </outline>
</glyph>
<glyph name="uni0183" format="1">
  <advance width="599"/>
  <unicode hex="0183"/>
  <outline>
    <contour>
      <point x="498" y="-20"/>
      <point x="577" y="103"/>
      <point x="577" y="256" type="curve" smooth="yes"/>
      <point x="577" y="425"/>
      <point x="513" y="534"/>
      <point x="375" y="534" type="curve" smooth="yes"/>
      <point x="320" y="534"/>
      <point x="257" y="501"/>
      <point x="232" y="454" type="curve"/>
      <point x="229" y="320" type="line"/>
      <point x="251" y="372"/>
      <point x="280" y="392"/>
      <point x="311" y="392" type="curve" smooth="yes"/>
      <point x="346" y="392"/>
      <point x="374" y="371"/>
      <point x="374" y="256" type="curve" smooth="yes"/>
      <point x="374" y="154"/>
      <point x="345" y="121"/>
      <point x="305" y="121" type="curve" smooth="yes"/>
      <point x="272" y="121"/>
      <point x="247" y="139"/>
      <point x="231" y="178" type="curve"/>
      <point x="215" y="61" type="line"/>
      <point x="245" y="11"/>
      <point x="297" y="-20"/>
      <point x="363" y="-20" type="curve" smooth="yes"/>
    </contour>
    <contour>
      <point x="218" y="0" type="line"/>
      <point x="240" y="152" type="line"/>
      <point x="240" y="744" type="line"/>
      <point x="42" y="744" type="line"/>
      <point x="42" y="0" type="line"/>
    </contour>
    <contour>
      <point x="434" y="605" type="line"/>
      <point x="454" y="744" type="line"/>
      <point x="52" y="744" type="line"/>
      <point x="240" y="605" type="line"/>
    </contour>
  </outline>
</glyph>
<glyph name="uni0184" format="1">
  <advance width="641"/>
  <unicode hex="0184"/>
  <outline>
    <contour>
      <point x="356" y="0" type="line" smooth="yes"/>
      <point x="515" y="0"/>
      <point x="631" y="80"/>
      <point x="631" y="242" type="curve" smooth="yes"/>
      <point x="631" y="395"/>
      <point x="528" y="469"/>
      <point x="348" y="469" type="curve" smooth="yes"/>
      <point x="268" y="469" type="line"/>
      <point x="268" y="331" type="line"/>
      <point x="325" y="331" type="line" smooth="yes"/>
      <point x="393" y="331"/>
      <point x="417" y="295"/>
      <point x="417" y="240" type="curve" smooth="yes"/>
      <point x="417" y="181"/>
      <point x="390" y="145"/>
      <point x="329" y="145" type="curve" smooth="yes"/>
      <point x="284" y="145" type="line"/>
      <point x="284" y="696" type="line"/>
      <point x="114" y="696" type="line"/>
      <point x="78" y="547" type="line"/>
      <point x="78" y="0" type="line"/>
    </contour>
    <contour>
      <point x="114" y="696" type="line"/>
      <point x="84" y="633"/>
      <point x="46" y="575"/>
      <point x="0" y="528" type="curve"/>
      <point x="79" y="471" type="line"/>
    </contour>
  </outline>
</glyph>
<glyph name="uni0185" format="1">
  <advance width="553"/>
  <unicode hex="0185"/>
  <outline>
    <contour>
      <point x="312" y="0" type="line" smooth="yes"/>
      <point x="455" y="0"/>
      <point x="548" y="64"/>
      <point x="548" y="184" type="curve" smooth="yes"/>
      <point x="548" y="309"/>
      <point x="467" y="371"/>
      <point x="285" y="371" type="curve" smooth="yes"/>
      <point x="251" y="371" type="line"/>
      <point x="251" y="251" type="line"/>
      <point x="282" y="251" type="line" smooth="yes"/>
      <point x="331" y="251"/>
      <point x="349" y="229"/>
      <point x="349" y="188" type="curve" smooth="yes"/>
      <point x="349" y="149"/>
      <point x="331" y="123"/>
      <point x="290" y="123" type="curve" smooth="yes"/>
      <point x="267" y="123" type="line"/>
      <point x="267" y="534" type="line"/>
      <point x="104" y="534" type="line"/>
      <point x="69" y="431" type="line"/>
      <point x="69" y="0" type="line"/>
    </contour>
    <contour>
      <point x="104" y="534" type="line"/>
      <point x="71" y="470"/>
      <point x="36" y="423"/>
      <point x="-10" y="376" type="curve"/>
      <point x="69" y="319" type="line"/>
    </contour>
  </outline>
</glyph>
<glyph name="uni0186" format="1">
  <advance width="584"/>
  <unicode hex="0186"/>
  <outline>
    <contour>
      <point x="141" y="716"/>
      <point x="69" y="685"/>
      <point x="8" y="634" type="curve"/>
      <point x="106" y="519" type="line"/>
      <point x="144" y="549"/>
      <point x="181" y="568"/>
      <point x="232" y="568" type="curve" smooth="yes"/>
      <point x="307" y="568"/>
      <point x="350" y="497"/>
      <point x="350" y="350" type="curve" smooth="yes"/>
      <point x="350" y="203"/>
      <point x="301" y="135"/>
      <point x="223" y="135" type="curve" smooth="yes"/>
      <point x="169" y="135"/>
      <point x="131" y="161"/>
      <point x="90" y="193" type="curve"/>
      <point x="0" y="77" type="line"/>
      <point x="52" y="26"/>
      <point x="132" y="-20"/>
      <point x="234" y="-20" type="curve" smooth="yes"/>
      <point x="433" y="-20"/>
      <point x="564" y="109"/>
      <point x="564" y="350" type="curve" smooth="yes"/>
      <point x="564" y="582"/>
      <point x="433" y="716"/>
      <point x="244" y="716" type="curve" smooth="yes"/>
    </contour>
    <contour>
      <point x="209" y="354" type="move" name="center"/>
    </contour>
    <contour>
      <point x="252" y="0" type="move" name="bottom"/>
    </contour>
    <contour>
      <point x="252" y="696" type="move" name="top"/>
    </contour>
  </outline>
</glyph>
<glyph name="uni0187" format="1">
  <advance width="584"/>
  <unicode hex="0187"/>
  <outline>
    <contour>
      <point x="452" y="-20"/>
      <point x="533" y="26"/>
      <point x="584" y="77" type="curve"/>
      <point x="494" y="193" type="line"/>
      <point x="453" y="161"/>
      <point x="415" y="135"/>
      <point x="366" y="135" type="curve" smooth="yes"/>
      <point x="283" y="135"/>
      <point x="234" y="203"/>
      <point x="234" y="350" type="curve" smooth="yes"/>
      <point x="234" y="497"/>
      <point x="282" y="568"/>
      <point x="360" y="568" type="curve" smooth="yes"/>
      <point x="417" y="568"/>
      <point x="453" y="553"/>
      <point x="489" y="532" type="curve"/>
      <point x="576" y="634" type="line"/>
      <point x="526" y="666"/>
      <point x="481" y="689"/>
      <point x="434" y="688" type="curve"/>
      <point x="404" y="707"/>
      <point x="369" y="716"/>
      <point x="322" y="716" type="curve" smooth="yes"/>
      <point x="162" y="716"/>
      <point x="20" y="582"/>
      <point x="20" y="350" type="curve" smooth="yes"/>
      <point x="20" y="109"/>
      <point x="151" y="-20"/>
      <point x="354" y="-20" type="curve" smooth="yes"/>
    </contour>
    <contour>
      <point x="576" y="634" type="line"/>
      <point x="576" y="667" type="line" smooth="yes"/>
      <point x="576" y="704"/>
      <point x="589" y="721"/>
      <point x="620" y="721" type="curve" smooth="yes"/>
      <point x="642" y="721"/>
      <point x="661" y="715"/>
      <point x="684" y="704" type="curve"/>
      <point x="736" y="826" type="line"/>
      <point x="701" y="846"/>
      <point x="654" y="863"/>
      <point x="589" y="863" type="curve" smooth="yes"/>
      <point x="463" y="863"/>
      <point x="408" y="794"/>
      <point x="408" y="684" type="curve" smooth="yes"/>
      <point x="408" y="632" type="line"/>
    </contour>
  </outline>
</glyph>
<glyph name="uni0188" format="1">
  <advance width="479"/>
  <unicode hex="0188"/>
  <outline>
    <contour>
      <point x="376" y="764"/>
      <point x="321" y="695"/>
      <point x="321" y="585" type="curve" smooth="yes"/>
      <point x="321" y="533" type="line"/>
      <point x="489" y="483" type="line"/>
      <point x="489" y="568" type="line" smooth="yes"/>
      <point x="489" y="605"/>
      <point x="502" y="622"/>
      <point x="533" y="622" type="curve" smooth="yes"/>
      <point x="555" y="622"/>
      <point x="574" y="616"/>
      <point x="597" y="605" type="curve"/>
      <point x="649" y="727" type="line"/>
      <point x="614" y="747"/>
      <point x="567" y="764"/>
      <point x="502" y="764" type="curve" smooth="yes"/>
    </contour>
    <contour>
      <point x="128" y="554"/>
      <point x="17" y="432"/>
      <point x="17" y="263" type="curve" smooth="yes"/>
      <point x="17" y="96"/>
      <point x="124" y="-20"/>
      <point x="300" y="-20" type="curve" smooth="yes"/>
      <point x="380" y="-20"/>
      <point x="440" y="6"/>
      <point x="489" y="46" type="curve"/>
      <point x="401" y="170" type="line"/>
      <point x="367" y="144"/>
      <point x="344" y="133"/>
      <point x="311" y="133" type="curve" smooth="yes"/>
      <point x="260" y="133"/>
      <point x="223" y="156"/>
      <point x="223" y="263" type="curve" smooth="yes"/>
      <point x="223" y="371"/>
      <point x="255" y="405"/>
      <point x="317" y="405" type="curve" smooth="yes"/>
      <point x="356" y="405"/>
      <point x="388" y="397"/>
      <point x="418" y="383" type="curve"/>
      <point x="489" y="483" type="line"/>
      <point x="457" y="512"/>
      <point x="420" y="532"/>
      <point x="355" y="534" type="curve"/>
      <point x="332" y="546"/>
      <point x="301" y="554"/>
      <point x="265" y="554" type="curve" smooth="yes"/>
    </contour>
  </outline>
</glyph>
<glyph name="uni018B" format="1">
  <advance width="606"/>
  <unicode hex="018B"/>
  <outline>
    <contour>
      <point x="103" y="543" type="line"/>
      <point x="373" y="543" type="line"/>
      <point x="563" y="696" type="line"/>
      <point x="103" y="696" type="line"/>
    </contour>
    <component base="uni0500"/>
  </outline>
</glyph>
<glyph name="uni018C" format="1">
  <advance width="601"/>
  <unicode hex="018C"/>
  <outline>
    <contour>
      <point x="309" y="-20"/>
      <point x="356" y="25"/>
      <point x="383" y="66" type="curve"/>
      <point x="371" y="188" type="line"/>
      <point x="350" y="142"/>
      <point x="323" y="122"/>
      <point x="294" y="122" type="curve" smooth="yes"/>
      <point x="256" y="122"/>
      <point x="225" y="140"/>
      <point x="225" y="258" type="curve" smooth="yes"/>
      <point x="225" y="356"/>
      <point x="259" y="393"/>
      <point x="303" y="393" type="curve" smooth="yes"/>
      <point x="333" y="393"/>
      <point x="350" y="376"/>
      <point x="374" y="348" type="curve"/>
      <point x="372" y="481" type="line"/>
      <point x="342" y="515"/>
      <point x="295" y="534"/>
      <point x="250" y="534" type="curve" smooth="yes"/>
      <point x="108" y="534"/>
      <point x="22" y="416"/>
      <point x="22" y="260" type="curve" smooth="yes"/>
      <point x="22" y="94"/>
      <point x="86" y="-20"/>
      <point x="225" y="-20" type="curve" smooth="yes"/>
    </contour>
    <contour>
      <point x="559" y="0" type="line"/>
      <point x="559" y="744" type="line"/>
      <point x="361" y="744" type="line"/>
      <point x="361" y="156" type="line"/>
      <point x="374" y="68" type="line"/>
      <point x="383" y="0" type="line"/>
    </contour>
    <contour>
      <point x="361" y="605" type="line"/>
      <point x="549" y="744" type="line"/>
      <point x="157" y="744" type="line"/>
      <point x="157" y="605" type="line"/>
    </contour>
  </outline>
</glyph>
<glyph name="uni018D" format="1">
  <advance width="576"/>
  <unicode hex="018D"/>
  <outline>
    <contour>
      <point x="70" y="-152"/>
      <point x="138" y="-227"/>
      <point x="303" y="-227" type="curve" smooth="yes"/>
      <point x="395" y="-227"/>
      <point x="465" y="-197"/>
      <point x="507" y="-162" type="curve"/>
      <point x="420" y="-62" type="line"/>
      <point x="390" y="-81"/>
      <point x="358" y="-94"/>
      <point x="319" y="-94" type="curve" smooth="yes"/>
      <point x="274" y="-94"/>
      <point x="256" y="-80"/>
      <point x="256" y="-60" type="curve" smooth="yes"/>
      <point x="256" y="-38"/>
      <point x="263" y="-27"/>
      <point x="344" y="5" type="curve" smooth="yes"/>
      <point x="494" y="64"/>
      <point x="559" y="137"/>
      <point x="559" y="283" type="curve" smooth="yes"/>
      <point x="559" y="456"/>
      <point x="451" y="554"/>
      <point x="288" y="554" type="curve" smooth="yes"/>
      <point x="118" y="554"/>
      <point x="17" y="456"/>
      <point x="17" y="292" type="curve" smooth="yes"/>
      <point x="17" y="195"/>
      <point x="70" y="118"/>
      <point x="186" y="70" type="curve"/>
      <point x="282" y="111" type="line"/>
      <point x="224" y="161"/>
      <point x="218" y="212"/>
      <point x="218" y="282" type="curve" smooth="yes"/>
      <point x="218" y="375"/>
      <point x="239" y="412"/>
      <point x="287" y="412" type="curve" smooth="yes"/>
      <point x="333" y="412"/>
      <point x="356" y="376"/>
      <point x="356" y="282" type="curve" smooth="yes"/>
      <point x="356" y="176"/>
      <point x="342" y="156"/>
      <point x="215" y="100" type="curve" smooth="yes"/>
      <point x="89" y="39"/>
      <point x="70" y="-6"/>
      <point x="70" y="-67" type="curve" smooth="yes"/>
    </contour>
  </outline>
</glyph>
<glyph name="uni018E" format="1">
  <advance width="515"/>
  <unicode hex="018E"/>
  <outline>
    <contour>
      <point x="25" y="553" type="line"/>
      <point x="266" y="553" type="line"/>
      <point x="266" y="423" type="line"/>
      <point x="64" y="423" type="line"/>
      <point x="64" y="284" type="line"/>
      <point x="266" y="284" type="line"/>
      <point x="266" y="144" type="line"/>
      <point x="20" y="144" type="line"/>
      <point x="20" y="0" type="line"/>
      <point x="472" y="0" type="line"/>
      <point x="472" y="696" type="line"/>
      <point x="25" y="696" type="line"/>
    </contour>
  </outline>
</glyph>
<glyph name="uni0190" format="1">
  <advance width="553"/>
  <unicode hex="0190"/>
  <outline>
    <contour>
      <point x="145" y="716"/>
      <point x="35" y="639"/>
      <point x="35" y="530" type="curve" smooth="yes"/>
      <point x="35" y="455"/>
      <point x="83" y="391"/>
      <point x="201" y="367" type="curve"/>
      <point x="80" y="354"/>
      <point x="15" y="296"/>
      <point x="15" y="193" type="curve" smooth="yes"/>
      <point x="15" y="62"/>
      <point x="134" y="-20"/>
      <point x="304" y="-20" type="curve" smooth="yes"/>
      <point x="422" y="-20"/>
      <point x="504" y="18"/>
      <point x="563" y="80" type="curve"/>
      <point x="456" y="184" type="line"/>
      <point x="412" y="145"/>
      <point x="375" y="126"/>
      <point x="326" y="126" type="curve" smooth="yes"/>
      <point x="267" y="126"/>
      <point x="229" y="153"/>
      <point x="229" y="209" type="curve" smooth="yes"/>
      <point x="229" y="262"/>
      <point x="263" y="295"/>
      <point x="336" y="295" type="curve" smooth="yes"/>
      <point x="390" y="295" type="line"/>
      <point x="413" y="436" type="line"/>
      <point x="332" y="436" type="line" smooth="yes"/>
      <point x="274" y="436"/>
      <point x="245" y="462"/>
      <point x="245" y="506" type="curve" smooth="yes"/>
      <point x="245" y="543"/>
      <point x="265" y="572"/>
      <point x="325" y="572" type="curve" smooth="yes"/>
      <point x="365" y="572"/>
      <point x="405" y="556"/>
      <point x="445" y="520" type="curve"/>
      <point x="540" y="620" type="line"/>
      <point x="474" y="683"/>
      <point x="400" y="716"/>
      <point x="299" y="716" type="curve" smooth="yes"/>
    </contour>
    <contour>
      <point x="277" y="696" type="move" name="top"/>
    </contour>
    <contour>
      <point x="277" y="0" type="move" name="bottom"/>
    </contour>
  </outline>
</glyph>
<glyph name="florin" format="1">
  <advance width="387"/>
  <unicode hex="0192"/>
  <outline>
    <contour>
      <point x="145" y="764"/>
      <point x="72" y="675"/>
      <point x="72" y="565" type="curve" smooth="yes"/>
      <point x="72" y="65" type="line"/>
      <point x="270" y="85" type="line"/>
      <point x="270" y="555" type="line" smooth="yes"/>
      <point x="270" y="605"/>
      <point x="283" y="622"/>
      <point x="335" y="622" type="curve" smooth="yes"/>
      <point x="360" y="622"/>
      <point x="385" y="617"/>
      <point x="419" y="602" type="curve"/>
      <point x="471" y="727" type="line"/>
      <point x="428" y="747"/>
      <point x="366" y="764"/>
      <point x="298" y="764" type="curve" smooth="yes"/>
    </contour>
    <contour>
      <point x="-8" y="534" type="line"/>
      <point x="-8" y="400" type="line"/>
      <point x="372" y="400" type="line"/>
      <point x="394" y="534" type="line"/>
    </contour>
    <contour>
      <point x="72" y="324" type="line"/>
      <point x="72" y="65" type="line" smooth="yes"/>
      <point x="72" y="-22"/>
      <point x="27" y="-52"/>
      <point x="-40" y="-83" type="curve"/>
      <point x="28" y="-227" type="line"/>
      <point x="160" y="-184"/>
      <point x="270" y="-111"/>
      <point x="270" y="77" type="curve" smooth="yes"/>
      <point x="270" y="324" type="line"/>
    </contour>
  </outline>
</glyph>
<glyph name="uni0193" format="1">
  <advance width="626"/>
  <unicode hex="0193"/>
  <outline>
    <contour>
      <point x="442" y="-20"/>
      <point x="543" y="9"/>
      <point x="618" y="60" type="curve"/>
      <point x="618" y="409" type="line"/>
      <point x="331" y="409" type="line"/>
      <point x="350" y="270" type="line"/>
      <point x="420" y="270" type="line"/>
      <point x="420" y="143" type="line"/>
      <point x="398" y="132"/>
      <point x="376" y="126"/>
      <point x="349" y="126" type="curve" smooth="yes"/>
      <point x="268" y="126"/>
      <point x="232" y="176"/>
      <point x="232" y="348" type="curve" smooth="yes"/>
      <point x="232" y="501"/>
      <point x="287" y="572"/>
      <point x="383" y="572" type="curve" smooth="yes"/>
      <point x="436" y="572"/>
      <point x="478" y="554"/>
      <point x="524" y="528" type="curve"/>
      <point x="618" y="625" type="line"/>
      <point x="586" y="654"/>
      <point x="545" y="675"/>
      <point x="497" y="671" type="curve"/>
      <point x="467" y="695"/>
      <point x="412" y="716"/>
      <point x="348" y="716" type="curve" smooth="yes"/>
      <point x="174" y="716"/>
      <point x="20" y="585"/>
      <point x="20" y="349" type="curve" smooth="yes"/>
      <point x="20" y="112"/>
      <point x="122" y="-20"/>
      <point x="355" y="-20" type="curve" smooth="yes"/>
    </contour>
    <contour>
      <point x="618" y="625" type="line"/>
      <point x="618" y="667" type="line" smooth="yes"/>
      <point x="618" y="704"/>
      <point x="631" y="721"/>
      <point x="662" y="721" type="curve" smooth="yes"/>
      <point x="684" y="721"/>
      <point x="703" y="715"/>
      <point x="726" y="704" type="curve"/>
      <point x="778" y="826" type="line"/>
      <point x="743" y="846"/>
      <point x="696" y="863"/>
      <point x="631" y="863" type="curve" smooth="yes"/>
      <point x="505" y="863"/>
      <point x="450" y="794"/>
      <point x="450" y="684" type="curve" smooth="yes"/>
      <point x="450" y="632" type="line"/>
    </contour>
  </outline>
</glyph>
<glyph name="uni0194" format="1">
  <advance width="579"/>
  <unicode hex="0194"/>
  <outline>
    <contour>
      <point x="418" y="-227"/>
      <point x="463" y="-169"/>
      <point x="463" y="-89" type="curve" smooth="yes"/>
      <point x="463" y="-23"/>
      <point x="440" y="36"/>
      <point x="394" y="106" type="curve"/>
      <point x="293" y="237" type="line"/>
      <point x="192" y="696" type="line"/>
      <point x="-25" y="696" type="line"/>
      <point x="193" y="106" type="line"/>
      <point x="293" y="6" type="line"/>
      <point x="309" y="-28"/>
      <point x="320" y="-51"/>
      <point x="320" y="-76" type="curve" smooth="yes"/>
      <point x="320" y="-95"/>
      <point x="311" y="-106"/>
      <point x="293" y="-106" type="curve" smooth="yes"/>
      <point x="276" y="-106"/>
      <point x="266" y="-96"/>
      <point x="266" y="-77" type="curve" smooth="yes"/>
      <point x="266" y="-54"/>
      <point x="277" y="-27"/>
      <point x="293" y="6" type="curve"/>
      <point x="394" y="106" type="line"/>
      <point x="604" y="696" type="line"/>
      <point x="393" y="696" type="line"/>
      <point x="293" y="237" type="line"/>
      <point x="193" y="106" type="line"/>
      <point x="144" y="23"/>
      <point x="123" y="-29"/>
      <point x="123" y="-89" type="curve" smooth="yes"/>
      <point x="123" y="-170"/>
      <point x="172" y="-227"/>
      <point x="293" y="-227" type="curve" smooth="yes"/>
    </contour>
  </outline>
</glyph>
<glyph name="uni0195" format="1">
  <advance width="861"/>
  <unicode hex="0195"/>
  <outline>
    <contour>
      <point x="697" y="-20"/>
      <point x="836" y="54"/>
      <point x="836" y="244" type="curve" smooth="yes"/>
      <point x="836" y="359"/>
      <point x="820" y="456"/>
      <point x="805" y="534" type="curve"/>
      <point x="611" y="534" type="line"/>
      <point x="626" y="444"/>
      <point x="638" y="346"/>
      <point x="638" y="259" type="curve" smooth="yes"/>
      <point x="638" y="158"/>
      <point x="610" y="122"/>
      <point x="576" y="122" type="curve" smooth="yes"/>
      <point x="551" y="122"/>
      <point x="535" y="137"/>
      <point x="535" y="190" type="curve" smooth="yes"/>
      <point x="535" y="334" type="line"/>
      <point x="337" y="334" type="line"/>
      <point x="337" y="191" type="line" smooth="yes"/>
      <point x="337" y="39"/>
      <point x="441" y="-20"/>
      <point x="560" y="-20" type="curve" smooth="yes"/>
    </contour>
    <contour>
      <point x="240" y="0" type="line"/>
      <point x="240" y="764" type="line"/>
      <point x="42" y="744" type="line"/>
      <point x="42" y="0" type="line"/>
    </contour>
    <contour>
      <point x="535" y="300" type="line"/>
      <point x="535" y="394" type="line" smooth="yes"/>
      <point x="535" y="496"/>
      <point x="480" y="554"/>
      <point x="391" y="554" type="curve" smooth="yes"/>
      <point x="321" y="554"/>
      <point x="270" y="526"/>
      <point x="216" y="459" type="curve"/>
      <point x="240" y="357" type="line"/>
      <point x="263" y="393"/>
      <point x="286" y="410"/>
      <point x="307" y="410" type="curve" smooth="yes"/>
      <point x="325" y="410"/>
      <point x="337" y="400"/>
      <point x="337" y="358" type="curve"/>
      <point x="337" y="300" type="line"/>
    </contour>
    <contour>
      <point x="431" y="744" type="move" name="top"/>
    </contour>
    <contour>
      <point x="431" y="0" type="move" name="bottom"/>
    </contour>
  </outline>
</glyph>
<glyph name="uni0196" format="1">
  <advance width="406"/>
  <unicode hex="0196"/>
  <outline>
    <contour>
      <point x="33" y="696" type="line"/>
      <point x="33" y="207" type="line"/>
      <point x="239" y="207" type="line"/>
      <point x="239" y="696" type="line"/>
    </contour>
    <component base="hookHELPER.case" xOffset="451" yOffset="207" xScale="-1"/>
  </outline>
</glyph>
<glyph name="uni0198" format="1">
  <advance width="675"/>
  <unicode hex="0198"/>
  <outline>
    <contour>
      <point x="43" y="696" type="line"/>
      <point x="43" y="0" type="line"/>
      <point x="249" y="0" type="line"/>
      <point x="249" y="696" type="line"/>
    </contour>
    <contour>
      <point x="571" y="566"/>
      <point x="584" y="574"/>
      <point x="608" y="574" type="curve" smooth="yes"/>
      <point x="626" y="574"/>
      <point x="637" y="568"/>
      <point x="646" y="564" type="curve"/>
      <point x="695" y="677" type="line"/>
      <point x="669" y="697"/>
      <point x="629" y="716"/>
      <point x="575" y="716" type="curve" smooth="yes"/>
      <point x="479" y="716"/>
      <point x="432" y="679"/>
      <point x="375" y="580" type="curve" smooth="yes"/>
      <point x="255" y="371" type="line"/>
      <point x="445" y="0" type="line"/>
      <point x="679" y="0" type="line"/>
      <point x="464" y="387" type="line"/>
      <point x="547" y="526" type="line" smooth="yes"/>
    </contour>
  </outline>
</glyph>
<glyph name="uni0199" format="1">
  <advance width="576"/>
  <unicode hex="0199"/>
  <outline>
    <contour>
      <point x="387" y="534" type="line"/>
      <point x="244" y="292" type="line"/>
      <point x="372" y="0" type="line"/>
      <point x="591" y="0" type="line"/>
      <point x="442" y="300" type="line"/>
      <point x="583" y="534" type="line"/>
    </contour>
    <contour>
      <point x="42" y="534" type="line"/>
      <point x="42" y="0" type="line"/>
      <point x="240" y="0" type="line"/>
      <point x="240" y="554" type="line"/>
    </contour>
    <component base="hookaboveHELPER" xOffset="12"/>
  </outline>
</glyph>
<glyph name="uni019B" format="1">
  <advance width="553"/>
  <unicode hex="019B"/>
  <outline>
    <contour>
      <point x="269" y="350" type="line"/>
      <point x="296" y="186"/>
      <point x="320" y="88"/>
      <point x="380" y="-20" type="curve"/>
      <point x="573" y="40" type="line"/>
      <point x="502" y="142"/>
      <point x="473" y="252"/>
      <point x="427" y="447" type="curve" smooth="yes"/>
      <point x="369" y="694"/>
      <point x="266" y="738"/>
      <point x="80" y="762" type="curve"/>
      <point x="58" y="641" type="line"/>
      <point x="189" y="627"/>
      <point x="220" y="600"/>
      <point x="250" y="484" type="curve"/>
      <point x="154" y="484" type="line"/>
      <point x="0" y="24" type="line"/>
      <point x="197" y="-20" type="line"/>
    </contour>
    <contour>
      <point x="241" y="555" type="line"/>
      <point x="342" y="627" type="line"/>
      <point x="411" y="676" type="line"/>
      <point x="340" y="767" type="line"/>
      <point x="240" y="693" type="line"/>
      <point x="142" y="623" type="line"/>
      <point x="77" y="574" type="line"/>
      <point x="177" y="509" type="line"/>
    </contour>
  </outline>
</glyph>
<glyph name="uni019C" format="1">
  <advance width="904"/>
  <unicode hex="019C"/>
  <outline>
    <contour>
      <point x="579" y="-20"/>
      <point x="625" y="7"/>
      <point x="679" y="70" type="curve"/>
      <point x="655" y="182" type="line"/>
      <point x="632" y="146"/>
      <point x="613" y="129"/>
      <point x="588" y="129" type="curve" smooth="yes"/>
      <point x="564" y="129"/>
      <point x="550" y="149"/>
      <point x="550" y="181" type="curve" smooth="yes"/>
      <point x="550" y="696" type="line"/>
      <point x="344" y="696" type="line"/>
      <point x="344" y="170" type="line" smooth="yes"/>
      <point x="344" y="58"/>
      <point x="406" y="-20"/>
      <point x="511" y="-20" type="curve" smooth="yes"/>
    </contour>
    <contour>
      <point x="861" y="0" type="line"/>
      <point x="861" y="696" type="line"/>
      <point x="655" y="696" type="line"/>
      <point x="655" y="99" type="line"/>
      <point x="680" y="0" type="line"/>
    </contour>
    <contour>
      <point x="268" y="-20"/>
      <point x="314" y="7"/>
      <point x="368" y="70" type="curve"/>
      <point x="344" y="182" type="line"/>
      <point x="321" y="156"/>
      <point x="301" y="129"/>
      <point x="278" y="129" type="curve" smooth="yes"/>
      <point x="253" y="129"/>
      <point x="239" y="149"/>
      <point x="239" y="181" type="curve" smooth="yes"/>
      <point x="239" y="696" type="line"/>
      <point x="33" y="696" type="line"/>
      <point x="33" y="170" type="line" smooth="yes"/>
      <point x="33" y="58"/>
      <point x="95" y="-20"/>
      <point x="200" y="-20" type="curve" smooth="yes"/>
    </contour>
  </outline>
</glyph>
<glyph name="uni019D" format="1">
  <advance width="651"/>
  <unicode hex="019D"/>
  <outline>
    <contour>
      <point x="140" y="-227"/>
      <point x="225" y="-157"/>
      <point x="225" y="-16" type="curve" smooth="yes"/>
      <point x="225" y="1" type="line"/>
      <point x="43" y="1" type="line"/>
      <point x="43" y="-34" type="line" smooth="yes"/>
      <point x="43" y="-69"/>
      <point x="24" y="-87"/>
      <point x="-9" y="-87" type="curve" smooth="yes"/>
      <point x="-37" y="-87"/>
      <point x="-53" y="-79"/>
      <point x="-77" y="-67" type="curve"/>
      <point x="-141" y="-182" type="line"/>
      <point x="-105" y="-208"/>
      <point x="-56" y="-227"/>
      <point x="16" y="-227" type="curve" smooth="yes"/>
    </contour>
    <component base="N"/>
  </outline>
</glyph>
<glyph name="uni019E" format="1">
  <advance width="572"/>
  <unicode hex="019E"/>
  <outline>
    <contour>
      <point x="337" y="1" type="line"/>
      <point x="337" y="-207" type="line"/>
      <point x="535" y="-227" type="line"/>
      <point x="535" y="1" type="line"/>
    </contour>
    <component base="n"/>
  </outline>
</glyph>
<glyph name="uni01A2" format="1">
  <advance width="981"/>
  <unicode hex="01A2"/>
  <outline>
    <contour>
      <point x="633" y="716"/>
      <point x="571" y="691"/>
      <point x="518" y="651" type="curve"/>
      <point x="612" y="559" type="line"/>
      <point x="636" y="571"/>
      <point x="652" y="576"/>
      <point x="680" y="576" type="curve" smooth="yes"/>
      <point x="713" y="576"/>
      <point x="732" y="558"/>
      <point x="732" y="513" type="curve" smooth="yes"/>
      <point x="732" y="-215" type="line"/>
      <point x="938" y="-215" type="line"/>
      <point x="938" y="505" type="line" smooth="yes"/>
      <point x="938" y="646"/>
      <point x="845" y="716"/>
      <point x="710" y="716" type="curve" smooth="yes"/>
    </contour>
    <contour>
      <point x="136" y="716"/>
      <point x="20" y="575"/>
      <point x="20" y="349" type="curve" smooth="yes"/>
      <point x="20" y="118"/>
      <point x="136" y="-20"/>
      <point x="345" y="-20" type="curve" smooth="yes"/>
      <point x="554" y="-20"/>
      <point x="670" y="123"/>
      <point x="670" y="349" type="curve" smooth="yes"/>
      <point x="670" y="580"/>
      <point x="541" y="716"/>
      <point x="345" y="716" type="curve" smooth="yes"/>
    </contour>
    <contour>
      <point x="423" y="570"/>
      <point x="456" y="510"/>
      <point x="456" y="349" type="curve" smooth="yes"/>
      <point x="456" y="188"/>
      <point x="425" y="126"/>
      <point x="345" y="126" type="curve" smooth="yes"/>
      <point x="267" y="126"/>
      <point x="234" y="188"/>
      <point x="234" y="349" type="curve" smooth="yes"/>
      <point x="234" y="510"/>
      <point x="267" y="570"/>
      <point x="345" y="570" type="curve" smooth="yes"/>
    </contour>
  </outline>
</glyph>
<glyph name="uni01A3" format="1">
  <advance width="852"/>
  <unicode hex="01A3"/>
  <outline>
    <contour>
      <point x="810" y="-227" type="line"/>
      <point x="810" y="343" type="line" smooth="yes"/>
      <point x="810" y="484"/>
      <point x="722" y="554"/>
      <point x="595" y="554" type="curve" smooth="yes"/>
      <point x="513" y="554"/>
      <point x="464" y="535"/>
      <point x="398" y="489" type="curve"/>
      <point x="492" y="397" type="line"/>
      <point x="526" y="409"/>
      <point x="544" y="414"/>
      <point x="564" y="414" type="curve" smooth="yes"/>
      <point x="595" y="414"/>
      <point x="612" y="400"/>
      <point x="612" y="361" type="curve" smooth="yes"/>
      <point x="612" y="-207" type="line"/>
    </contour>
    <contour>
      <point x="122" y="554"/>
      <point x="17" y="442"/>
      <point x="17" y="268" type="curve" smooth="yes"/>
      <point x="17" y="82"/>
      <point x="124" y="-20"/>
      <point x="292" y="-20" type="curve"/>
      <point x="462" y="-20"/>
      <point x="567" y="92"/>
      <point x="567" y="266" type="curve" smooth="yes"/>
      <point x="567" y="452"/>
      <point x="451" y="554"/>
      <point x="292" y="554" type="curve"/>
    </contour>
    <contour>
      <point x="342" y="412"/>
      <point x="364" y="372"/>
      <point x="364" y="266" type="curve" smooth="yes"/>
      <point x="364" y="165"/>
      <point x="342" y="122"/>
      <point x="292" y="122" type="curve"/>
      <point x="242" y="122"/>
      <point x="220" y="162"/>
      <point x="220" y="268" type="curve" smooth="yes"/>
      <point x="220" y="369"/>
      <point x="242" y="412"/>
      <point x="292" y="412" type="curve"/>
    </contour>
  </outline>
</glyph>
<glyph name="uni01A5" format="1">
  <advance width="599"/>
  <unicode hex="01A5"/>
  <outline>
    <contour>
      <point x="326" y="554"/>
      <point x="261" y="534"/>
      <point x="213" y="455" type="curve"/>
      <point x="229" y="340" type="line"/>
      <point x="251" y="392"/>
      <point x="280" y="412"/>
      <point x="306" y="412" type="curve" smooth="yes"/>
      <point x="346" y="412"/>
      <point x="374" y="395"/>
      <point x="374" y="266" type="curve" smooth="yes"/>
      <point x="374" y="158"/>
      <point x="343" y="121"/>
      <point x="299" y="121" type="curve" smooth="yes"/>
      <point x="270" y="121"/>
      <point x="251" y="136"/>
      <point x="228" y="178" type="curve"/>
      <point x="229" y="47" type="line"/>
      <point x="262" y="2"/>
      <point x="308" y="-20"/>
      <point x="364" y="-20" type="curve" smooth="yes"/>
      <point x="492" y="-20"/>
      <point x="577" y="103"/>
      <point x="577" y="269" type="curve" smooth="yes"/>
      <point x="577" y="445"/>
      <point x="513" y="554"/>
      <point x="373" y="554" type="curve" smooth="yes"/>
    </contour>
    <contour>
      <point x="42" y="534" type="line"/>
      <point x="42" y="-227" type="line"/>
      <point x="240" y="-207" type="line"/>
      <point x="240" y="378" type="line"/>
      <point x="240" y="534" type="line"/>
    </contour>
    <component base="hookaboveHELPER" xOffset="12"/>
    <contour>
      <point x="300" y="744" type="move" name="top"/>
    </contour>
    <contour>
      <point x="300" y="-215" type="move" name="bottom"/>
    </contour>
  </outline>
</glyph>
<glyph name="yr" format="1">
  <advance width="624"/>
  <unicode hex="01A6"/>
  <outline>
    <contour>
      <point x="43" y="696" type="line"/>
      <point x="43" y="0" type="line"/>
      <point x="249" y="0" type="line"/>
      <point x="249" y="696" type="line"/>
    </contour>
    <contour>
      <point x="280" y="152" type="line"/>
      <point x="416" y="-110" type="line"/>
      <point x="644" y="-110" type="line"/>
      <point x="466" y="190" type="line"/>
    </contour>
    <contour>
      <point x="233" y="445" type="line"/>
      <point x="293" y="445" type="line" smooth="yes"/>
      <point x="354" y="445"/>
      <point x="387" y="420"/>
      <point x="387" y="365" type="curve" smooth="yes"/>
      <point x="387" y="304"/>
      <point x="359" y="276"/>
      <point x="303" y="276" type="curve" smooth="yes"/>
      <point x="233" y="276" type="line"/>
      <point x="233" y="138" type="line"/>
      <point x="401" y="138" type="line"/>
      <point x="537" y="201"/>
      <point x="597" y="255"/>
      <point x="597" y="365" type="curve" smooth="yes"/>
      <point x="597" y="518"/>
      <point x="497" y="586"/>
      <point x="298" y="586" type="curve" smooth="yes"/>
      <point x="233" y="586" type="line"/>
    </contour>
  </outline>
</glyph>
<glyph name="uni01A7" format="1">
  <advance width="578"/>
  <unicode hex="01A7"/>
  <outline>
    <contour>
      <point x="192" y="716"/>
      <point x="105" y="682"/>
      <point x="37" y="621" type="curve"/>
      <point x="128" y="514" type="line"/>
      <point x="174" y="551"/>
      <point x="222" y="570"/>
      <point x="282" y="570" type="curve" smooth="yes"/>
      <point x="327" y="570"/>
      <point x="352" y="551"/>
      <point x="352" y="520" type="curve" smooth="yes"/>
      <point x="352" y="483"/>
      <point x="321" y="464"/>
      <point x="222" y="432" type="curve" smooth="yes"/>
      <point x="79" y="386"/>
      <point x="15" y="326"/>
      <point x="15" y="208" type="curve" smooth="yes"/>
      <point x="15" y="74"/>
      <point x="125" y="-20"/>
      <point x="293" y="-20" type="curve" smooth="yes"/>
      <point x="431" y="-20"/>
      <point x="521" y="30"/>
      <point x="578" y="85" type="curve"/>
      <point x="477" y="196" type="line"/>
      <point x="427" y="156"/>
      <point x="371" y="131"/>
      <point x="311" y="131" type="curve" smooth="yes"/>
      <point x="256" y="131"/>
      <point x="229" y="157"/>
      <point x="229" y="193" type="curve" smooth="yes"/>
      <point x="229" y="231"/>
      <point x="251" y="259"/>
      <point x="342" y="287" type="curve" smooth="yes"/>
      <point x="504" y="337"/>
      <point x="564" y="402"/>
      <point x="564" y="507" type="curve" smooth="yes"/>
      <point x="564" y="633"/>
      <point x="458" y="716"/>
      <point x="304" y="716" type="curve" smooth="yes"/>
    </contour>
  </outline>
</glyph>
<glyph name="uni01A8" format="1">
  <advance width="484"/>
  <unicode hex="01A8"/>
  <outline>
    <contour>
      <point x="163" y="554"/>
      <point x="90" y="527"/>
      <point x="32" y="485" type="curve"/>
      <point x="102" y="378" type="line"/>
      <point x="140" y="402"/>
      <point x="186" y="417"/>
      <point x="230" y="417" type="curve" smooth="yes"/>
      <point x="262" y="417"/>
      <point x="274" y="406"/>
      <point x="274" y="391" type="curve" smooth="yes"/>
      <point x="274" y="370"/>
      <point x="266" y="359"/>
      <point x="171" y="330" type="curve" smooth="yes"/>
      <point x="70" y="299"/>
      <point x="10" y="258"/>
      <point x="10" y="160" type="curve" smooth="yes"/>
      <point x="10" y="54"/>
      <point x="108" y="-20"/>
      <point x="254" y="-20" type="curve" smooth="yes"/>
      <point x="348" y="-20"/>
      <point x="434" y="13"/>
      <point x="489" y="65" type="curve"/>
      <point x="395" y="169" type="line"/>
      <point x="357" y="139"/>
      <point x="308" y="116"/>
      <point x="263" y="116" type="curve" smooth="yes"/>
      <point x="233" y="116"/>
      <point x="212" y="127"/>
      <point x="212" y="151" type="curve" smooth="yes"/>
      <point x="212" y="175"/>
      <point x="222" y="187"/>
      <point x="310" y="214" type="curve" smooth="yes"/>
      <point x="410" y="245"/>
      <point x="470" y="286"/>
      <point x="470" y="379" type="curve" smooth="yes"/>
      <point x="470" y="477"/>
      <point x="390" y="554"/>
      <point x="251" y="554" type="curve" smooth="yes"/>
    </contour>
  </outline>
</glyph>
<glyph name="uni01AA" format="1">
  <advance width="488"/>
  <unicode hex="01AA"/>
  <outline>
    <contour>
      <point x="56" y="764"/>
      <point x="-20" y="680"/>
      <point x="-20" y="572" type="curve" smooth="yes"/>
      <point x="-20" y="462"/>
      <point x="51" y="383"/>
      <point x="158" y="383" type="curve" smooth="yes"/>
      <point x="226" y="383"/>
      <point x="263" y="420"/>
      <point x="298" y="440" type="curve"/>
      <point x="256" y="532" type="line"/>
      <point x="233" y="521"/>
      <point x="214" y="515"/>
      <point x="192" y="515" type="curve" smooth="yes"/>
      <point x="161" y="515"/>
      <point x="144" y="532"/>
      <point x="144" y="575" type="curve" smooth="yes"/>
      <point x="144" y="614"/>
      <point x="158" y="632"/>
      <point x="184" y="632" type="curve" smooth="yes"/>
      <point x="209" y="632"/>
      <point x="220" y="616"/>
      <point x="220" y="586" type="curve" smooth="yes"/>
      <point x="220" y="0" type="line"/>
      <point x="418" y="0" type="line"/>
      <point x="418" y="555" type="line" smooth="yes"/>
      <point x="418" y="675"/>
      <point x="339" y="764"/>
      <point x="193" y="764" type="curve" smooth="yes"/>
    </contour>
    <component base="hookHELPER" xOffset="622" xScale="-1"/>
    <contour>
      <point x="244" y="744" type="move" name="top"/>
    </contour>
    <contour>
      <point x="244" y="-215" type="move" name="bottom"/>
    </contour>
  </outline>
</glyph>
<glyph name="uni01AB" format="1">
  <advance width="401"/>
  <unicode hex="01AB"/>
  <outline>
    <contour>
      <point x="334" y="-226"/>
      <point x="416" y="-156"/>
      <point x="416" y="-15" type="curve" smooth="yes"/>
      <point x="416" y="26" type="line"/>
      <point x="248" y="1" type="line"/>
      <point x="248" y="-33" type="line" smooth="yes"/>
      <point x="248" y="-70"/>
      <point x="224" y="-86"/>
      <point x="184" y="-86" type="curve" smooth="yes"/>
      <point x="147" y="-86"/>
      <point x="124" y="-78"/>
      <point x="98" y="-66" type="curve"/>
      <point x="34" y="-181" type="line"/>
      <point x="70" y="-207"/>
      <point x="127" y="-226"/>
      <point x="197" y="-226" type="curve" smooth="yes"/>
    </contour>
    <contour>
      <point x="62" y="646" type="line"/>
      <point x="62" y="197" type="line" smooth="yes"/>
      <point x="62" y="56"/>
      <point x="122" y="-19"/>
      <point x="256" y="-20" type="curve" smooth="yes"/>
      <point x="274" y="-20"/>
      <point x="300" y="-12"/>
      <point x="316" y="-4" type="curve"/>
      <point x="352" y="3"/>
      <point x="388" y="6"/>
      <point x="416" y="26" type="curve"/>
      <point x="361" y="132" type="line"/>
      <point x="340" y="127"/>
      <point x="327" y="125"/>
      <point x="310" y="125" type="curve" smooth="yes"/>
      <point x="278" y="125"/>
      <point x="260" y="139"/>
      <point x="260" y="183" type="curve" smooth="yes"/>
      <point x="260" y="669" type="line"/>
    </contour>
    <contour>
      <point x="-2" y="534" type="line"/>
      <point x="-2" y="400" type="line"/>
      <point x="360" y="400" type="line"/>
      <point x="380" y="534" type="line"/>
    </contour>
  </outline>
</glyph>
<glyph name="uni01AC" format="1">
  <advance width="619"/>
  <unicode hex="01AC"/>
  <outline>
    <contour>
      <point x="215" y="696" type="line"/>
      <point x="205" y="542" type="line"/>
      <point x="239" y="542" type="line"/>
      <point x="239" y="0" type="line"/>
      <point x="445" y="0" type="line"/>
      <point x="445" y="542" type="line"/>
      <point x="603" y="542" type="line"/>
      <point x="624" y="696" type="line"/>
    </contour>
    <contour>
      <point x="0" y="483"/>
      <point x="17" y="438"/>
      <point x="37" y="403" type="curve"/>
      <point x="167" y="455" type="line"/>
      <point x="160" y="472"/>
      <point x="154" y="486"/>
      <point x="154" y="506" type="curve" smooth="yes"/>
      <point x="154" y="529"/>
      <point x="169" y="542"/>
      <point x="195" y="542" type="curve" smooth="yes"/>
      <point x="236" y="542" type="line"/>
      <point x="221" y="696" type="line"/>
      <point x="216" y="696" type="line" smooth="yes"/>
      <point x="85" y="696"/>
      <point x="0" y="636"/>
      <point x="0" y="530" type="curve" smooth="yes"/>
    </contour>
  </outline>
</glyph>
<glyph name="uni01AD" format="1">
  <advance width="401"/>
  <unicode hex="01AD"/>
  <outline>
    <contour>
      <point x="306" y="-20"/>
      <point x="372" y="-5"/>
      <point x="416" y="26" type="curve"/>
      <point x="352" y="149" type="line"/>
      <point x="334" y="139"/>
      <point x="317" y="135"/>
      <point x="302" y="135" type="curve" smooth="yes"/>
      <point x="277" y="135"/>
      <point x="260" y="149"/>
      <point x="260" y="199" type="curve" smooth="yes"/>
      <point x="260" y="553" type="line"/>
      <point x="62" y="550" type="line"/>
      <point x="62" y="197" type="line" smooth="yes"/>
      <point x="62" y="56"/>
      <point x="122" y="-19"/>
      <point x="256" y="-20" type="curve" smooth="yes"/>
    </contour>
    <contour>
      <point x="360" y="400" type="line"/>
      <point x="380" y="534" type="line"/>
      <point x="-2" y="534" type="line"/>
      <point x="-2" y="400" type="line"/>
    </contour>
    <contour>
      <point x="260" y="533" type="line"/>
      <point x="260" y="578" type="line" smooth="yes"/>
      <point x="260" y="615"/>
      <point x="273" y="632"/>
      <point x="301" y="632" type="curve" smooth="yes"/>
      <point x="320" y="632"/>
      <point x="339" y="626"/>
      <point x="362" y="615" type="curve"/>
      <point x="414" y="727" type="line"/>
      <point x="379" y="747"/>
      <point x="332" y="764"/>
      <point x="270" y="764" type="curve" smooth="yes"/>
      <point x="130" y="764"/>
      <point x="62" y="675"/>
      <point x="62" y="565" type="curve" smooth="yes"/>
      <point x="62" y="533" type="line"/>
    </contour>
  </outline>
</glyph>
<glyph name="uni01B1" format="1">
  <advance width="690"/>
  <unicode hex="01B1"/>
  <outline>
    <contour>
      <point x="554" y="-20"/>
      <point x="670" y="124"/>
      <point x="670" y="294" type="curve" smooth="yes"/>
      <point x="670" y="419"/>
      <point x="620" y="502"/>
      <point x="537" y="554" type="curve"/>
      <point x="649" y="554" type="line"/>
      <point x="649" y="696" type="line"/>
      <point x="393" y="696" type="line"/>
      <point x="393" y="564" type="line"/>
      <point x="434" y="502"/>
      <point x="456" y="440"/>
      <point x="456" y="294" type="curve" smooth="yes"/>
      <point x="456" y="186"/>
      <point x="423" y="126"/>
      <point x="345" y="126" type="curve" smooth="yes"/>
      <point x="267" y="126"/>
      <point x="234" y="186"/>
      <point x="234" y="294" type="curve" smooth="yes"/>
      <point x="234" y="440"/>
      <point x="256" y="502"/>
      <point x="297" y="564" type="curve"/>
      <point x="297" y="696" type="line"/>
      <point x="41" y="696" type="line"/>
      <point x="41" y="554" type="line"/>
      <point x="153" y="554" type="line"/>
      <point x="71" y="502"/>
      <point x="20" y="419"/>
      <point x="20" y="294" type="curve" smooth="yes"/>
      <point x="20" y="124"/>
      <point x="136" y="-20"/>
      <point x="345" y="-20" type="curve" smooth="yes"/>
    </contour>
    <contour>
      <point x="345" y="696" type="move" name="top"/>
    </contour>
    <contour>
      <point x="345" y="0" type="move" name="bottom"/>
    </contour>
  </outline>
</glyph>
<glyph name="uni01B2" format="1">
  <advance width="636"/>
  <unicode hex="01B2"/>
  <outline>
    <contour>
      <point x="405" y="539" type="line"/>
      <point x="405" y="279" type="line" smooth="yes"/>
      <point x="405" y="165"/>
      <point x="361" y="128"/>
      <point x="307" y="128" type="curve" smooth="yes"/>
      <point x="262" y="128"/>
      <point x="239" y="161"/>
      <point x="239" y="214" type="curve" smooth="yes"/>
      <point x="239" y="696" type="line"/>
      <point x="33" y="696" type="line"/>
      <point x="33" y="216" type="line" smooth="yes"/>
      <point x="33" y="79"/>
      <point x="132" y="-20"/>
      <point x="300" y="-20" type="curve" smooth="yes"/>
      <point x="486" y="-20"/>
      <point x="611" y="90"/>
      <point x="611" y="286" type="curve" smooth="yes"/>
      <point x="611" y="526" type="line"/>
    </contour>
    <contour>
      <point x="611" y="526" type="line"/>
      <point x="611" y="658"/>
      <point x="547" y="716"/>
      <point x="438" y="716" type="curve" smooth="yes"/>
      <point x="393" y="716"/>
      <point x="361" y="710"/>
      <point x="331" y="699" type="curve"/>
      <point x="358" y="568" type="line"/>
      <point x="365" y="570"/>
      <point x="372" y="571"/>
      <point x="379" y="571" type="curve" smooth="yes"/>
      <point x="396" y="571"/>
      <point x="405" y="562"/>
      <point x="405" y="539" type="curve"/>
    </contour>
    <contour>
      <point x="308" y="696" type="move" name="top"/>
    </contour>
    <contour>
      <point x="308" y="0" type="move" name="bottom"/>
    </contour>
  </outline>
</glyph>
<glyph name="uni01B3" format="1">
  <advance width="661"/>
  <unicode hex="01B3"/>
  <outline>
    <contour>
      <point x="413" y="0" type="line"/>
      <point x="413" y="257" type="line"/>
      <point x="531" y="527" type="line" smooth="yes"/>
      <point x="546" y="562"/>
      <point x="561" y="574"/>
      <point x="591" y="574" type="curve" smooth="yes"/>
      <point x="614" y="574"/>
      <point x="627" y="569"/>
      <point x="640" y="562" type="curve"/>
      <point x="691" y="681" type="line"/>
      <point x="657" y="701"/>
      <point x="621" y="716"/>
      <point x="558" y="716" type="curve" smooth="yes"/>
      <point x="451" y="716"/>
      <point x="396" y="671"/>
      <point x="358" y="553" type="curve" smooth="yes"/>
      <point x="313" y="412" type="line"/>
      <point x="210" y="696" type="line"/>
      <point x="-15" y="696" type="line"/>
      <point x="207" y="256" type="line"/>
      <point x="207" y="0" type="line"/>
    </contour>
    <contour>
      <point x="-5" y="696" type="move" name="topleft"/>
    </contour>
  </outline>
</glyph>
<glyph name="uni01B4" format="1">
  <advance width="542"/>
  <unicode hex="01B4"/>
  <outline>
    <contour>
      <point x="232" y="-223"/>
      <point x="359" y="-155"/>
      <point x="400" y="38" type="curve" smooth="yes"/>
      <point x="479" y="411" type="line" smooth="yes"/>
      <point x="486" y="443"/>
      <point x="501" y="450"/>
      <point x="521" y="450" type="curve" smooth="yes"/>
      <point x="530" y="450"/>
      <point x="538" y="448"/>
      <point x="544" y="446" type="curve"/>
      <point x="573" y="577" type="line"/>
      <point x="546" y="585"/>
      <point x="519" y="590"/>
      <point x="482" y="590" type="curve" smooth="yes"/>
      <point x="376" y="590"/>
      <point x="334" y="533"/>
      <point x="314" y="420" type="curve" smooth="yes"/>
      <point x="262" y="121" type="line"/>
      <point x="195" y="534" type="line"/>
      <point x="-15" y="534" type="line"/>
      <point x="137" y="0" type="line"/>
      <point x="205" y="0" type="line"/>
      <point x="177" y="-60"/>
      <point x="134" y="-83"/>
      <point x="32" y="-93" type="curve"/>
      <point x="53" y="-228" type="line"/>
    </contour>
  </outline>
</glyph>
<glyph name="uni01B5" format="1">
  <advance width="557"/>
  <unicode hex="01B5"/>
  <outline>
    <contour>
      <point x="38" y="696" type="line"/>
      <point x="38" y="540" type="line"/>
      <point x="316" y="540" type="line"/>
      <point x="10" y="141" type="line"/>
      <point x="10" y="0" type="line"/>
      <point x="522" y="0" type="line"/>
      <point x="542" y="161" type="line"/>
      <point x="236" y="161" type="line"/>
      <point x="533" y="553" type="line"/>
      <point x="533" y="696" type="line"/>
    </contour>
    <component base="hyphen" xOffset="1" yOffset="97" xScale="1.3" yScale="0.8"/>
  </outline>
</glyph>
<glyph name="uni01B6" format="1">
  <advance width="472"/>
  <unicode hex="01B6"/>
  <outline>
    <contour>
      <point x="25" y="534" type="line"/>
      <point x="25" y="400" type="line"/>
      <point x="237" y="400" type="line"/>
      <point x="5" y="128" type="line"/>
      <point x="5" y="0" type="line"/>
      <point x="445" y="0" type="line"/>
      <point x="462" y="136" type="line"/>
      <point x="226" y="136" type="line"/>
      <point x="455" y="407" type="line"/>
      <point x="455" y="534" type="line"/>
    </contour>
    <component base="hyphen" xOffset="-14" yOffset="59" xScale="1.2" yScale="0.7"/>
  </outline>
</glyph>
<glyph name="uni01B7" format="1">
  <advance width="565"/>
  <unicode hex="01B7"/>
  <outline>
    <contour>
      <point x="445" y="-20"/>
      <point x="550" y="84"/>
      <point x="550" y="210" type="curve" smooth="yes"/>
      <point x="550" y="333"/>
      <point x="467" y="407"/>
      <point x="325" y="407" type="curve"/>
      <point x="305" y="407" type="line"/>
      <point x="127" y="296" type="line"/>
      <point x="233" y="296" type="line" smooth="yes"/>
      <point x="292" y="296"/>
      <point x="338" y="275"/>
      <point x="338" y="219" type="curve" smooth="yes"/>
      <point x="338" y="159"/>
      <point x="298" y="128"/>
      <point x="242" y="128" type="curve" smooth="yes"/>
      <point x="186" y="128"/>
      <point x="149" y="147"/>
      <point x="102" y="189" type="curve"/>
      <point x="0" y="90" type="line"/>
      <point x="56" y="24"/>
      <point x="134" y="-20"/>
      <point x="254" y="-20" type="curve" smooth="yes"/>
    </contour>
    <contour>
      <point x="127" y="296" type="line"/>
      <point x="280" y="336" type="line"/>
      <point x="508" y="557" type="line"/>
      <point x="508" y="696" type="line"/>
      <point x="45" y="696" type="line"/>
      <point x="45" y="552" type="line"/>
      <point x="285" y="552" type="line"/>
      <point x="127" y="403" type="line"/>
    </contour>
    <contour>
      <point x="277" y="696" type="move" name="top"/>
    </contour>
    <contour>
      <point x="283" y="0" type="move" name="bottom"/>
    </contour>
  </outline>
</glyph>
<glyph name="uni01B8" format="1">
  <advance width="565"/>
  <unicode hex="01B8"/>
  <outline>
    <contour>
      <point x="429" y="-20"/>
      <point x="507" y="24"/>
      <point x="565" y="90" type="curve"/>
      <point x="463" y="189" type="line"/>
      <point x="416" y="147"/>
      <point x="375" y="128"/>
      <point x="317" y="128" type="curve" smooth="yes"/>
      <point x="263" y="128"/>
      <point x="227" y="159"/>
      <point x="227" y="213" type="curve" smooth="yes"/>
      <point x="227" y="266"/>
      <point x="267" y="296"/>
      <point x="332" y="296" type="curve" smooth="yes"/>
      <point x="438" y="296" type="line"/>
      <point x="260" y="407" type="line"/>
      <point x="240" y="407" type="line"/>
      <point x="107" y="407"/>
      <point x="15" y="328"/>
      <point x="15" y="210" type="curve" smooth="yes"/>
      <point x="15" y="79"/>
      <point x="120" y="-20"/>
      <point x="304" y="-20" type="curve" smooth="yes"/>
    </contour>
    <contour>
      <point x="283" y="552" type="line"/>
      <point x="520" y="552" type="line"/>
      <point x="520" y="696" type="line"/>
      <point x="57" y="696" type="line"/>
      <point x="57" y="557" type="line"/>
      <point x="285" y="336" type="line"/>
      <point x="438" y="296" type="line"/>
      <point x="438" y="400" type="line"/>
    </contour>
  </outline>
</glyph>
<glyph name="uni01B9" format="1">
  <advance width="527"/>
  <unicode hex="01B9"/>
  <outline>
    <contour>
      <point x="413" y="-227"/>
      <point x="493" y="-183"/>
      <point x="547" y="-117" type="curve"/>
      <point x="448" y="-20" type="line"/>
      <point x="398" y="-62"/>
      <point x="360" y="-79"/>
      <point x="309" y="-79" type="curve" smooth="yes"/>
      <point x="255" y="-79"/>
      <point x="212" y="-48"/>
      <point x="212" y="21" type="curve" smooth="yes"/>
      <point x="212" y="83"/>
      <point x="253" y="109"/>
      <point x="319" y="109" type="curve" smooth="yes"/>
      <point x="420" y="109" type="line"/>
      <point x="250" y="217" type="line"/>
      <point x="230" y="217" type="line"/>
      <point x="93" y="207"/>
      <point x="10" y="139"/>
      <point x="10" y="8" type="curve" smooth="yes"/>
      <point x="10" y="-122"/>
      <point x="113" y="-227"/>
      <point x="295" y="-227" type="curve" smooth="yes"/>
    </contour>
    <contour>
      <point x="266" y="390" type="line"/>
      <point x="502" y="390" type="line"/>
      <point x="502" y="534" type="line"/>
      <point x="47" y="534" type="line"/>
      <point x="47" y="402" type="line"/>
      <point x="272" y="149" type="line"/>
      <point x="420" y="109" type="line"/>
      <point x="420" y="211" type="line"/>
    </contour>
    <contour>
      <point x="264" y="534" type="move" name="top"/>
    </contour>
    <contour>
      <point x="264" y="-215" type="move" name="bottom"/>
    </contour>
  </outline>
</glyph>
<glyph name="uni01BA" format="1">
  <advance width="532"/>
  <unicode hex="01BA"/>
  <outline>
    <contour>
      <point x="243" y="-123" type="line"/>
      <point x="219" y="-114"/>
      <point x="205" y="-104"/>
      <point x="205" y="-91" type="curve" smooth="yes"/>
      <point x="205" y="-74"/>
      <point x="221" y="-62"/>
      <point x="314" y="-43" type="curve" smooth="yes"/>
      <point x="419" y="-22"/>
      <point x="512" y="18"/>
      <point x="512" y="134" type="curve" smooth="yes"/>
      <point x="512" y="224"/>
      <point x="448" y="285"/>
      <point x="332" y="285" type="curve"/>
      <point x="323" y="285" type="line"/>
      <point x="475" y="412" type="line"/>
      <point x="475" y="534" type="line"/>
      <point x="20" y="534" type="line"/>
      <point x="20" y="400" type="line"/>
      <point x="247" y="400" type="line"/>
      <point x="112" y="276" type="line"/>
      <point x="112" y="179" type="line"/>
      <point x="233" y="179" type="line" smooth="yes"/>
      <point x="289" y="179"/>
      <point x="310" y="168"/>
      <point x="310" y="141" type="curve" smooth="yes"/>
      <point x="310" y="111"/>
      <point x="282" y="97"/>
      <point x="202" y="79" type="curve" smooth="yes"/>
      <point x="85" y="53"/>
      <point x="27" y="12"/>
      <point x="27" y="-67" type="curve" smooth="yes"/>
      <point x="27" y="-147"/>
      <point x="101" y="-201"/>
      <point x="203" y="-227" type="curve"/>
    </contour>
    <contour>
      <point x="248" y="534" type="move" name="top"/>
    </contour>
  </outline>
</glyph>
<glyph name="uni01BD" format="1">
  <advance width="496"/>
  <unicode hex="01BD"/>
  <outline>
    <contour>
      <point x="56" y="534" type="line"/>
      <point x="56" y="214" type="line"/>
      <point x="183" y="214" type="line"/>
      <point x="200" y="220"/>
      <point x="216" y="225"/>
      <point x="235" y="225" type="curve" smooth="yes"/>
      <point x="262" y="225"/>
      <point x="282" y="210"/>
      <point x="282" y="176" type="curve" smooth="yes"/>
      <point x="282" y="142"/>
      <point x="261" y="122"/>
      <point x="224" y="122" type="curve" smooth="yes"/>
      <point x="178" y="122"/>
      <point x="152" y="137"/>
      <point x="108" y="170" type="curve"/>
      <point x="10" y="67" type="line"/>
      <point x="69" y="15"/>
      <point x="124" y="-20"/>
      <point x="232" y="-20" type="curve" smooth="yes"/>
      <point x="374" y="-20"/>
      <point x="476" y="57"/>
      <point x="476" y="175" type="curve" smooth="yes"/>
      <point x="476" y="290"/>
      <point x="394" y="349"/>
      <point x="302" y="349" type="curve" smooth="yes"/>
      <point x="269" y="349"/>
      <point x="244" y="345"/>
      <point x="226" y="338" type="curve"/>
      <point x="226" y="395" type="line"/>
      <point x="416" y="395" type="line"/>
      <point x="442" y="534" type="line"/>
    </contour>
    <contour>
      <point x="248" y="534" type="move" name="top"/>
    </contour>
    <contour>
      <point x="248" y="0" type="move" name="bottom"/>
    </contour>
  </outline>
</glyph>
<glyph name="uni01BE" format="1">
  <advance width="512"/>
  <unicode hex="01BE"/>
  <outline>
    <contour>
      <point x="63" y="520" type="line"/>
      <point x="130" y="520" type="line"/>
      <point x="417" y="520" type="line"/>
      <point x="417" y="626" type="line"/>
      <point x="63" y="626" type="line"/>
    </contour>
    <component base="uni0296"/>
  </outline>
</glyph>
<glyph name="uni01BF" format="1">
  <advance width="594"/>
  <unicode hex="01BF"/>
  <outline>
    <contour>
      <point x="42" y="534" type="line"/>
      <point x="42" y="-227" type="line"/>
      <point x="240" y="-207" type="line"/>
      <point x="240" y="383" type="line"/>
      <point x="228" y="466" type="line"/>
      <point x="218" y="534" type="line"/>
    </contour>
    <contour>
      <point x="230" y="371" type="line"/>
      <point x="254" y="397"/>
      <point x="282" y="416"/>
      <point x="320" y="416" type="curve" smooth="yes"/>
      <point x="355" y="416"/>
      <point x="374" y="393"/>
      <point x="374" y="348" type="curve" smooth="yes"/>
      <point x="374" y="260"/>
      <point x="330" y="190"/>
      <point x="265" y="140" type="curve" smooth="yes"/>
      <point x="233" y="115" type="line"/>
      <point x="233" y="-20" type="line"/>
      <point x="301" y="12" type="line" smooth="yes"/>
      <point x="456" y="86"/>
      <point x="577" y="162"/>
      <point x="577" y="351" type="curve" smooth="yes"/>
      <point x="577" y="476"/>
      <point x="497" y="554"/>
      <point x="391" y="554" type="curve" smooth="yes"/>
      <point x="319" y="554"/>
      <point x="259" y="522"/>
      <point x="218" y="464" type="curve"/>
    </contour>
  </outline>
</glyph>
<glyph name="uni01C0" format="1">
  <advance width="254"/>
  <unicode hex="01C0"/>
  <outline>
    <contour>
      <point x="43" y="744" type="line"/>
      <point x="43" y="0" type="line"/>
      <point x="211" y="0" type="line"/>
      <point x="211" y="761" type="line"/>
    </contour>
  </outline>
</glyph>
<glyph name="uni01C3" format="1">
  <advance width="292"/>
  <unicode hex="01C3"/>
  <outline>
    <contour>
      <point x="62" y="744" type="line"/>
      <point x="62" y="250" type="line"/>
      <point x="230" y="250" type="line"/>
      <point x="230" y="761" type="line"/>
    </contour>
    <contour>
      <point x="89" y="186"/>
      <point x="43" y="139"/>
      <point x="43" y="83" type="curve" smooth="yes"/>
      <point x="43" y="27"/>
      <point x="89" y="-20"/>
      <point x="146" y="-20" type="curve" smooth="yes"/>
      <point x="203" y="-20"/>
      <point x="249" y="27"/>
      <point x="249" y="83" type="curve" smooth="yes"/>
      <point x="249" y="139"/>
      <point x="203" y="186"/>
      <point x="146" y="186" type="curve" smooth="yes"/>
    </contour>
  </outline>
</glyph>
<glyph name="uni01E4" format="1">
  <advance width="680"/>
  <unicode hex="01E4"/>
  <outline>
    <contour>
      <point x="170" y="716"/>
      <point x="20" y="585"/>
      <point x="20" y="349" type="curve" smooth="yes"/>
      <point x="20" y="112"/>
      <point x="122" y="-20"/>
      <point x="355" y="-20" type="curve" smooth="yes"/>
      <point x="442" y="-20"/>
      <point x="543" y="9"/>
      <point x="618" y="60" type="curve"/>
      <point x="618" y="434" type="line"/>
      <point x="331" y="434" type="line"/>
      <point x="347" y="320" type="line"/>
      <point x="440" y="320" type="line"/>
      <point x="440" y="143" type="line"/>
      <point x="398" y="132"/>
      <point x="376" y="126"/>
      <point x="349" y="126" type="curve" smooth="yes"/>
      <point x="268" y="126"/>
      <point x="232" y="176"/>
      <point x="232" y="348" type="curve" smooth="yes"/>
      <point x="232" y="501"/>
      <point x="287" y="572"/>
      <point x="383" y="572" type="curve" smooth="yes"/>
      <point x="436" y="572"/>
      <point x="472" y="554"/>
      <point x="514" y="518" type="curve"/>
      <point x="618" y="625" type="line"/>
      <point x="562" y="676"/>
      <point x="476" y="716"/>
      <point x="371" y="716" type="curve" smooth="yes"/>
    </contour>
    <component base="hyphen" xOffset="305" yOffset="14" yScale="0.7"/>
  </outline>
</glyph>
<glyph name="uni01E5" format="1">
  <advance width="570"/>
  <unicode hex="01E5"/>
  <outline>
    <contour>
      <point x="461" y="591"/>
      <point x="382" y="550"/>
      <point x="271" y="554" type="curve"/>
      <point x="119" y="554"/>
      <point x="20" y="481"/>
      <point x="20" y="353" type="curve" smooth="yes"/>
      <point x="20" y="284"/>
      <point x="47" y="236"/>
      <point x="120" y="197" type="curve"/>
      <point x="81" y="174"/>
      <point x="52" y="141"/>
      <point x="52" y="99" type="curve" smooth="yes"/>
      <point x="52" y="47"/>
      <point x="102" y="3"/>
      <point x="232" y="3" type="curve" smooth="yes"/>
      <point x="306" y="3" type="line" smooth="yes"/>
      <point x="360" y="3"/>
      <point x="393" y="-13"/>
      <point x="393" y="-48" type="curve" smooth="yes"/>
      <point x="393" y="-94"/>
      <point x="362" y="-112"/>
      <point x="272" y="-112" type="curve" smooth="yes"/>
      <point x="188" y="-112"/>
      <point x="172" y="-98"/>
      <point x="172" y="-49" type="curve"/>
      <point x="-5" y="-49" type="line"/>
      <point x="-5" y="-153"/>
      <point x="47" y="-227"/>
      <point x="266" y="-227" type="curve" smooth="yes"/>
      <point x="459" y="-227"/>
      <point x="562" y="-155"/>
      <point x="562" y="-42" type="curve" smooth="yes"/>
      <point x="562" y="56"/>
      <point x="479" y="122"/>
      <point x="345" y="122" type="curve" smooth="yes"/>
      <point x="268" y="122" type="line" smooth="yes"/>
      <point x="219" y="122"/>
      <point x="216" y="132"/>
      <point x="216" y="142" type="curve" smooth="yes"/>
      <point x="216" y="150"/>
      <point x="220" y="157"/>
      <point x="228" y="161" type="curve"/>
      <point x="246" y="158"/>
      <point x="264" y="158"/>
      <point x="285" y="158" type="curve" smooth="yes"/>
      <point x="431" y="158"/>
      <point x="522" y="233"/>
      <point x="522" y="334" type="curve" smooth="yes"/>
      <point x="522" y="408"/>
      <point x="488" y="445"/>
      <point x="418" y="474" type="curve"/>
      <point x="488" y="474"/>
      <point x="537" y="483"/>
      <point x="570" y="498" type="curve"/>
      <point x="527" y="636" type="line"/>
    </contour>
    <contour>
      <point x="318" y="426"/>
      <point x="338" y="407"/>
      <point x="338" y="360" type="curve" smooth="yes"/>
      <point x="338" y="308"/>
      <point x="317" y="284"/>
      <point x="277" y="284" type="curve" smooth="yes"/>
      <point x="243" y="284"/>
      <point x="216" y="306"/>
      <point x="216" y="357" type="curve" smooth="yes"/>
      <point x="216" y="403"/>
      <point x="242" y="426"/>
      <point x="277" y="426" type="curve" smooth="yes"/>
    </contour>
    <component base="hyphen" xOffset="235" yOffset="-178" yScale="0.4"/>
  </outline>
</glyph>
<glyph name="uni01F6" format="1">
  <advance width="940"/>
  <unicode hex="01F6"/>
  <outline>
    <contour>
      <point x="249" y="0" type="line"/>
      <point x="249" y="281" type="line"/>
      <point x="408" y="281" type="line"/>
      <point x="408" y="234" type="line"/>
      <point x="614" y="234" type="line"/>
      <point x="614" y="696" type="line"/>
      <point x="408" y="696" type="line"/>
      <point x="408" y="439" type="line"/>
      <point x="249" y="439" type="line"/>
      <point x="249" y="696" type="line"/>
      <point x="43" y="696" type="line"/>
      <point x="43" y="0" type="line"/>
    </contour>
    <contour>
      <point x="776" y="-20"/>
      <point x="915" y="54"/>
      <point x="915" y="244" type="curve" smooth="yes"/>
      <point x="915" y="359"/>
      <point x="899" y="456"/>
      <point x="884" y="534" type="curve"/>
      <point x="690" y="534" type="line"/>
      <point x="705" y="444"/>
      <point x="717" y="346"/>
      <point x="717" y="259" type="curve" smooth="yes"/>
      <point x="717" y="158"/>
      <point x="689" y="122"/>
      <point x="655" y="122" type="curve" smooth="yes"/>
      <point x="630" y="122"/>
      <point x="614" y="137"/>
      <point x="614" y="190" type="curve" smooth="yes"/>
      <point x="614" y="534" type="line"/>
      <point x="408" y="534" type="line"/>
      <point x="408" y="191" type="line" smooth="yes"/>
      <point x="408" y="39"/>
      <point x="512" y="-20"/>
      <point x="639" y="-20" type="curve" smooth="yes"/>
    </contour>
  </outline>
</glyph>
<glyph name="uni01F7" format="1">
  <advance width="611"/>
  <unicode hex="01F7"/>
  <outline>
    <contour>
      <point x="230" y="528" type="line"/>
      <point x="254" y="554"/>
      <point x="285" y="573"/>
      <point x="324" y="573" type="curve" smooth="yes"/>
      <point x="361" y="573"/>
      <point x="386" y="550"/>
      <point x="386" y="506" type="curve" smooth="yes"/>
      <point x="386" y="442"/>
      <point x="357" y="390"/>
      <point x="265" y="347" type="curve" smooth="yes"/>
      <point x="233" y="332" type="line"/>
      <point x="233" y="197" type="line"/>
      <point x="317" y="227" type="line" smooth="yes"/>
      <point x="473" y="283"/>
      <point x="596" y="349"/>
      <point x="596" y="521" type="curve" smooth="yes"/>
      <point x="596" y="638"/>
      <point x="511" y="716"/>
      <point x="406" y="716" type="curve" smooth="yes"/>
      <point x="326" y="716"/>
      <point x="259" y="684"/>
      <point x="223" y="626" type="curve"/>
    </contour>
    <contour>
      <point x="43" y="696" type="line"/>
      <point x="43" y="0" type="line"/>
      <point x="249" y="0" type="line"/>
      <point x="249" y="696" type="line"/>
    </contour>
  </outline>
</glyph>
<glyph name="uni021C" format="1">
  <advance width="530"/>
  <unicode hex="021C"/>
  <outline>
    <contour>
      <point x="140" y="716"/>
      <point x="56" y="683"/>
      <point x="-10" y="620" type="curve"/>
      <point x="82" y="520" type="line"/>
      <point x="128" y="556"/>
      <point x="170" y="572"/>
      <point x="210" y="572" type="curve" smooth="yes"/>
      <point x="265" y="572"/>
      <point x="285" y="543"/>
      <point x="285" y="501" type="curve" smooth="yes"/>
      <point x="285" y="452"/>
      <point x="256" y="426"/>
      <point x="198" y="426" type="curve" smooth="yes"/>
      <point x="140" y="426" type="line"/>
      <point x="117" y="285" type="line"/>
      <point x="194" y="285" type="line" smooth="yes"/>
      <point x="267" y="285"/>
      <point x="301" y="256"/>
      <point x="301" y="205" type="curve" smooth="yes"/>
      <point x="301" y="136"/>
      <point x="263" y="86"/>
      <point x="54" y="26" type="curve"/>
      <point x="70" y="-120" type="line"/>
      <point x="393" y="-60"/>
      <point x="515" y="62"/>
      <point x="515" y="194" type="curve" smooth="yes"/>
      <point x="515" y="296"/>
      <point x="450" y="344"/>
      <point x="329" y="357" type="curve"/>
      <point x="447" y="381"/>
      <point x="495" y="445"/>
      <point x="495" y="525" type="curve" smooth="yes"/>
      <point x="495" y="639"/>
      <point x="395" y="716"/>
      <point x="241" y="716" type="curve" smooth="yes"/>
    </contour>
  </outline>
</glyph>
<glyph name="uni021D" format="1">
  <advance width="481"/>
  <unicode hex="021D"/>
  <outline>
    <contour>
      <point x="129" y="554"/>
      <point x="57" y="533"/>
      <point x="-5" y="491" type="curve"/>
      <point x="85" y="390" type="line"/>
      <point x="119" y="411"/>
      <point x="150" y="422"/>
      <point x="190" y="422" type="curve" smooth="yes"/>
      <point x="222" y="422"/>
      <point x="240" y="407"/>
      <point x="240" y="375" type="curve" smooth="yes"/>
      <point x="240" y="340"/>
      <point x="225" y="322"/>
      <point x="185" y="322" type="curve" smooth="yes"/>
      <point x="128" y="322" type="line"/>
      <point x="117" y="202" type="line"/>
      <point x="208" y="202" type="line" smooth="yes"/>
      <point x="244" y="202"/>
      <point x="261" y="186"/>
      <point x="261" y="161" type="curve" smooth="yes"/>
      <point x="261" y="103"/>
      <point x="194" y="66"/>
      <point x="38" y="16" type="curve"/>
      <point x="55" y="-110" type="line"/>
      <point x="320" y="-60"/>
      <point x="464" y="37"/>
      <point x="464" y="153" type="curve" smooth="yes"/>
      <point x="464" y="226"/>
      <point x="413" y="266"/>
      <point x="316" y="274" type="curve"/>
      <point x="396" y="293"/>
      <point x="439" y="333"/>
      <point x="439" y="399" type="curve" smooth="yes"/>
      <point x="439" y="497"/>
      <point x="345" y="554"/>
      <point x="220" y="554" type="curve" smooth="yes"/>
    </contour>
  </outline>
</glyph>
<glyph name="uni0221" format="1">
  <advance width="819"/>
  <unicode hex="0221"/>
  <outline>
    <contour>
      <point x="309" y="-20"/>
      <point x="361" y="25"/>
      <point x="403" y="93" type="curve"/>
      <point x="371" y="188" type="line"/>
      <point x="350" y="142"/>
      <point x="323" y="122"/>
      <point x="294" y="122" type="curve" smooth="yes"/>
      <point x="256" y="122"/>
      <point x="225" y="140"/>
      <point x="225" y="268" type="curve" smooth="yes"/>
      <point x="225" y="376"/>
      <point x="259" y="413"/>
      <point x="303" y="413" type="curve" smooth="yes"/>
      <point x="333" y="413"/>
      <point x="350" y="396"/>
      <point x="374" y="368" type="curve"/>
      <point x="372" y="501" type="line"/>
      <point x="342" y="535"/>
      <point x="295" y="554"/>
      <point x="250" y="554" type="curve" smooth="yes"/>
      <point x="108" y="554"/>
      <point x="22" y="436"/>
      <point x="22" y="270" type="curve" smooth="yes"/>
      <point x="22" y="94"/>
      <point x="86" y="-20"/>
      <point x="225" y="-20" type="curve" smooth="yes"/>
    </contour>
    <contour>
      <point x="583" y="3" type="line"/>
      <point x="624" y="101" type="line"/>
      <point x="643" y="149"/>
      <point x="652" y="162"/>
      <point x="670" y="162" type="curve" smooth="yes"/>
      <point x="683" y="162"/>
      <point x="691" y="154"/>
      <point x="691" y="141" type="curve" smooth="yes"/>
      <point x="691" y="123"/>
      <point x="674" y="115"/>
      <point x="652" y="115" type="curve" smooth="yes"/>
      <point x="578" y="115"/>
      <point x="559" y="139"/>
      <point x="559" y="220" type="curve"/>
      <point x="361" y="220" type="line"/>
      <point x="361" y="36"/>
      <point x="489" y="-20"/>
      <point x="615" y="-20" type="curve" smooth="yes"/>
      <point x="727" y="-20"/>
      <point x="819" y="26"/>
      <point x="819" y="137" type="curve" smooth="yes"/>
      <point x="819" y="214"/>
      <point x="761" y="258"/>
      <point x="691" y="258" type="curve" smooth="yes"/>
      <point x="627" y="258"/>
      <point x="590" y="231"/>
      <point x="558" y="162" type="curve"/>
      <point x="497" y="38" type="line"/>
      <point x="452" y="-56" type="line"/>
      <point x="541" y="-90" type="line"/>
    </contour>
    <contour>
      <point x="559" y="744" type="line"/>
      <point x="361" y="764" type="line"/>
      <point x="361" y="220" type="line"/>
      <point x="559" y="220" type="line"/>
    </contour>
  </outline>
</glyph>
<glyph name="uni0222" format="1">
  <advance width="650"/>
  <unicode hex="0222"/>
  <outline>
    <contour>
      <point x="136" y="434"/>
      <point x="20" y="361"/>
      <point x="20" y="223" type="curve" smooth="yes"/>
      <point x="20" y="86"/>
      <point x="136" y="-20"/>
      <point x="325" y="-20" type="curve" smooth="yes"/>
      <point x="514" y="-20"/>
      <point x="630" y="91"/>
      <point x="630" y="223" type="curve" smooth="yes"/>
      <point x="630" y="366"/>
      <point x="514" y="434"/>
      <point x="325" y="434" type="curve"/>
    </contour>
    <contour>
      <point x="383" y="328"/>
      <point x="416" y="286"/>
      <point x="416" y="226" type="curve" smooth="yes"/>
      <point x="416" y="166"/>
      <point x="385" y="126"/>
      <point x="325" y="126" type="curve" smooth="yes"/>
      <point x="267" y="126"/>
      <point x="234" y="166"/>
      <point x="234" y="226" type="curve" smooth="yes"/>
      <point x="234" y="286"/>
      <point x="267" y="328"/>
      <point x="325" y="328" type="curve" smooth="yes"/>
    </contour>
    <contour>
      <point x="386" y="696" type="line"/>
      <point x="386" y="540" type="line" smooth="yes"/>
      <point x="386" y="494"/>
      <point x="375" y="466"/>
      <point x="325" y="466" type="curve" smooth="yes"/>
      <point x="275" y="466"/>
      <point x="264" y="493"/>
      <point x="264" y="540" type="curve" smooth="yes"/>
      <point x="264" y="696" type="line"/>
      <point x="58" y="696" type="line"/>
      <point x="58" y="554" type="line" smooth="yes"/>
      <point x="58" y="427"/>
      <point x="159" y="368"/>
      <point x="325" y="368" type="curve"/>
      <point x="491" y="368"/>
      <point x="592" y="436"/>
      <point x="592" y="554" type="curve" smooth="yes"/>
      <point x="592" y="696" type="line"/>
    </contour>
    <contour>
      <point x="325" y="696" type="move" name="top"/>
    </contour>
    <contour>
      <point x="325" y="0" type="move" name="bottom"/>
    </contour>
  </outline>
</glyph>
<glyph name="uni0223" format="1">
  <advance width="578"/>
  <unicode hex="0223"/>
  <outline>
    <contour>
      <point x="112" y="450"/>
      <point x="17" y="377"/>
      <point x="17" y="231" type="curve" smooth="yes"/>
      <point x="17" y="86"/>
      <point x="112" y="-20"/>
      <point x="289" y="-20" type="curve" smooth="yes"/>
      <point x="466" y="-20"/>
      <point x="561" y="91"/>
      <point x="561" y="231" type="curve" smooth="yes"/>
      <point x="561" y="382"/>
      <point x="466" y="450"/>
      <point x="289" y="450" type="curve"/>
    </contour>
    <contour>
      <point x="340" y="349"/>
      <point x="360" y="307"/>
      <point x="360" y="234" type="curve" smooth="yes"/>
      <point x="360" y="161"/>
      <point x="342" y="121"/>
      <point x="289" y="121" type="curve" smooth="yes"/>
      <point x="238" y="121"/>
      <point x="218" y="161"/>
      <point x="218" y="234" type="curve" smooth="yes"/>
      <point x="218" y="307"/>
      <point x="238" y="349"/>
      <point x="289" y="349" type="curve" smooth="yes"/>
    </contour>
    <contour>
      <point x="329" y="744" type="line"/>
      <point x="329" y="520" type="line" smooth="yes"/>
      <point x="329" y="486"/>
      <point x="322" y="472"/>
      <point x="289" y="472" type="curve" smooth="yes"/>
      <point x="257" y="472"/>
      <point x="249" y="493"/>
      <point x="249" y="520" type="curve" smooth="yes"/>
      <point x="249" y="744" type="line"/>
      <point x="55" y="744" type="line"/>
      <point x="55" y="560" type="line" smooth="yes"/>
      <point x="55" y="435"/>
      <point x="136" y="389"/>
      <point x="289" y="389" type="curve"/>
      <point x="442" y="389"/>
      <point x="523" y="452"/>
      <point x="523" y="560" type="curve" smooth="yes"/>
      <point x="523" y="744" type="line"/>
    </contour>
  </outline>
</glyph>
<glyph name="uni0224" format="1">
  <advance width="548"/>
  <unicode hex="0224"/>
  <outline>
    <contour>
      <point x="38" y="696" type="line"/>
      <point x="38" y="540" type="line"/>
      <point x="296" y="540" type="line"/>
      <point x="10" y="151" type="line"/>
      <point x="10" y="0" type="line"/>
      <point x="533" y="0" type="line"/>
      <point x="533" y="161" type="line"/>
      <point x="256" y="161" type="line"/>
      <point x="533" y="543" type="line"/>
      <point x="533" y="696" type="line"/>
    </contour>
    <contour>
      <point x="440" y="-227"/>
      <point x="533" y="-157"/>
      <point x="533" y="-16" type="curve" smooth="yes"/>
      <point x="533" y="1" type="line"/>
      <point x="337" y="1" type="line"/>
      <point x="337" y="-29" type="line" smooth="yes"/>
      <point x="337" y="-64"/>
      <point x="318" y="-82"/>
      <point x="282" y="-82" type="curve" smooth="yes"/>
      <point x="249" y="-82"/>
      <point x="233" y="-74"/>
      <point x="209" y="-62" type="curve"/>
      <point x="145" y="-182" type="line"/>
      <point x="181" y="-208"/>
      <point x="230" y="-227"/>
      <point x="302" y="-227" type="curve" smooth="yes"/>
    </contour>
  </outline>
</glyph>
<glyph name="uni0225" format="1">
  <advance width="465"/>
  <unicode hex="0225"/>
  <outline>
    <contour>
      <point x="25" y="534" type="line"/>
      <point x="25" y="390" type="line"/>
      <point x="227" y="390" type="line"/>
      <point x="5" y="138" type="line"/>
      <point x="5" y="0" type="line"/>
      <point x="455" y="0" type="line"/>
      <point x="455" y="146" type="line"/>
      <point x="236" y="146" type="line"/>
      <point x="455" y="397" type="line"/>
      <point x="455" y="534" type="line"/>
    </contour>
    <contour>
      <point x="364" y="-227"/>
      <point x="455" y="-157"/>
      <point x="455" y="-16" type="curve" smooth="yes"/>
      <point x="455" y="1" type="line"/>
      <point x="267" y="1" type="line"/>
      <point x="267" y="-34" type="line" smooth="yes"/>
      <point x="267" y="-69"/>
      <point x="245" y="-87"/>
      <point x="212" y="-87" type="curve" smooth="yes"/>
      <point x="177" y="-87"/>
      <point x="161" y="-79"/>
      <point x="137" y="-67" type="curve"/>
      <point x="73" y="-182" type="line"/>
      <point x="109" y="-208"/>
      <point x="158" y="-227"/>
      <point x="229" y="-227" type="curve" smooth="yes"/>
    </contour>
  </outline>
</glyph>
<glyph name="uni0234" format="1">
  <advance width="495"/>
  <unicode hex="0234"/>
  <outline>
    <contour>
      <point x="235" y="220" type="line"/>
      <point x="235" y="764" type="line"/>
      <point x="37" y="744" type="line"/>
      <point x="37" y="220" type="line"/>
    </contour>
    <contour>
      <point x="259" y="3" type="line"/>
      <point x="300" y="101" type="line"/>
      <point x="319" y="149"/>
      <point x="328" y="162"/>
      <point x="346" y="162" type="curve" smooth="yes"/>
      <point x="359" y="162"/>
      <point x="367" y="154"/>
      <point x="367" y="141" type="curve" smooth="yes"/>
      <point x="367" y="123"/>
      <point x="350" y="115"/>
      <point x="328" y="115" type="curve" smooth="yes"/>
      <point x="254" y="115"/>
      <point x="235" y="139"/>
      <point x="235" y="220" type="curve"/>
      <point x="37" y="220" type="line"/>
      <point x="37" y="36"/>
      <point x="165" y="-20"/>
      <point x="291" y="-20" type="curve" smooth="yes"/>
      <point x="403" y="-20"/>
      <point x="495" y="26"/>
      <point x="495" y="137" type="curve" smooth="yes"/>
      <point x="495" y="214"/>
      <point x="437" y="258"/>
      <point x="367" y="258" type="curve" smooth="yes"/>
      <point x="303" y="258"/>
      <point x="266" y="231"/>
      <point x="234" y="162" type="curve"/>
      <point x="173" y="38" type="line"/>
      <point x="128" y="-56" type="line"/>
      <point x="217" y="-90" type="line"/>
    </contour>
  </outline>
</glyph>
<glyph name="uni0235" format="1">
  <advance width="795"/>
  <unicode hex="0235"/>
  <outline>
    <contour>
      <point x="321" y="554"/>
      <point x="270" y="527"/>
      <point x="216" y="464" type="curve"/>
      <point x="240" y="357" type="line"/>
      <point x="263" y="393"/>
      <point x="286" y="410"/>
      <point x="307" y="410" type="curve" smooth="yes"/>
      <point x="325" y="410"/>
      <point x="337" y="400"/>
      <point x="337" y="358" type="curve"/>
      <point x="337" y="220" type="line"/>
      <point x="535" y="220" type="line"/>
      <point x="535" y="394" type="line" smooth="yes"/>
      <point x="535" y="496"/>
      <point x="480" y="554"/>
      <point x="391" y="554" type="curve" smooth="yes"/>
    </contour>
    <contour>
      <point x="42" y="534" type="line"/>
      <point x="42" y="0" type="line"/>
      <point x="240" y="0" type="line"/>
      <point x="240" y="435" type="line"/>
      <point x="215" y="534" type="line"/>
    </contour>
    <contour>
      <point x="559" y="3" type="line"/>
      <point x="600" y="101" type="line"/>
      <point x="619" y="149"/>
      <point x="628" y="162"/>
      <point x="646" y="162" type="curve" smooth="yes"/>
      <point x="659" y="162"/>
      <point x="667" y="154"/>
      <point x="667" y="141" type="curve" smooth="yes"/>
      <point x="667" y="123"/>
      <point x="650" y="115"/>
      <point x="628" y="115" type="curve" smooth="yes"/>
      <point x="554" y="115"/>
      <point x="535" y="139"/>
      <point x="535" y="220" type="curve"/>
      <point x="337" y="220" type="line"/>
      <point x="337" y="36"/>
      <point x="465" y="-20"/>
      <point x="591" y="-20" type="curve" smooth="yes"/>
      <point x="703" y="-20"/>
      <point x="795" y="26"/>
      <point x="795" y="137" type="curve" smooth="yes"/>
      <point x="795" y="214"/>
      <point x="737" y="258"/>
      <point x="667" y="258" type="curve" smooth="yes"/>
      <point x="603" y="258"/>
      <point x="566" y="231"/>
      <point x="534" y="162" type="curve"/>
      <point x="473" y="38" type="line"/>
      <point x="428" y="-56" type="line"/>
      <point x="517" y="-90" type="line"/>
    </contour>
  </outline>
</glyph>
<glyph name="uni0236" format="1">
  <advance width="520"/>
  <unicode hex="0236"/>
  <outline>
    <contour>
      <point x="62" y="646" type="line"/>
      <point x="62" y="220" type="line"/>
      <point x="260" y="220" type="line"/>
      <point x="260" y="669" type="line"/>
    </contour>
    <contour>
      <point x="-2" y="534" type="line"/>
      <point x="-2" y="400" type="line"/>
      <point x="360" y="400" type="line"/>
      <point x="380" y="534" type="line"/>
    </contour>
    <contour>
      <point x="284" y="3" type="line"/>
      <point x="325" y="101" type="line"/>
      <point x="344" y="149"/>
      <point x="353" y="162"/>
      <point x="371" y="162" type="curve" smooth="yes"/>
      <point x="384" y="162"/>
      <point x="392" y="154"/>
      <point x="392" y="141" type="curve" smooth="yes"/>
      <point x="392" y="123"/>
      <point x="375" y="115"/>
      <point x="353" y="115" type="curve" smooth="yes"/>
      <point x="279" y="115"/>
      <point x="260" y="139"/>
      <point x="260" y="220" type="curve"/>
      <point x="62" y="220" type="line"/>
      <point x="62" y="36"/>
      <point x="190" y="-20"/>
      <point x="316" y="-20" type="curve" smooth="yes"/>
      <point x="428" y="-20"/>
      <point x="520" y="26"/>
      <point x="520" y="137" type="curve" smooth="yes"/>
      <point x="520" y="214"/>
      <point x="462" y="258"/>
      <point x="392" y="258" type="curve" smooth="yes"/>
      <point x="328" y="258"/>
      <point x="291" y="231"/>
      <point x="259" y="162" type="curve"/>
      <point x="198" y="38" type="line"/>
      <point x="153" y="-56" type="line"/>
      <point x="242" y="-90" type="line"/>
    </contour>
  </outline>
</glyph>
<glyph name="dotlessj" format="1">
  <advance width="282"/>
  <unicode hex="0237"/>
  <outline>
    <contour>
      <point x="42" y="534" type="line"/>
      <point x="42" y="65" type="line" smooth="yes"/>
      <point x="42" y="-22"/>
      <point x="-3" y="-52"/>
      <point x="-70" y="-83" type="curve"/>
      <point x="-2" y="-227" type="line"/>
      <point x="130" y="-184"/>
      <point x="240" y="-111"/>
      <point x="240" y="77" type="curve" smooth="yes"/>
      <point x="240" y="534" type="line"/>
    </contour>
    <contour>
      <point x="141" y="534" type="move" name="top"/>
    </contour>
    <contour>
      <point x="141" y="-215" type="move" name="bottom"/>
    </contour>
  </outline>
</glyph>
<glyph name="uni0238" format="1">
  <advance width="878"/>
  <unicode hex="0238"/>
  <outline>
    <contour>
      <point x="289" y="-20"/>
      <point x="336" y="25"/>
      <point x="363" y="66" type="curve"/>
      <point x="351" y="188" type="line"/>
      <point x="330" y="142"/>
      <point x="303" y="122"/>
      <point x="284" y="122" type="curve" smooth="yes"/>
      <point x="256" y="122"/>
      <point x="225" y="140"/>
      <point x="225" y="268" type="curve" smooth="yes"/>
      <point x="225" y="376"/>
      <point x="254" y="413"/>
      <point x="288" y="413" type="curve" smooth="yes"/>
      <point x="314" y="413"/>
      <point x="334" y="393"/>
      <point x="354" y="358" type="curve"/>
      <point x="352" y="481" type="line"/>
      <point x="322" y="532"/>
      <point x="275" y="554"/>
      <point x="230" y="554" type="curve" smooth="yes"/>
      <point x="108" y="554"/>
      <point x="22" y="436"/>
      <point x="22" y="270" type="curve" smooth="yes"/>
      <point x="22" y="94"/>
      <point x="87" y="-20"/>
      <point x="215" y="-20" type="curve" smooth="yes"/>
    </contour>
    <contour>
      <point x="517" y="0" type="line"/>
      <point x="539" y="152" type="line"/>
      <point x="539" y="764" type="line"/>
      <point x="341" y="744" type="line"/>
      <point x="341" y="156" type="line"/>
      <point x="363" y="0" type="line"/>
    </contour>
    <contour>
      <point x="776" y="-20"/>
      <point x="856" y="103"/>
      <point x="856" y="266" type="curve" smooth="yes"/>
      <point x="856" y="445"/>
      <point x="792" y="554"/>
      <point x="674" y="554" type="curve" smooth="yes"/>
      <point x="613" y="554"/>
      <point x="560" y="521"/>
      <point x="531" y="474" type="curve"/>
      <point x="531" y="355" type="line"/>
      <point x="550" y="392"/>
      <point x="574" y="412"/>
      <point x="599" y="412" type="curve" smooth="yes"/>
      <point x="625" y="412"/>
      <point x="653" y="391"/>
      <point x="653" y="266" type="curve" smooth="yes"/>
      <point x="653" y="154"/>
      <point x="624" y="121"/>
      <point x="594" y="121" type="curve" smooth="yes"/>
      <point x="571" y="121"/>
      <point x="546" y="144"/>
      <point x="530" y="183" type="curve"/>
      <point x="514" y="71" type="line"/>
      <point x="544" y="11"/>
      <point x="596" y="-20"/>
      <point x="652" y="-20" type="curve" smooth="yes"/>
    </contour>
  </outline>
</glyph>
<glyph name="uni0239" format="1">
  <advance width="873"/>
  <unicode hex="0239"/>
  <outline>
    <contour>
      <point x="103" y="554"/>
      <point x="17" y="436"/>
      <point x="17" y="270" type="curve" smooth="yes"/>
      <point x="17" y="94"/>
      <point x="81" y="-20"/>
      <point x="213" y="-20" type="curve" smooth="yes"/>
      <point x="284" y="-20"/>
      <point x="331" y="25"/>
      <point x="358" y="72" type="curve"/>
      <point x="346" y="188" type="line"/>
      <point x="325" y="142"/>
      <point x="298" y="122"/>
      <point x="276" y="122" type="curve" smooth="yes"/>
      <point x="251" y="122"/>
      <point x="220" y="140"/>
      <point x="220" y="268" type="curve" smooth="yes"/>
      <point x="220" y="376"/>
      <point x="248" y="413"/>
      <point x="282" y="413" type="curve" smooth="yes"/>
      <point x="308" y="413"/>
      <point x="325" y="396"/>
      <point x="349" y="348" type="curve"/>
      <point x="371" y="457" type="line"/>
      <point x="330" y="526"/>
      <point x="280" y="554"/>
      <point x="227" y="554" type="curve" smooth="yes"/>
    </contour>
    <contour>
      <point x="359" y="534" type="line"/>
      <point x="349" y="466" type="line"/>
      <point x="336" y="433" type="line"/>
      <point x="336" y="-227" type="line"/>
      <point x="534" y="-207" type="line"/>
      <point x="534" y="378" type="line"/>
      <point x="522" y="466" type="line"/>
      <point x="512" y="534" type="line"/>
    </contour>
    <contour>
      <point x="600" y="554"/>
      <point x="555" y="534"/>
      <point x="507" y="465" type="curve"/>
      <point x="523" y="350" type="line"/>
      <point x="545" y="392"/>
      <point x="574" y="412"/>
      <point x="596" y="412" type="curve" smooth="yes"/>
      <point x="626" y="412"/>
      <point x="648" y="395"/>
      <point x="648" y="266" type="curve" smooth="yes"/>
      <point x="648" y="158"/>
      <point x="617" y="121"/>
      <point x="590" y="121" type="curve" smooth="yes"/>
      <point x="564" y="121"/>
      <point x="544" y="139"/>
      <point x="522" y="188" type="curve"/>
      <point x="523" y="67" type="line"/>
      <point x="546" y="12"/>
      <point x="602" y="-20"/>
      <point x="648" y="-20" type="curve" smooth="yes"/>
      <point x="766" y="-20"/>
      <point x="851" y="103"/>
      <point x="851" y="269" type="curve" smooth="yes"/>
      <point x="851" y="445"/>
      <point x="787" y="554"/>
      <point x="662" y="554" type="curve" smooth="yes"/>
    </contour>
  </outline>
</glyph>
<glyph name="uni023A" format="1">
  <advance width="601"/>
  <unicode hex="023A"/>
  <outline>
    <contour>
      <point x="178" y="-62" type="line"/>
      <point x="244" y="-77" type="line"/>
      <point x="460" y="744" type="line"/>
      <point x="395" y="759" type="line"/>
    </contour>
    <contour>
      <point x="178" y="696" type="line"/>
      <point x="-25" y="0" type="line"/>
      <point x="170" y="0" type="line"/>
      <point x="298" y="572" type="line"/>
      <point x="428" y="0" type="line"/>
      <point x="626" y="0" type="line"/>
      <point x="424" y="696" type="line"/>
    </contour>
    <contour>
      <point x="219" y="269" type="line"/>
      <point x="190" y="135" type="line"/>
      <point x="407" y="135" type="line"/>
      <point x="378" y="269" type="line"/>
    </contour>
  </outline>
</glyph>
<glyph name="uni023B" format="1">
  <advance width="584"/>
  <unicode hex="023B"/>
  <outline>
    <contour>
      <point x="198" y="-62" type="line"/>
      <point x="264" y="-77" type="line"/>
      <point x="480" y="744" type="line"/>
      <point x="415" y="759" type="line"/>
    </contour>
    <component base="C"/>
  </outline>
</glyph>
<glyph name="uni023C" format="1">
  <advance width="479"/>
  <unicode hex="023C"/>
  <outline>
    <contour>
      <point x="182" y="-62" type="line"/>
      <point x="245" y="-77" type="line"/>
      <point x="420" y="589" type="line"/>
      <point x="358" y="604" type="line"/>
    </contour>
    <component base="c"/>
  </outline>
</glyph>
<glyph name="uni023E" format="1">
  <advance width="554"/>
  <unicode hex="023E"/>
  <outline>
    <contour>
      <point x="365" y="0" type="line"/>
      <point x="365" y="552" type="line"/>
      <point x="538" y="552" type="line"/>
      <point x="559" y="696" type="line"/>
      <point x="5" y="696" type="line"/>
      <point x="5" y="552" type="line"/>
      <point x="189" y="552" type="line"/>
      <point x="189" y="0" type="line"/>
    </contour>
    <contour>
      <point x="548" y="731" type="line"/>
      <point x="495" y="759" type="line"/>
      <point x="81" y="-49" type="line"/>
      <point x="134" y="-77" type="line"/>
    </contour>
  </outline>
</glyph>
<glyph name="uni023F" format="1">
  <advance width="493"/>
  <unicode hex="023F"/>
  <outline>
    <contour>
      <point x="378" y="-20"/>
      <point x="483" y="53"/>
      <point x="483" y="164" type="curve" smooth="yes"/>
      <point x="483" y="261"/>
      <point x="427" y="305"/>
      <point x="326" y="336" type="curve" smooth="yes"/>
      <point x="225" y="367"/>
      <point x="219" y="375"/>
      <point x="219" y="393" type="curve" smooth="yes"/>
      <point x="219" y="407"/>
      <point x="231" y="417"/>
      <point x="264" y="417" type="curve" smooth="yes"/>
      <point x="307" y="417"/>
      <point x="353" y="402"/>
      <point x="391" y="378" type="curve"/>
      <point x="461" y="485" type="line"/>
      <point x="412" y="527"/>
      <point x="335" y="554"/>
      <point x="256" y="554" type="curve" smooth="yes"/>
      <point x="106" y="554"/>
      <point x="23" y="477"/>
      <point x="23" y="381" type="curve" smooth="yes"/>
      <point x="23" y="295"/>
      <point x="78" y="238"/>
      <point x="178" y="208" type="curve" smooth="yes"/>
      <point x="270" y="180"/>
      <point x="281" y="175"/>
      <point x="281" y="149" type="curve" smooth="yes"/>
      <point x="281" y="127"/>
      <point x="260" y="116"/>
      <point x="225" y="116" type="curve" smooth="yes"/>
      <point x="176" y="116"/>
      <point x="127" y="136"/>
      <point x="79" y="169" type="curve"/>
      <point x="-5" y="65" type="line"/>
      <point x="50" y="13"/>
      <point x="136" y="-20"/>
      <point x="230" y="-20" type="curve" smooth="yes"/>
    </contour>
    <contour>
      <point x="420" y="-226"/>
      <point x="454" y="-212"/>
      <point x="477" y="-196" type="curve"/>
      <point x="444" y="-78" type="line"/>
      <point x="431" y="-82"/>
      <point x="417" y="-86"/>
      <point x="396" y="-86" type="curve" smooth="yes"/>
      <point x="310" y="-86"/>
      <point x="330" y="-3"/>
      <point x="112" y="16" type="curve"/>
      <point x="-5" y="65" type="line"/>
      <point x="161" y="-46"/>
      <point x="178" y="-226"/>
      <point x="368" y="-226" type="curve" smooth="yes"/>
    </contour>
  </outline>
</glyph>
<glyph name="uni0240" format="1">
  <advance width="457"/>
  <unicode hex="0240"/>
  <outline>
    <contour>
      <point x="450" y="-226"/>
      <point x="484" y="-212"/>
      <point x="507" y="-196" type="curve"/>
      <point x="474" y="-78" type="line"/>
      <point x="459" y="-82"/>
      <point x="447" y="-86"/>
      <point x="423" y="-86" type="curve" smooth="yes"/>
      <point x="336" y="-86"/>
      <point x="336" y="43"/>
      <point x="189" y="103" type="curve"/>
      <point x="455" y="397" type="line"/>
      <point x="455" y="534" type="line"/>
      <point x="25" y="534" type="line"/>
      <point x="25" y="390" type="line"/>
      <point x="227" y="390" type="line"/>
      <point x="5" y="138" type="line"/>
      <point x="5" y="0" type="line"/>
      <point x="228" y="-14"/>
      <point x="188" y="-226"/>
      <point x="398" y="-226" type="curve" smooth="yes"/>
    </contour>
  </outline>
</glyph>
<glyph name="uni0241" format="1">
  <advance width="535"/>
  <unicode hex="0241"/>
  <outline>
    <contour>
      <point x="351" y="0" type="line"/>
      <point x="351" y="282" type="line"/>
      <point x="378" y="293" type="line" smooth="yes"/>
      <point x="473" y="333"/>
      <point x="515" y="391"/>
      <point x="515" y="493" type="curve" smooth="yes"/>
      <point x="515" y="627"/>
      <point x="415" y="716"/>
      <point x="251" y="716" type="curve" smooth="yes"/>
      <point x="150" y="716"/>
      <point x="66" y="683"/>
      <point x="0" y="620" type="curve"/>
      <point x="95" y="520" type="line"/>
      <point x="140" y="556"/>
      <point x="176" y="572"/>
      <point x="219" y="572" type="curve" smooth="yes"/>
      <point x="272" y="572"/>
      <point x="303" y="538"/>
      <point x="303" y="483" type="curve" smooth="yes"/>
      <point x="303" y="410"/>
      <point x="273" y="374"/>
      <point x="190" y="350" type="curve" smooth="yes"/>
      <point x="145" y="337" type="line"/>
      <point x="145" y="0" type="line"/>
    </contour>
  </outline>
</glyph>
